<?xml version="1.0" standalone="no"?>
<!DOCTYPE svg PUBLIC "-//W3C//DTD SVG 1.1//EN" "http://www.w3.org/Graphics/SVG/1.1/DTD/svg11.dtd" >
<svg xmlns="http://www.w3.org/2000/svg" xmlns:xlink="http://www.w3.org/1999/xlink" version="1.1">
<metadata>
Created by FontForge 20190801 at Mon May 16 18:11:54 2022
 By www-data
Copyright (c) 2019 by Mathieu Desjardins. All rights reserved.
</metadata>
<defs>
<font id="PPNeueMachinaInktrapRegular" horiz-adv-x="0" >
  <font-face 
    font-family="PPNeueMachinaInktrapRegular"
    font-weight="400"
    font-stretch="normal"
    units-per-em="1000"
    panose-1="0 0 0 0 0 0 0 0 0 0"
    ascent="800"
    descent="-200"
    x-height="497"
    cap-height="705"
    bbox="-62 -258 1581 986"
    underline-thickness="50"
    underline-position="-100"
    unicode-range="U+0020-FB02"
  />
<missing-glyph horiz-adv-x="465" 
d="M381 -190h-295v930h295v-930zM310 -126v31h-95l65 44h30v30h-155v-30h65l-65 -44v-31h155zM310 1v105h-155v-105h155zM310 162v105h-93v-52h31v21h31v-44h-93v75h-31v-105h155zM310 287v93h-31v-61h-124v-32h155zM248 340v65h62v31h-155v-31h62v-34h-62v-31h93zM310 461
v32h-62v65h-93v-97h155zM310 582v31h-62v34h62v31h-154v-31h61v-34h-62v-31h155zM186 75h93v-44h-93v44zM186 526h31v-33h-31v33z" />
    <glyph glyph-name="fi" unicode="fi" horiz-adv-x="777" 
d="M257.5 634q-18.5 -25 -18.5 -75v-62h301q35 0 51 -16.5t16 -52.5v-352h138v-76h-703v76h109v345h-109v76h109v63q0 82 42.5 128.5t131.5 46.5h223v-76h-227q-45 0 -63.5 -25zM518 76v345h-279v-345h279z" />
    <glyph glyph-name="fl" unicode="fl" horiz-adv-x="767" 
d="M42 497h108v72q0 79 43 122.5t132 43.5h218q52 0 52 -50v-609h140v-76h-693v76h108v345h-108v76zM507 76v583h-186q-46 0 -64 -21.5t-18 -70.5v-70h144v-76h-144v-345h268z" />
    <glyph glyph-name="f_f" unicode="ff" horiz-adv-x="776" 
d="M42 497h115v22q0 86 43.5 130.5t130.5 44.5h207q44 41 129 41h86v-76h-90q-46 0 -64 -21.5t-18 -70.5v-70h144v-76h-144v-345h144v-76h-683v76h115v345h-115v76zM492 76v345h-247v-345h247zM492 497v72q0 24 5 51h-166q-49 0 -67.5 -24t-18.5 -79v-20h247z" />
    <glyph glyph-name="f_f_i" unicode="ffi" horiz-adv-x="1119" 
d="M42 497h115v22q0 86 43.5 130.5t130.5 44.5h210q44 41 126 41h223v-76h-227q-45 0 -63.5 -25t-18.5 -75v-62h301q35 0 51 -16.5t16 -52.5v-352h138v-76h-1045v76h115v345h-115v76zM493 76v345h-248v-345h248zM493 497v63q0 35 7 60h-169q-49 0 -67.5 -24t-18.5 -79v-20
h248zM860 76v345h-279v-345h279z" />
    <glyph glyph-name=".notdef" horiz-adv-x="465" 
d="M381 -190h-295v930h295v-930zM310 -126v31h-95l65 44h30v30h-155v-30h65l-65 -44v-31h155zM310 1v105h-155v-105h155zM310 162v105h-93v-52h31v21h31v-44h-93v75h-31v-105h155zM310 287v93h-31v-61h-124v-32h155zM248 340v65h62v31h-155v-31h62v-34h-62v-31h93zM310 461
v32h-62v65h-93v-97h155zM310 582v31h-62v34h62v31h-154v-31h61v-34h-62v-31h155zM186 75h93v-44h-93v44zM186 526h31v-33h-31v33z" />
    <glyph glyph-name=".null" 
 />
    <glyph glyph-name="nonmarkingreturn" horiz-adv-x="333" 
 />
    <glyph glyph-name="space" unicode=" " horiz-adv-x="327" 
 />
    <glyph glyph-name="space" unicode="&#xa0;" horiz-adv-x="327" 
 />
    <glyph glyph-name="exclam" unicode="!" horiz-adv-x="335" 
d="M106.5 14.5q-24.5 24.5 -24.5 60.5t24.5 60t60.5 24t61 -24.5t25 -59.5t-25 -60t-61 -25t-60.5 24.5zM212 705l-11 -459h-66l-11 459h88z" />
    <glyph glyph-name="quotedbl" unicode="&#x22;" horiz-adv-x="378" 
d="M161 745v-260h-82v260h82zM299 745v-260h-82v260h82z" />
    <glyph glyph-name="numbersign" unicode="#" horiz-adv-x="1085" 
d="M424 498l124 271l68 -30l-111 -241h249l124 271l68 -30l-111 -241h167v-67h-197l-107 -233h207v-67h-238l-130 -284l-68 31l116 253h-248l-130 -284l-68 31l116 253h-173v67h204l107 233h-213v67h244zM616 198l107 233h-248l-107 -233h248z" />
    <glyph glyph-name="dollar" unicode="$" horiz-adv-x="693" 
d="M380 -11v-137h-62v139q-132 13 -200 83t-68 191h92q0 -173 176 -196v263l-78 20q-157 41 -157 177q0 88 60.5 136t174.5 51v137h62v-139q120 -10 183 -73.5t63 -168.5h-93q0 147 -153 165v-237l97 -24q85 -22 127.5 -69.5t42.5 -118.5q0 -196 -267 -199zM282 425l36 -9
v224q-143 -6 -143 -107q0 -80 107 -108zM512 96q43 29 43 87q0 88 -118 118l-57 15v-250q89 1 132 30z" />
    <glyph glyph-name="percent" unicode="%" horiz-adv-x="1133" 
d="M130.5 317q-47.5 28 -74 75.5t-26.5 104.5t26.5 104.5t74 75.5t108.5 28t109 -28t74 -75.5t26 -104.5t-26 -104.5t-74 -75.5t-109 -28t-108.5 28zM118.5 428.5q17.5 -31.5 49.5 -50t71 -18.5t71 18.5t49.5 50t17.5 68.5t-17.5 68.5t-49.5 50t-71 18.5t-71 -18.5
t-49.5 -50t-17.5 -68.5t17.5 -68.5zM777 680l-357 -692l-63 30l356 692zM785.5 20q-47.5 28 -74 75.5t-26.5 104.5t26.5 104.5t74 75.5t108.5 28t109 -28t74 -75.5t26 -104.5t-26 -104.5t-74 -75.5t-109 -28t-108.5 28zM773.5 131.5q17.5 -31.5 49.5 -50t71 -18.5t71 18.5
t49.5 50t17.5 68.5t-17.5 68.5t-49.5 50t-71 18.5t-71 -18.5t-49.5 -50t-17.5 -68.5t17.5 -68.5z" />
    <glyph glyph-name="ampersand" unicode="&#x26;" horiz-adv-x="908" 
d="M87.5 362q28.5 52 77 80t106.5 28q39 0 69 -15.5t47 -36.5v24l-167 213v50h528v-76h-402l330 -420q67 111 67 281h89q0 -106 -25.5 -195t-75.5 -156l122 -155l-70 -47l-110 140q-115 -101 -290 -101q-94 0 -167.5 32t-115 92t-41.5 140q0 70 28.5 122zM211.5 103
q64.5 -51 172.5 -51q147 0 239 89l-128 163q-43 55 -84.5 77.5t-99.5 22.5q-74 0 -119 -42.5t-45 -119.5q0 -88 64.5 -139z" />
    <glyph glyph-name="quotesingle" unicode="'" horiz-adv-x="240" 
d="M161 745v-260h-82v260h82z" />
    <glyph glyph-name="parenleft" unicode="(" horiz-adv-x="432" 
d="M146.5 21q-64.5 112 -64.5 287t64.5 286.5t203.5 140.5v-72q-100 -25 -144.5 -115.5t-44.5 -239.5t44.5 -240t144.5 -116v-72q-139 29 -203.5 141z" />
    <glyph glyph-name="parenright" unicode=")" horiz-adv-x="432" 
d="M285.5 594q64.5 -112 64.5 -287t-64.5 -286.5t-203.5 -140.5v72q100 25 144.5 115.5t44.5 239.5t-44.5 240t-144.5 116v72q139 -29 203.5 -141z" />
    <glyph glyph-name="asterisk" unicode="*" horiz-adv-x="508" 
d="M82 636l115 -38l37 -26l-13 43v120h67v-120l-13 -44l36 26l115 36l20 -63l-115 -37l-44 -2l35 -25l71 -97l-55 -40l-70 98l-15 42l-15 -42l-71 -97l-53 39l70 97l36 27l-43 1l-115 37z" />
    <glyph glyph-name="plus" unicode="+" horiz-adv-x="647" 
d="M287 289v205h72v-205h205v-72h-205v-205h-72v205h-205v72h205z" />
    <glyph glyph-name="comma" unicode="," horiz-adv-x="281" 
d="M200 143l-80 -295l-80 22l80 295z" />
    <glyph glyph-name="hyphen" unicode="-" horiz-adv-x="647" 
d="M564 289v-72h-482v72h482z" />
    <glyph glyph-name="period" unicode="." horiz-adv-x="335" 
d="M106.5 14.5q-24.5 24.5 -24.5 60.5t24.5 60t60.5 24t61 -24.5t25 -59.5t-25 -60t-61 -25t-60.5 24.5z" />
    <glyph glyph-name="slash" unicode="/" horiz-adv-x="499" 
d="M488 779l-408 -892l-68 31l408 891z" />
    <glyph glyph-name="zero" unicode="0" horiz-adv-x="727" 
d="M198 35.5q-69 46.5 -104.5 129t-35.5 188.5q0 105 35.5 187.5t104.5 129t166 46.5t165.5 -46.5t104 -129t35.5 -187.5q0 -106 -35 -188.5t-104 -129t-166 -46.5t-166 46.5zM179 189l326 394q-55 55 -141 55q-104 0 -159.5 -77.5t-55.5 -207.5q0 -96 30 -164zM364 67
q104 0 159 77.5t55 208.5q0 94 -29 163l-327 -392q54 -57 142 -57z" />
    <glyph glyph-name="one" unicode="1" horiz-adv-x="490" 
d="M187.5 512.5q42.5 79.5 44.5 192.5h181v-705h-91v615l15 65h-25q-9 -137 -59.5 -229.5t-174.5 -132.5l-28 77q95 38 137.5 117.5z" />
    <glyph glyph-name="two" unicode="2" horiz-adv-x="672" 
d="M135.5 631.5q83.5 84.5 220.5 84.5q117 0 187 -62t70 -177q0 -160 -145 -257.5t-381 -133.5v-26l68 18h458v-78h-551v157q82 8 186.5 39.5t189 101t84.5 180.5q0 78 -42 119t-123 41q-215 0 -215 -271h-90q0 180 83.5 264.5z" />
    <glyph glyph-name="three" unicode="3" horiz-adv-x="678" 
d="M195 113.5q49 -46.5 153 -46.5q180 0 180 142q0 124 -132 124h-98v75h98q62 0 92 25.5t30 79.5q0 125 -170 125q-100 0 -146 -40t-46 -125h-90q0 120 73.5 181.5t210.5 61.5q124 0 191 -51t67 -135q0 -65 -35.5 -100.5t-104.5 -46.5v-25q74 -14 112 -50t38 -113
q0 -97 -70.5 -151.5t-197.5 -54.5q-141 0 -217.5 68t-76.5 212h90q0 -109 49 -155.5z" />
    <glyph glyph-name="four" unicode="4" horiz-adv-x="666" 
d="M524 476v-247h90v-77h-90v-152h-89v152h-375v159q128 51 213.5 153.5t99.5 240.5h89q-41 -325 -377 -466v-25l64 15h286v247h89z" />
    <glyph glyph-name="five" unicode="5" horiz-adv-x="708" 
d="M139 56.5q-79 67.5 -79 193.5h89q0 -90 53 -137.5t153 -47.5q94 0 148 51t54 142q0 82 -47 126.5t-135 44.5q-110 0 -179 -91l-122 70l57 297h464v-76h-391l-46 -238l20 -13q68 124 220 124q117 0 182.5 -64t65.5 -182q0 -81 -36 -141.5t-102 -93t-154 -32.5
q-136 0 -215 67.5z" />
    <glyph glyph-name="six" unicode="6" horiz-adv-x="691" 
d="M139 74.5q-78 85.5 -78 250.5q0 178 75.5 279t262.5 101h184v-78h-192q-128 0 -189 -67t-72 -174l-24 -52h25q18 76 82.5 121t162.5 45q78 0 137 -32t90.5 -88t31.5 -127q0 -79 -33 -139t-95.5 -92.5t-147.5 -32.5q-142 0 -220 85.5zM175.5 159q23.5 -42 69.5 -67
t110 -25q91 0 140 48t49 135q0 80 -50 128t-136 48q-94 0 -150 -47.5t-56 -127.5q0 -50 23.5 -92z" />
    <glyph glyph-name="seven" unicode="7" horiz-adv-x="588" 
d="M245.5 376.5q93.5 150.5 284.5 240.5v25l-60 -15h-436v78h521v-150q-159 -78 -234.5 -211.5t-75.5 -343.5h-93q0 226 93.5 376.5z" />
    <glyph glyph-name="eight" unicode="8" horiz-adv-x="672" 
d="M181 14q-66 25 -100.5 71.5t-34.5 108.5q0 75 44 117.5t129 63.5v26q-65 17 -99 50.5t-34 96.5q0 84 69.5 125.5t181.5 41.5q111 0 180.5 -41.5t69.5 -125.5q0 -63 -34 -96.5t-99 -50.5v-26q84 -20 128.5 -63.5t44.5 -117.5q0 -62 -34.5 -108.5t-100 -71.5t-155.5 -25
t-156 25zM187.5 103.5q49.5 -37.5 149.5 -37.5q99 0 148.5 37.5t49.5 104.5q0 66 -49.5 104t-148.5 38q-100 0 -149.5 -38t-49.5 -104q0 -67 49.5 -104.5zM217.5 448.5q39.5 -24.5 119.5 -24.5q78 0 118 24.5t40 83.5q0 58 -40 83t-118 25q-79 0 -119 -25t-40 -83
q0 -59 39.5 -83.5z" />
    <glyph glyph-name="nine" unicode="9" horiz-adv-x="691" 
d="M552 630.5q78 -85.5 78 -250.5q0 -178 -75.5 -279t-262.5 -101h-184v78h192q128 0 189 67t72 174l24 52h-25q-18 -76 -82.5 -121t-162.5 -45q-78 0 -137 32t-90.5 88t-31.5 127q0 79 33 139t95.5 92.5t147.5 32.5q142 0 220 -85.5zM197 327q50 -48 136 -48q94 0 150 47.5
t56 127.5q0 50 -23.5 92t-69.5 67t-110 25q-91 0 -140 -48t-49 -135q0 -80 50 -128z" />
    <glyph glyph-name="colon" unicode=":" horiz-adv-x="335" 
d="M106.5 14.5q-24.5 24.5 -24.5 60.5t24.5 60t60.5 24t61 -24.5t25 -59.5t-25 -60t-61 -25t-60.5 24.5zM106.5 358.5q-24.5 24.5 -24.5 60.5t24.5 60t60.5 24t61 -24.5t25 -59.5t-25 -60t-61 -25t-60.5 24.5z" />
    <glyph glyph-name="semicolon" unicode=";" horiz-adv-x="281" 
d="M200 143l-80 -295l-80 22l80 295zM106.5 358.5q-24.5 24.5 -24.5 60.5t24.5 60t60.5 24t61 -24.5t25 -59.5t-25 -60t-61 -25t-60.5 24.5z" />
    <glyph glyph-name="less" unicode="&#x3c;" horiz-adv-x="648" 
d="M538 448l28 -69l-395 -131l395 -136l-28 -68l-456 163v82z" />
    <glyph glyph-name="equal" unicode="=" horiz-adv-x="647" 
d="M564 391v-71h-482v71h482zM82 187h482v-72h-482v72z" />
    <glyph glyph-name="greater" unicode="&#x3e;" horiz-adv-x="648" 
d="M110 50l-28 69l395 131l-395 136l28 68l456 -163v-82z" />
    <glyph glyph-name="question" unicode="?" horiz-adv-x="448" 
d="M163.5 14.5q-24.5 24.5 -24.5 60.5t24.5 60t60.5 24t61 -24.5t25 -59.5t-25 -60t-61 -25t-60.5 24.5zM68 665.5q59 57.5 169 57.5q97 0 149 -45.5t52 -117.5q0 -100 -90.5 -159.5t-245.5 -80.5v-22l50 15h221v-64h-298v128q67 4 131.5 22.5t109 57t44.5 97.5
q0 48 -33 76.5t-92 28.5q-72 0 -110 -38.5t-38 -109.5h-78q0 97 59 154.5z" />
    <glyph glyph-name="at" unicode="@" horiz-adv-x="1042" 
d="M280 -104.5q-112 53.5 -171.5 153t-59.5 232.5t58 234.5t164.5 157t247.5 55.5q134 0 235.5 -51t157 -145.5t55.5 -219.5q0 -85 -26 -150t-73 -100.5t-110 -35.5h-29q-25 0 -40.5 14t-14.5 38l17 84h-27q-18 -63 -72.5 -97.5t-127.5 -34.5q-64 0 -113 31t-76.5 87.5
t-27.5 130.5t27.5 130t76.5 87t113 31q74 0 128 -36t72 -98h27l-17 53v71h77v-427h19q37 0 65 27t43.5 76t15.5 111q0 109 -46.5 190t-131.5 124.5t-197 43.5q-119 0 -209 -47.5t-139 -134t-49 -199.5t50.5 -197.5t145.5 -131t227 -46.5h349v-64h-349q-153 0 -265 53.5z
M375.5 148q45.5 -48 124.5 -48t126 48t47 131t-47 130.5t-126 47.5q-80 0 -125 -47.5t-45 -130.5t45.5 -131z" />
    <glyph glyph-name="A" unicode="A" horiz-adv-x="698" 
d="M251 705h195l225 -705h-95l-85 270h-285l-85 -270h-94zM466 348l-105 332h-25l-105 -332h235z" />
    <glyph glyph-name="B" unicode="B" horiz-adv-x="691" 
d="M72 705h238q93 0 152 -15t90 -52.5t31 -104.5q0 -72 -41 -108.5t-102 -41.5v-24q195 -5 195 -171q0 -103 -72 -145.5t-211 -42.5h-280v705zM355 76q65 0 105 9.5t62 37t22 80.5q0 72 -47 100t-142 28h-192v-255h192zM314 403q61 0 99 8.5t59 33t21 72.5q0 51 -20.5 75.5
t-57 31.5t-101.5 7h-151v-228h151z" />
    <glyph glyph-name="C" unicode="C" horiz-adv-x="772" 
d="M213.5 36.5q-75.5 47.5 -115.5 130t-40 186.5t40 186.5t116 129.5t178 47q136 0 221 -75.5t101 -207.5h-91q-12 97 -71.5 150.5t-159.5 53.5q-116 0 -179 -77.5t-63 -206.5q0 -130 63 -207.5t179 -77.5q100 0 159.5 53.5t71.5 151.5h91q-16 -133 -101 -208.5t-221 -75.5
q-103 0 -178.5 47.5z" />
    <glyph glyph-name="D" unicode="D" horiz-adv-x="714" 
d="M72 705h227q101 0 179 -27t128 -105t50 -220q0 -143 -50 -221t-128 -105t-179 -27h-227v705zM299 78q78 0 134 17.5t94 78t38 179.5q0 118 -38 178.5t-94 78t-134 17.5h-136v-549h136z" />
    <glyph glyph-name="E" unicode="E" horiz-adv-x="614" 
d="M72 705h490v-78h-399v-236h349v-76h-349v-237h399v-78h-490v705z" />
    <glyph glyph-name="F" unicode="F" horiz-adv-x="591" 
d="M72 705h468v-78h-377v-253h333v-77h-333v-297h-91v705z" />
    <glyph glyph-name="G" unicode="G" horiz-adv-x="794" 
d="M200 35q-71 46 -106.5 126.5t-35.5 184.5q0 111 40 194.5t115.5 129.5t180.5 46q128 0 210 -70t99 -193h-92q-12 88 -68 136.5t-146 48.5q-118 0 -182.5 -79.5t-64.5 -214.5q0 -124 59 -200.5t184 -76.5q116 0 176 62t56 180h-273v70h303q63 0 63 -59v-320h-91v80l19 95
h-26q-3 -36 -24 -78t-75 -75t-146 -33q-104 0 -175 46z" />
    <glyph glyph-name="H" unicode="H" horiz-adv-x="728" 
d="M163 705v-318h402v318h91v-705h-91v308h-402v-308h-91v705h91z" />
    <glyph glyph-name="I" unicode="I" horiz-adv-x="528" 
d="M467 705v-78h-158v-549h158v-78h-406v78h158v549h-158v78h406z" />
    <glyph glyph-name="J" unicode="J" horiz-adv-x="543" 
d="M33 0v78h228q71 0 101 42.5t30 126.5v380h-258v78h279q38 0 53.5 -14.5t15.5 -50.5v-418q0 -108 -51.5 -165t-148.5 -57h-249z" />
    <glyph glyph-name="K" unicode="K" horiz-adv-x="661" 
d="M72 705h91v-309h50l299 309h114l-331 -346l334 -359h-120l-298 320h-48v-320h-91v705z" />
    <glyph glyph-name="L" unicode="L" horiz-adv-x="547" 
d="M88.5 16q-16.5 16 -16.5 47v642h91v-627h353v-78h-381q-30 0 -46.5 16z" />
    <glyph glyph-name="M" unicode="M" horiz-adv-x="907" 
d="M72 705h182l187 -680h26l187 680h181v-705h-91v593l15 87h-25l-190 -680h-182l-189 680h-26l16 -87v-593h-91v705z" />
    <glyph glyph-name="N" unicode="N" horiz-adv-x="762" 
d="M72 705h182l336 -680h25l-15 63v617h90v-705h-182l-335 680h-26l16 -63v-617h-91v705z" />
    <glyph glyph-name="O" unicode="O" horiz-adv-x="781" 
d="M98 539.5q40 82.5 115.5 129.5t177.5 47t177 -47t115 -129.5t40 -186.5t-40 -186.5t-115 -130t-177 -47.5t-177.5 47.5t-115.5 130t-40 186.5t40 186.5zM211.5 146q61.5 -78 179.5 -78t179.5 78t61.5 207t-61.5 206.5t-179.5 77.5t-179.5 -77.5t-61.5 -206.5t61.5 -207z
" />
    <glyph glyph-name="P" unicode="P" horiz-adv-x="620" 
d="M72 705h205q149 0 221.5 -52t72.5 -181t-72.5 -181.5t-221.5 -52.5h-114v-238h-91v705zM280 316q65 0 108 12.5t68 46.5t25 97t-25 97t-68 46t-108 12h-117v-311h117z" />
    <glyph glyph-name="Q" unicode="Q" horiz-adv-x="774" 
d="M418 -123q-106 0 -231 -18l-8 73q84 9 131 15t103 21.5t104 42.5l-13 24q-21 -14 -58 -25t-81 -11q-89 0 -159 46.5t-109 128t-39 182.5q0 104 40.5 185.5t116.5 128t178 46.5q101 0 176 -47t115.5 -129.5t40.5 -187.5q0 -155 -73.5 -254t-187.5 -147q60 1 128 -7.5
t159 -26.5v-77q-180 37 -333 37zM179 210.5q29 -63.5 84 -99t129 -35.5q114 0 177.5 73t63.5 204q0 84 -28.5 148.5t-83 100t-129.5 35.5t-130 -35t-83.5 -98.5t-28.5 -147.5q0 -82 29 -145.5z" />
    <glyph glyph-name="R" unicode="R" horiz-adv-x="676" 
d="M72 705h261q135 0 205 -41t70 -148q0 -78 -36.5 -116t-104.5 -50v-25h77q65 0 65 -69v-256h-90v279h-356v-279h-91v705zM333 357q63 0 102.5 10.5t61 41t21.5 87.5q0 58 -21.5 86t-59.5 36.5t-104 8.5h-170v-270h170z" />
    <glyph glyph-name="S" unicode="S" horiz-adv-x="682" 
d="M572.5 40q-67.5 -51 -205.5 -51q-159 0 -241.5 71t-82.5 205h92q0 -101 58.5 -150t175.5 -49q91 0 135 29t44 88q0 88 -118 118l-197 51q-157 41 -157 177q0 91 64 139t186 48q142 0 217.5 -64.5t75.5 -179.5h-93q0 168 -200 168q-158 0 -158 -107q0 -80 107 -108
l195 -49q85 -22 127.5 -69.5t42.5 -118.5q0 -97 -67.5 -148z" />
    <glyph glyph-name="T" unicode="T" horiz-adv-x="660" 
d="M618 705v-78h-242v-627h-91v627h-243v78h576z" />
    <glyph glyph-name="U" unicode="U" horiz-adv-x="674" 
d="M53 705h91v-424q0 -110 42.5 -161.5t149.5 -51.5t150.5 51.5t43.5 161.5v424h91v-443q0 -134 -70.5 -203.5t-214.5 -69.5q-283 0 -283 273v443z" />
    <glyph glyph-name="V" unicode="V" horiz-adv-x="698" 
d="M27 705h94l215 -680h26l215 680h94l-225 -705h-195z" />
    <glyph glyph-name="W" unicode="W" horiz-adv-x="920" 
d="M770 0h-176l-121 680h-25l-118 -680h-178l-130 705h90l116 -605l-6 -75h26l120 680h186l119 -680h26l-4 75l113 605h90z" />
    <glyph glyph-name="X" unicode="X" horiz-adv-x="683" 
d="M556 0l-202 315h-25l-202 -315h-103l229 353l-229 352h103l201 -312h27l201 312h103l-230 -352l230 -353h-103z" />
    <glyph glyph-name="Y" unicode="Y" horiz-adv-x="665" 
d="M634 705l-210 -408h-47v-297h-90v297h-47l-209 408h96l192 -384h26l192 384h97z" />
    <glyph glyph-name="Z" unicode="Z" horiz-adv-x="655" 
d="M53 174l524 443v25l-60 -15h-464v78h550v-174l-525 -443v-25l60 15h465v-78h-550v174z" />
    <glyph glyph-name="bracketleft" unicode="[" horiz-adv-x="434" 
d="M351 735v-67h-190v-721h190v-67h-269v855h269z" />
    <glyph glyph-name="backslash" unicode="\" horiz-adv-x="499" 
d="M488 -82l-68 -31l-409 892l68 30z" />
    <glyph glyph-name="bracketright" unicode="]" horiz-adv-x="434" 
d="M83 -120v67h190v721h-190v67h269v-855h-269z" />
    <glyph glyph-name="asciicircum" unicode="^" horiz-adv-x="547" 
d="M286 680h-25l-98 -299h-81l112 324h160l111 -324h-82z" />
    <glyph glyph-name="underscore" unicode="_" horiz-adv-x="607" 
d="M544 -43v-72h-482v72h482z" />
    <glyph glyph-name="grave" unicode="`" horiz-adv-x="495" 
d="M396 576l-314 80l17 68l314 -80z" />
    <glyph glyph-name="a" unicode="a" horiz-adv-x="596" 
d="M90.5 237.5q40.5 37.5 125.5 45.5l195 19q-3 68 -35 100.5t-98 32.5q-55 0 -89 -28t-40 -87h-88q8 86 64.5 136.5t151.5 50.5q107 0 165 -60t58 -160v-211h73v-76h-91q-28 0 -44 16t-16 44v24l14 53h-25q-16 -65 -62.5 -106t-130.5 -41q-96 0 -132 46t-36 102
q0 62 40.5 99.5zM163 85q25 -22 69 -22q53 0 93.5 23t63 63t22.5 90l-180 -19q-48 -5 -70.5 -20.5t-22.5 -50.5q0 -42 25 -64z" />
    <glyph glyph-name="b" unicode="b" horiz-adv-x="656" 
d="M70 735h89v-307l-15 -59h25q17 61 68 99.5t133 38.5q71 0 124.5 -33.5t82 -92t28.5 -132.5t-28.5 -133t-82 -92.5t-124.5 -33.5q-81 0 -132.5 38.5t-68.5 100.5h-25l15 -60v-69h-89v735zM209.5 112q50.5 -46 131.5 -46t128.5 45.5t47.5 137.5t-47.5 137t-128.5 45
t-131.5 -45.5t-50.5 -136.5t50.5 -137z" />
    <glyph glyph-name="c" unicode="c" horiz-adv-x="590" 
d="M80.5 380.5q30.5 58.5 88.5 92.5t136 34q54 0 105.5 -21t87.5 -66t42 -113h-89q-10 65 -49 94.5t-97 29.5q-81 0 -124 -51.5t-43 -130.5q0 -80 43 -131.5t124 -51.5q58 0 97 29.5t49 94.5h89q-6 -68 -42 -113t-87.5 -66t-105.5 -21q-78 0 -136 34t-88.5 92.5t-30.5 132.5
q0 73 30.5 131.5z" />
    <glyph glyph-name="d" unicode="d" horiz-adv-x="656" 
d="M161.5 24q-53.5 34 -82.5 92.5t-29 132.5q0 73 29 132t82.5 92.5t124.5 33.5q81 0 132 -38t69 -100h25l-15 59v307h88v-735h-88v69l15 60h-25q-18 -62 -69 -100.5t-132 -38.5q-71 0 -124.5 34zM186.5 111.5q47.5 -45.5 127.5 -45.5q81 0 132 46t51 137t-51 136.5
t-132 45.5q-80 0 -127.5 -45t-47.5 -137t47.5 -137.5z" />
    <glyph glyph-name="e" unicode="e" horiz-adv-x="582" 
d="M115 440.5q65 66.5 173 66.5q112 0 177.5 -64.5t65.5 -178.5v-32h-395q2 -76 42.5 -123.5t114.5 -47.5q62 0 100.5 30t51.5 83h88q-17 -79 -75 -131.5t-164 -52.5q-78 0 -133 35t-83 95t-28 135q0 119 65 185.5zM444 295q-4 67 -46.5 104.5t-109.5 37.5q-63 0 -104.5 -38
t-46.5 -104h307z" />
    <glyph glyph-name="f" unicode="f" horiz-adv-x="434" 
d="M42 497h108v72q0 79 43 122.5t132 43.5h86v-76h-90q-46 0 -64 -21.5t-18 -70.5v-70h144v-76h-144v-345h144v-76h-341v76h108v345h-108v76z" />
    <glyph glyph-name="g" unicode="g" horiz-adv-x="656" 
d="M161.5 24q-53.5 34 -82.5 92.5t-29 132.5q0 73 29 132t82.5 92.5t124.5 33.5q81 0 132 -38t69 -100h25l-15 59v69h88v-630q0 -61 -69 -61h-380v76h360v118h1v69l15 60h-25q-18 -62 -69 -100.5t-132 -38.5q-71 0 -124.5 34zM186.5 111.5q47.5 -45.5 127.5 -45.5
q81 0 132 46t51 137t-51 136.5t-132 45.5q-80 0 -127.5 -45t-47.5 -137t47.5 -137.5z" />
    <glyph glyph-name="h" unicode="h" horiz-adv-x="607" 
d="M70 735h89v-321l-16 -60h26q17 70 67.5 111.5t128.5 41.5q85 0 133 -54t48 -154v-299h-88v289q0 76 -29.5 109t-94.5 33q-81 0 -128 -59.5t-47 -160.5v-211h-89v735z" />
    <glyph glyph-name="i" unicode="i" horiz-adv-x="443" 
d="M52 76h138v345h-103v76h129q56 0 56 -58v-363h139v-76h-359v76zM170 601q-20 19 -20 48t20 48t50 19t51 -19t21 -48t-21 -48t-51 -19t-50 19z" />
    <glyph glyph-name="j" unicode="j" horiz-adv-x="302" 
d="M138.5 8.5q3.5 16.5 3.5 42.5v370h-105v76h130q31 0 47 -13.5t16 -43.5v-405q0 -25 -4 -41t-15 -38l-76 -146h-96l84 161q12 21 15.5 37.5zM125 601q-20 19 -20 48t20 48t50 19t51 -19t21 -48t-21 -48t-51 -19t-50 19z" />
    <glyph glyph-name="k" unicode="k" horiz-adv-x="545" 
d="M70 735h89v-442h54l190 204h111l-227 -241l225 -256h-111l-192 221h-50v-221h-89v735z" />
    <glyph glyph-name="l" unicode="l" horiz-adv-x="441" 
d="M42 76h139v583h-104v76h141q25 0 38.5 -12.5t13.5 -37.5v-609h139v-76h-367v76z" />
    <glyph glyph-name="m" unicode="m" horiz-adv-x="903" 
d="M70 497h89v-81l-15 -60h25q34 151 177 151q66 0 103 -40.5t46 -110.5h16q34 151 177 151q76 0 115.5 -54.5t39.5 -143.5v-309h-89v290q0 75 -21.5 108t-78.5 33q-72 0 -112.5 -58.5t-40.5 -157.5v-215h-89v290q0 75 -21.5 108t-78.5 33q-72 0 -112.5 -58.5t-40.5 -157.5
v-215h-89v497z" />
    <glyph glyph-name="n" unicode="n" horiz-adv-x="607" 
d="M70 497h89v-83l-15 -60h25q16 70 64.5 111.5t126.5 41.5q87 0 137 -52t50 -154v-301h-88v289q0 76 -30 109t-94 33q-79 0 -127.5 -57t-48.5 -156v-218h-89v497z" />
    <glyph glyph-name="o" unicode="o" horiz-adv-x="627" 
d="M83 381q33 59 93 92.5t138 33.5q77 0 137 -33.5t93 -92.5t33 -132q0 -74 -33 -133t-92.5 -92.5t-137.5 -33.5t-138 33.5t-93 92.5t-33 133q0 73 33 132zM184.5 118q46.5 -52 129.5 -52q82 0 128.5 52t46.5 131q0 51 -20.5 92.5t-60 65.5t-94.5 24t-95 -24t-60.5 -65.5
t-20.5 -92.5q0 -79 46.5 -131z" />
    <glyph glyph-name="p" unicode="p" horiz-adv-x="655" 
d="M70 497h89v-69l-15 -59h25q17 62 68 100t132 38q71 0 124.5 -33.5t82.5 -92.5t29 -133q0 -73 -29 -132t-82.5 -92.5t-124.5 -33.5q-81 0 -132 38.5t-68 100.5h-25l15 -60v-263h-89v691zM209.5 111.5q50.5 -45.5 131.5 -45.5q80 0 128 45.5t48 136.5q0 92 -48 137.5
t-128 45.5q-81 0 -131.5 -45.5t-50.5 -137.5q0 -91 50.5 -136.5z" />
    <glyph glyph-name="q" unicode="q" horiz-adv-x="655" 
d="M584 -194h-88v263l15 60h-25q-17 -62 -68 -100.5t-132 -38.5q-71 0 -124.5 33.5t-82.5 92.5t-29 132q0 74 29 133t82.5 92.5t124.5 33.5q81 0 132 -38t68 -100h25l-15 59v69h88v-691zM185.5 111.5q47.5 -45.5 127.5 -45.5q82 0 132.5 45.5t50.5 136.5q0 92 -50.5 137.5
t-132.5 45.5q-80 0 -127.5 -46t-47.5 -137t47.5 -136.5z" />
    <glyph glyph-name="r" unicode="r" horiz-adv-x="444" 
d="M141 497h281v-76h-262v-421h-89v428q0 69 70 69z" />
    <glyph glyph-name="s" unicode="s" horiz-adv-x="506" 
d="M103.5 40.5q-61.5 50.5 -61.5 142.5h89q0 -61 38 -92t108 -31q53 0 79.5 17.5t26.5 55.5q0 26 -17 42t-56 26l-133 39q-50 14 -82.5 45.5t-32.5 85.5q0 65 50.5 100.5t139.5 35.5q97 0 152.5 -43.5t55.5 -123.5h-89q0 49 -30 73.5t-88 24.5q-49 0 -76 -17t-27 -49
q0 -24 17 -39.5t54 -26.5l116 -33q66 -19 100.5 -53t34.5 -89q0 -68 -50.5 -104.5t-145.5 -36.5q-111 0 -172.5 50.5z" />
    <glyph glyph-name="t" unicode="t" horiz-adv-x="439" 
d="M397 0h-195q-35 0 -52.5 17t-17.5 53v351h-110v76h110v126l89 27v-153h156v-76h-156v-346l176 1v-76z" />
    <glyph glyph-name="u" unicode="u" horiz-adv-x="607" 
d="M110 42q-50 52 -50 154v301h89v-289q0 -76 29.5 -109t94.5 -33q79 0 127.5 57t48.5 157v217h88v-497h-88v84l14 59h-24q-16 -70 -64.5 -111.5t-126.5 -41.5q-88 0 -138 52z" />
    <glyph glyph-name="v" unicode="v" horiz-adv-x="544" 
d="M524 497l-158 -497h-185l-161 497h89l152 -472h25l150 472h88z" />
    <glyph glyph-name="w" unicode="w" horiz-adv-x="878" 
d="M119 497l109 -403l-1 -69h23l98 472h182l97 -472h24l-2 69l108 403h85l-132 -497h-163l-96 473h-25l-96 -473h-166l-129 497h84z" />
    <glyph glyph-name="x" unicode="x" horiz-adv-x="569" 
d="M200 250l-168 247h101l142 -213h18l142 213h101l-167 -247l167 -250h-101l-142 213h-18l-142 -213h-101z" />
    <glyph glyph-name="y" unicode="y" horiz-adv-x="601" 
d="M541 -133q0 -61 -69 -61h-380v76h360v201l15 60h-25q-16 -70 -64.5 -111.5t-126.5 -41.5q-87 0 -137 52t-50 154v301h88v-289q0 -76 30 -109t94 -33q79 0 127.5 57t48.5 156v218h89v-630z" />
    <glyph glyph-name="z" unicode="z" horiz-adv-x="535" 
d="M51 155l408 266v24l-88 -21h-320v73h433v-153l-408 -267v-25l88 22h320v-74h-433v155z" />
    <glyph glyph-name="braceleft" unicode="{" horiz-adv-x="474" 
d="M241 459q0 60 -32 97.5t-83 44.5v109h266v-58h-188l-54 15v-25q162 -46 162 -184q0 -68 -39 -110t-112 -53v-25q73 -11 112 -53.5t39 -109.5q0 -137 -162 -183v-26l54 16h188v-59h-266v110q52 8 83.5 44.5t31.5 95.5q0 126 -159 143v69q159 16 159 142z" />
    <glyph glyph-name="bar" unicode="|" horiz-adv-x="236" 
d="M154 853v-1001h-72v1001h72z" />
    <glyph glyph-name="braceright" unicode="}" horiz-adv-x="474" 
d="M233 107q0 -60 32 -97.5t83 -44.5v-109h-266v58h188l54 -15v25q-162 46 -162 184q0 68 39 110t112 53v25q-73 11 -112 53.5t-39 109.5q0 137 162 183v26l-54 -16h-188v59h266v-110q-52 -8 -83.5 -44.5t-31.5 -95.5q0 -126 159 -143v-69q-159 -16 -159 -142z" />
    <glyph glyph-name="asciitilde" unicode="~" horiz-adv-x="644" 
d="M117.5 293q35.5 36 84.5 36q35 0 65 -11.5t70 -33.5q34 -18 55.5 -26.5t43.5 -8.5q54 0 54 72h72q0 -72 -35.5 -107.5t-85.5 -35.5q-35 0 -64.5 11.5t-69.5 32.5q-34 18 -55.5 26.5t-43.5 8.5q-54 0 -54 -72h-72q0 72 35.5 108z" />
    <glyph glyph-name="exclamdown" unicode="&#xa1;" horiz-adv-x="335" 
d="M228.5 482.5q24.5 -24.5 24.5 -60.5q0 -35 -24 -59.5t-61 -24.5q-36 0 -61 24.5t-25 59.5t25 60t61 25t60.5 -24.5zM134 251h66l11 -459h-88z" />
    <glyph glyph-name="cent" unicode="&#xa2;" horiz-adv-x="590" 
d="M75.5 475q25.5 55 73.5 90.5t114 43.5v244l62 -1v-241q52 -4 99 -26.5t79 -66t37 -106.5h-87q-9 59 -43 89.5t-85 35.5l1 -367q50 5 84 35.5t43 89.5h87q-5 -63 -37 -106.5t-79 -66t-98 -26.5v-244l-61 1v245q-101 12 -158 83t-57 173q0 66 25.5 121zM169 235.5
q33 -49.5 95 -62.5v361q-62 -13 -95 -62t-33 -118t33 -118.5z" />
    <glyph glyph-name="sterling" unicode="&#xa3;" horiz-adv-x="626" 
d="M188 185q37 38 37 91q0 20 -5 43h-138v63h117q-8 20 -13 29q-21 48 -31.5 80.5t-10.5 67.5q0 63 31.5 95t79.5 41.5t118 9.5h211v-76h-196q-60 0 -92.5 -6t-48 -25t-15.5 -56q0 -27 10 -55.5t29 -70.5l15 -34h218v-63h-196q7 -24 7 -51q0 -77 -56.5 -117.5t-151.5 -64.5
v-25l60 15h417v-76h-502v126q69 21 106 59z" />
    <glyph glyph-name="currency" unicode="&#xa4;" horiz-adv-x="673" 
d="M214 182l-137 -137l-47 48l137 137q-37 52 -37 122t37 122l-137 137l47 48l137 -137q54 38 125 38q70 0 122 -36l135 135l47 -48l-134 -134q39 -55 39 -125t-39 -125l134 -134l-47 -48l-135 135q-52 -36 -122 -36q-71 0 -125 38zM218.5 283.5q17.5 -31.5 49.5 -50
t71 -18.5t71 18.5t49.5 50t17.5 68.5t-17.5 68.5t-49.5 50t-71 18.5t-71 -18.5t-49.5 -50t-17.5 -68.5t17.5 -68.5z" />
    <glyph glyph-name="yen" unicode="&#xa5;" horiz-adv-x="682" 
d="M643 705l-198 -384h112v-62h-171v-50h171v-62h-171v-147h-90v147h-171v62h171v50h-171v62h112l-197 384h96l192 -384h26l192 384h97z" />
    <glyph glyph-name="brokenbar" unicode="&#xa6;" horiz-adv-x="236" 
d="M82 853h72v-370h-72v370zM82 222h72v-370h-72v370z" />
    <glyph glyph-name="section" unicode="&#xa7;" horiz-adv-x="649" 
d="M146 -127q-57 57 -57 145h91q0 -67 38.5 -101.5t111.5 -34.5q58 0 93 22.5t35 72.5q0 37 -23 56.5t-80 37.5l-143 46q-140 45 -140 156q0 107 123 124v21q-85 45 -85 133q0 74 57 117.5t161 43.5q121 0 177.5 -56.5t56.5 -143.5h-89q0 66 -38 100t-110 34
q-57 0 -91 -22.5t-34 -71.5q0 -35 22.5 -55t82.5 -40l135 -43q66 -22 106 -58.5t40 -97.5q0 -49 -29.5 -82.5t-92.5 -43.5v-23q84 -41 84 -130q0 -75 -56.5 -119t-164.5 -44q-124 0 -181 57zM251 181l88 -28q30 -10 57 -10q48 0 74.5 29.5t26.5 73.5q0 75 -85 102l-92 29
q-30 9 -56 9q-47 0 -74.5 -28.5t-27.5 -72.5q0 -75 89 -104z" />
    <glyph glyph-name="dieresis" unicode="&#xa8;" horiz-adv-x="517" 
d="M102.5 595q-20.5 20 -20.5 50t20.5 50t51.5 20q32 0 53 -20t21 -50t-21 -50t-53 -20q-31 0 -51.5 20zM309 695q21 20 52 20t52.5 -20t21.5 -50t-21.5 -50t-52.5 -20t-52 20t-21 50t21 50z" />
    <glyph glyph-name="copyright" unicode="&#xa9;" horiz-adv-x="1108" 
d="M305.5 -172q-111.5 64 -175.5 176t-64 249t64 248.5t175.5 175.5t248.5 64t248.5 -64t175.5 -175.5t64 -248.5t-64 -249t-175.5 -176t-248.5 -64t-248.5 64zM183.5 32q55.5 -99 153 -155.5t217.5 -56.5t217.5 56.5t153 155.5t55.5 221t-55.5 221t-153 155.5t-217.5 56.5
t-217.5 -56.5t-153 -155.5t-55.5 -221t55.5 -221zM334.5 380.5q30.5 58.5 88.5 92.5t136 34q54 0 105.5 -21t87.5 -66t42 -113h-89q-10 65 -49 94.5t-97 29.5q-81 0 -124 -51.5t-43 -130.5q0 -80 43 -131.5t124 -51.5q58 0 97 29.5t49 94.5h89q-6 -68 -42 -113t-87.5 -66
t-105.5 -21q-78 0 -136 34t-88.5 92.5t-30.5 132.5q0 73 30.5 131.5z" />
    <glyph glyph-name="guillemotleft" unicode="&#xab;" horiz-adv-x="715" 
d="M363 -32l-281 280l281 279l58 -51l-229 -228l229 -229zM576 -32l-281 280l281 279l58 -51l-229 -228l229 -229z" />
    <glyph glyph-name="logicalnot" unicode="&#xac;" horiz-adv-x="594" 
d="M564 366v-240h-71v169h-411v71h482z" />
    <glyph glyph-name="registered" unicode="&#xae;" horiz-adv-x="659" 
d="M197.5 299.5q-56.5 32.5 -86 88.5t-29.5 125t29.5 125t86 88.5t132.5 32.5t132 -32.5t85.5 -88.5t29.5 -125t-29.5 -125t-85.5 -88.5t-132 -32.5t-132.5 32.5zM157 412.5q23 -45.5 67.5 -72.5t105.5 -27t105 27t67 72.5t23 100.5t-23 100.5t-67 72.5t-105 27t-105.5 -27
t-67.5 -72.5t-23 -100.5t23 -100.5zM223 636h102q121 0 121 -69q0 -49 -56 -57v-13l31 -1q12 -1 18.5 -8.5t6.5 -19.5v-75h-53v78h-117v-78h-53v243zM334 520q32 0 45.5 6.5t13.5 27.5q0 20 -13.5 27t-45.5 7h-58v-68h58z" />
    <glyph glyph-name="macron" unicode="&#xaf;" horiz-adv-x="496" 
d="M414 687v-71l-332 -1v72h332z" />
    <glyph glyph-name="degree" unicode="&#xb0;" horiz-adv-x="478" 
d="M130.5 317q-47.5 28 -74 75.5t-26.5 104.5t26.5 104.5t74 75.5t108.5 28t109 -28t74 -75.5t26 -104.5t-26 -104.5t-74 -75.5t-109 -28t-108.5 28zM118.5 428.5q17.5 -31.5 49.5 -50t71 -18.5t71 18.5t49.5 50t17.5 68.5t-17.5 68.5t-49.5 50t-71 18.5t-71 -18.5
t-49.5 -50t-17.5 -68.5t17.5 -68.5z" />
    <glyph glyph-name="plusminus" unicode="&#xb1;" horiz-adv-x="647" 
d="M287 372v143h72v-143h205v-71h-205v-142h-72v142h-205v71h205zM82 94h482v-71h-482v71z" />
    <glyph glyph-name="uni00B2" unicode="&#xb2;" horiz-adv-x="468" 
d="M93 901q59 59 156 59q82 0 131.5 -43.5t49.5 -123.5q0 -111 -98 -172.5t-271 -90.5v-20l49 13h320v-64h-389v129q104 15 210 59.5t106 146.5q0 49 -27 75.5t-81 26.5q-68 0 -105 -41.5t-37 -135.5h-73q0 123 59 182z" />
    <glyph glyph-name="uni00B3" unicode="&#xb3;" horiz-adv-x="476" 
d="M140 545.5q32 -29.5 102 -29.5q119 0 119 90q0 81 -86 81h-67v60h67q79 0 79 68q0 81 -112 81q-66 0 -96.5 -25.5t-30.5 -80.5h-73q0 84 53 127t149 43q86 0 134.5 -35.5t48.5 -94.5q0 -46 -25.5 -70.5t-74.5 -32.5v-20q53 -9 80 -33.5t27 -79.5q0 -67 -51 -104.5
t-139 -37.5q-99 0 -154 47t-55 148h73q0 -72 32 -101.5z" />
    <glyph glyph-name="acute" unicode="&#xb4;" horiz-adv-x="495" 
d="M82 644l314 80l17 -68l-314 -80z" />
    <glyph glyph-name="paragraph" unicode="&#xb6;" horiz-adv-x="667" 
d="M153 296.5q-71 59.5 -71 174.5q0 114 71 174t225 60h72v-868h-72v400q-154 0 -225 59.5zM523 705h72v-868h-72v868z" />
    <glyph glyph-name="periodcentered" unicode="&#xb7;" horiz-adv-x="335" 
d="M106.5 187.5q-24.5 24.5 -24.5 60.5t24.5 60t60.5 24t61 -24.5t25 -59.5t-25 -60t-61 -25t-60.5 24.5z" />
    <glyph glyph-name="cedilla" unicode="&#xb8;" horiz-adv-x="379" 
d="M167.5 -121.5q26.5 1.5 42.5 8t16 21.5q0 10 -6 15t-17 5q-15 0 -30 -5t-40 -21l-37 45l42 53h79l-56 -57q36 15 69 15q28 0 47.5 -13.5t19.5 -42.5q0 -38 -26 -57.5t-71 -25.5t-118 -6v64q59 0 85.5 1.5z" />
    <glyph glyph-name="uni00B9" unicode="&#xb9;" horiz-adv-x="354" 
d="M229 886l12 46h-19q-6 -99 -41.5 -163.5t-124.5 -92.5l-25 64q67 27 95.5 80.5t29.5 132.5h147v-494h-74v427z" />
    <glyph glyph-name="guillemotright" unicode="&#xbb;" horiz-adv-x="715" 
d="M352 527l281 -280l-281 -279l-58 51l229 228l-229 229zM309 247l-229 229l58 51l281 -280l-281 -279l-58 51z" />
    <glyph glyph-name="onequarter" unicode="&#xbc;" horiz-adv-x="1024" 
d="M229 638l12 46h-19q-6 -99 -41.5 -163.5t-124.5 -92.5l-25 64q67 27 95.5 80.5t29.5 132.5h147v-494h-74v427zM705 680l-357 -692l-63 30l356 692zM743.5 331.5q56.5 67.5 65.5 162.5h73q-10 -111 -75 -193.5t-188 -128.5v-19l49 12h188v158h74v-158h60v-64h-60v-101h-74
v101h-257v133q88 30 144.5 97.5z" />
    <glyph glyph-name="onehalf" unicode="&#xbd;" horiz-adv-x="1111" 
d="M229 638l12 46h-19q-6 -99 -41.5 -163.5t-124.5 -92.5l-25 64q67 27 95.5 80.5t29.5 132.5h147v-494h-74v427zM705 680l-357 -692l-63 30l356 692zM735 442q59 59 156 59q82 0 131.5 -43.5t49.5 -123.5q0 -111 -98 -172.5t-271 -90.5v-20l49 13h320v-64h-389v129
q104 15 210 59.5t106 146.5q0 49 -27 75.5t-81 26.5q-68 0 -105 -41.5t-37 -135.5h-73q0 123 59 182z" />
    <glyph glyph-name="threequarters" unicode="&#xbe;" horiz-adv-x="1131" 
d="M140 297.5q32 -29.5 102 -29.5q119 0 119 90q0 81 -86 81h-67v60h67q79 0 79 68q0 81 -112 81q-66 0 -96.5 -25.5t-30.5 -80.5h-73q0 84 53 127t149 43q86 0 134.5 -35.5t48.5 -94.5q0 -46 -25.5 -70.5t-74.5 -32.5v-20q53 -9 80 -33.5t27 -79.5q0 -67 -51 -104.5
t-139 -37.5q-99 0 -154 47t-55 148h73q0 -72 32 -101.5zM812 680l-357 -692l-63 30l356 692zM850.5 331.5q56.5 67.5 65.5 162.5h73q-10 -111 -75 -193.5t-188 -128.5v-19l49 12h188v158h74v-158h60v-64h-60v-101h-74v101h-257v133q88 30 144.5 97.5z" />
    <glyph glyph-name="questiondown" unicode="&#xbf;" horiz-adv-x="448" 
d="M284.5 482.5q24.5 -24.5 24.5 -60.5q0 -35 -24 -59.5t-61 -24.5q-36 0 -61 24.5t-25 59.5t25 60t61 25t60.5 -24.5zM100.5 96.5q90.5 59.5 245.5 80.5v22l-50 -15h-221v64h298v-128q-67 -4 -131.5 -22.5t-109 -57t-44.5 -97.5q0 -48 33 -76.5t92 -28.5q72 0 110 38.5
t38 109.5h78q0 -97 -59 -154.5t-169 -57.5q-97 0 -149 45.5t-52 117.5q0 100 90.5 159.5z" />
    <glyph glyph-name="Agrave" unicode="&#xc0;" horiz-adv-x="698" 
d="M251 705h195l225 -705h-95l-85 270h-285l-85 -270h-94zM466 348l-105 332h-25l-105 -332h235zM499 784l-314 80l17 68l314 -80z" />
    <glyph glyph-name="Aacute" unicode="&#xc1;" horiz-adv-x="698" 
d="M251 705h195l225 -705h-95l-85 270h-285l-85 -270h-94zM466 348l-105 332h-25l-105 -332h235zM181 852l314 80l17 -68l-314 -80z" />
    <glyph glyph-name="Acircumflex" unicode="&#xc2;" horiz-adv-x="698" 
d="M251 705h195l225 -705h-95l-85 270h-285l-85 -270h-94zM466 348l-105 332h-25l-105 -332h235zM464 767l-115 94l-116 -94l-51 50l167 133l166 -133z" />
    <glyph glyph-name="Atilde" unicode="&#xc3;" horiz-adv-x="698" 
d="M251 705h195l225 -705h-95l-85 270h-285l-85 -270h-94zM466 348l-105 332h-25l-105 -332h235zM191.5 904.5q28.5 34.5 77.5 34.5q33 0 55 -13t47 -37q18 -16 28.5 -23t22.5 -7q19 0 30 14.5t11 55.5h71q0 -72 -28.5 -106.5t-77.5 -34.5q-33 0 -55 13t-47 37
q-16 15 -27.5 22.5t-23.5 7.5q-19 0 -29.5 -14.5t-10.5 -55.5h-72q0 72 28.5 106.5z" />
    <glyph glyph-name="Adieresis" unicode="&#xc4;" horiz-adv-x="698" 
d="M251 705h195l225 -705h-95l-85 270h-285l-85 -270h-94zM466 348l-105 332h-25l-105 -332h235zM192.5 803q-20.5 20 -20.5 50t20.5 50t51.5 20q32 0 53 -20t21 -50t-21 -50t-53 -20q-31 0 -51.5 20zM399 903q21 20 52 20t52.5 -20t21.5 -50t-21.5 -50t-52.5 -20t-52 20
t-21 50t21 50z" />
    <glyph glyph-name="Aring" unicode="&#xc5;" horiz-adv-x="698" 
d="M251 705h195l225 -705h-95l-85 270h-285l-85 -270h-94zM466 348l-105 332h-25l-105 -332h235zM258.5 798.5q-32.5 31.5 -32.5 78.5q0 46 32.5 77.5t88.5 31.5q57 0 90 -31.5t33 -77.5t-33.5 -78t-89.5 -32t-88.5 31.5zM308.5 842.5q13.5 -12.5 38.5 -12.5q26 0 40 12.5
t14 34.5q0 21 -14.5 33t-39.5 12t-38.5 -12t-13.5 -33q0 -22 13.5 -34.5z" />
    <glyph glyph-name="AE" unicode="&#xc6;" horiz-adv-x="1043" 
d="M391 705h600v-78h-399v-236h349v-76h-349v-237h399v-78h-490v273h-249l-150 -273h-100zM501 350v330h-25l-181 -330h206z" />
    <glyph glyph-name="Ccedilla" unicode="&#xc7;" horiz-adv-x="772" 
d="M375.5 -121.5q26.5 1.5 42.5 8t16 21.5q0 10 -6 15t-17 5q-15 0 -30 -5t-40 -21l-37 45l36 45q-87 12 -151 61.5t-97.5 127t-33.5 172.5q0 104 40 186.5t116 129.5t178 47q136 0 221 -75.5t101 -207.5h-91q-12 97 -71.5 150.5t-159.5 53.5q-116 0 -179 -77.5t-63 -206.5
q0 -130 63 -207.5t179 -77.5q100 0 159.5 53.5t71.5 151.5h91q-15 -127 -94 -202t-205 -81l-46 -47q36 15 69 15q28 0 47.5 -13.5t19.5 -42.5q0 -38 -26 -57.5t-71 -25.5t-118 -6v64q59 0 85.5 1.5z" />
    <glyph glyph-name="Egrave" unicode="&#xc8;" horiz-adv-x="614" 
d="M72 705h490v-78h-399v-236h349v-76h-349v-237h399v-78h-490v705zM445 784l-314 80l17 68l314 -80z" />
    <glyph glyph-name="Eacute" unicode="&#xc9;" horiz-adv-x="614" 
d="M72 705h490v-78h-399v-236h349v-76h-349v-237h399v-78h-490v705zM127 852l314 80l17 -68l-314 -80z" />
    <glyph glyph-name="Ecircumflex" unicode="&#xca;" horiz-adv-x="614" 
d="M72 705h490v-78h-399v-236h349v-76h-349v-237h399v-78h-490v705zM410 767l-115 94l-116 -94l-51 50l167 133l166 -133z" />
    <glyph glyph-name="Edieresis" unicode="&#xcb;" horiz-adv-x="614" 
d="M72 705h490v-78h-399v-236h349v-76h-349v-237h399v-78h-490v705zM139.5 803q-20.5 20 -20.5 50t20.5 50t51.5 20q32 0 53 -20t21 -50t-21 -50t-53 -20q-31 0 -51.5 20zM346 903q21 20 52 20t52.5 -20t21.5 -50t-21.5 -50t-52.5 -20t-52 20t-21 50t21 50z" />
    <glyph glyph-name="Igrave" unicode="&#xcc;" horiz-adv-x="528" 
d="M467 705v-78h-158v-549h158v-78h-406v78h158v549h-158v78h406zM415 784l-314 80l17 68l314 -80z" />
    <glyph glyph-name="Iacute" unicode="&#xcd;" horiz-adv-x="528" 
d="M467 705v-78h-158v-549h158v-78h-406v78h158v549h-158v78h406zM96 852l314 80l17 -68l-314 -80z" />
    <glyph glyph-name="Icircumflex" unicode="&#xce;" horiz-adv-x="528" 
d="M467 705v-78h-158v-549h158v-78h-406v78h158v549h-158v78h406zM379 767l-115 94l-116 -94l-51 50l167 133l166 -133z" />
    <glyph glyph-name="Idieresis" unicode="&#xcf;" horiz-adv-x="528" 
d="M467 705v-78h-158v-549h158v-78h-406v78h158v549h-158v78h406zM108.5 803q-20.5 20 -20.5 50t20.5 50t51.5 20q32 0 53 -20t21 -50t-21 -50t-53 -20q-31 0 -51.5 20zM315 903q21 20 52 20t52.5 -20t21.5 -50t-21.5 -50t-52.5 -20t-52 20t-21 50t21 50z" />
    <glyph glyph-name="Eth" unicode="&#xd0;" horiz-adv-x="732" 
d="M88 316h-88v72h88v317h227q101 0 179 -27t128 -105t50 -220q0 -143 -50 -221t-128 -105t-179 -27h-227v316zM315 78q78 0 134 17.5t94 78t38 179.5q0 118 -38 178.5t-94 78t-134 17.5h-136v-239h174v-72h-174v-238h136z" />
    <glyph glyph-name="Ntilde" unicode="&#xd1;" horiz-adv-x="762" 
d="M72 705h182l336 -680h25l-15 63v617h90v-705h-182l-335 680h-26l16 -63v-617h-91v705zM244.5 904.5q28.5 34.5 77.5 34.5q33 0 55 -13t47 -37q18 -16 28.5 -23t22.5 -7q19 0 30 14.5t11 55.5h71q0 -72 -28.5 -106.5t-77.5 -34.5q-33 0 -55 13t-47 37q-16 15 -27.5 22.5
t-23.5 7.5q-19 0 -29.5 -14.5t-10.5 -55.5h-72q0 72 28.5 106.5z" />
    <glyph glyph-name="Ograve" unicode="&#xd2;" horiz-adv-x="781" 
d="M98 539.5q40 82.5 115.5 129.5t177.5 47t177 -47t115 -129.5t40 -186.5t-40 -186.5t-115 -130t-177 -47.5t-177.5 47.5t-115.5 130t-40 186.5t40 186.5zM211.5 146q61.5 -78 179.5 -78t179.5 78t61.5 207t-61.5 206.5t-179.5 77.5t-179.5 -77.5t-61.5 -206.5t61.5 -207z
M542 784l-314 80l17 68l314 -80z" />
    <glyph glyph-name="Oacute" unicode="&#xd3;" horiz-adv-x="781" 
d="M98 539.5q40 82.5 115.5 129.5t177.5 47t177 -47t115 -129.5t40 -186.5t-40 -186.5t-115 -130t-177 -47.5t-177.5 47.5t-115.5 130t-40 186.5t40 186.5zM211.5 146q61.5 -78 179.5 -78t179.5 78t61.5 207t-61.5 206.5t-179.5 77.5t-179.5 -77.5t-61.5 -206.5t61.5 -207z
M223 852l314 80l17 -68l-314 -80z" />
    <glyph glyph-name="Ocircumflex" unicode="&#xd4;" horiz-adv-x="781" 
d="M98 539.5q40 82.5 115.5 129.5t177.5 47t177 -47t115 -129.5t40 -186.5t-40 -186.5t-115 -130t-177 -47.5t-177.5 47.5t-115.5 130t-40 186.5t40 186.5zM211.5 146q61.5 -78 179.5 -78t179.5 78t61.5 207t-61.5 206.5t-179.5 77.5t-179.5 -77.5t-61.5 -206.5t61.5 -207z
M506 767l-115 94l-116 -94l-51 50l167 133l166 -133z" />
    <glyph glyph-name="Otilde" unicode="&#xd5;" horiz-adv-x="781" 
d="M98 539.5q40 82.5 115.5 129.5t177.5 47t177 -47t115 -129.5t40 -186.5t-40 -186.5t-115 -130t-177 -47.5t-177.5 47.5t-115.5 130t-40 186.5t40 186.5zM211.5 146q61.5 -78 179.5 -78t179.5 78t61.5 207t-61.5 206.5t-179.5 77.5t-179.5 -77.5t-61.5 -206.5t61.5 -207z
M234.5 904.5q28.5 34.5 77.5 34.5q33 0 55 -13t47 -37q18 -16 28.5 -23t22.5 -7q19 0 30 14.5t11 55.5h71q0 -72 -28.5 -106.5t-77.5 -34.5q-33 0 -55 13t-47 37q-16 15 -27.5 22.5t-23.5 7.5q-19 0 -29.5 -14.5t-10.5 -55.5h-72q0 72 28.5 106.5z" />
    <glyph glyph-name="Odieresis" unicode="&#xd6;" horiz-adv-x="781" 
d="M98 539.5q40 82.5 115.5 129.5t177.5 47t177 -47t115 -129.5t40 -186.5t-40 -186.5t-115 -130t-177 -47.5t-177.5 47.5t-115.5 130t-40 186.5t40 186.5zM211.5 146q61.5 -78 179.5 -78t179.5 78t61.5 207t-61.5 206.5t-179.5 77.5t-179.5 -77.5t-61.5 -206.5t61.5 -207z
M235.5 803q-20.5 20 -20.5 50t20.5 50t51.5 20q32 0 53 -20t21 -50t-21 -50t-53 -20q-31 0 -51.5 20zM442 903q21 20 52 20t52.5 -20t21.5 -50t-21.5 -50t-52.5 -20t-52 20t-21 50t21 50z" />
    <glyph glyph-name="multiply" unicode="&#xd7;" horiz-adv-x="556" 
d="M278 302l145 145l51 -50l-145 -145l145 -146l-51 -50l-145 145l-145 -145l-51 50l146 146l-146 145l51 50z" />
    <glyph glyph-name="Oslash" unicode="&#xd8;" horiz-adv-x="787" 
d="M98 539.5q40 82.5 115.5 129.5t177.5 47q85 0 153 -34l48 84l58 -34l-50 -86q59 -49 91 -125t32 -168q0 -104 -40 -186.5t-115 -130t-177 -47.5q-83 0 -152 33l-49 -84l-56 34l49 86q-60 49 -92.5 125.5t-32.5 169.5q0 104 40 186.5zM169 225q19 -57 56 -94l279 482
q-51 24 -113 24q-118 0 -179.5 -77.5t-61.5 -206.5q0 -71 19 -128zM391 68q118 0 179.5 78t61.5 207q0 145 -74 220l-279 -481q48 -24 112 -24z" />
    <glyph glyph-name="Ugrave" unicode="&#xd9;" horiz-adv-x="674" 
d="M53 705h91v-424q0 -110 42.5 -161.5t149.5 -51.5t150.5 51.5t43.5 161.5v424h91v-443q0 -134 -70.5 -203.5t-214.5 -69.5q-283 0 -283 273v443zM487 784l-314 80l17 68l314 -80z" />
    <glyph glyph-name="Uacute" unicode="&#xda;" horiz-adv-x="674" 
d="M53 705h91v-424q0 -110 42.5 -161.5t149.5 -51.5t150.5 51.5t43.5 161.5v424h91v-443q0 -134 -70.5 -203.5t-214.5 -69.5q-283 0 -283 273v443zM168 852l314 80l17 -68l-314 -80z" />
    <glyph glyph-name="Ucircumflex" unicode="&#xdb;" horiz-adv-x="674" 
d="M53 705h91v-424q0 -110 42.5 -161.5t149.5 -51.5t150.5 51.5t43.5 161.5v424h91v-443q0 -134 -70.5 -203.5t-214.5 -69.5q-283 0 -283 273v443zM451 767l-115 94l-116 -94l-51 50l167 133l166 -133z" />
    <glyph glyph-name="Udieresis" unicode="&#xdc;" horiz-adv-x="674" 
d="M53 705h91v-424q0 -110 42.5 -161.5t149.5 -51.5t150.5 51.5t43.5 161.5v424h91v-443q0 -134 -70.5 -203.5t-214.5 -69.5q-283 0 -283 273v443zM180.5 803q-20.5 20 -20.5 50t20.5 50t51.5 20q32 0 53 -20t21 -50t-21 -50t-53 -20q-31 0 -51.5 20zM387 903q21 20 52 20
t52.5 -20t21.5 -50t-21.5 -50t-52.5 -20t-52 20t-21 50t21 50z" />
    <glyph glyph-name="Yacute" unicode="&#xdd;" horiz-adv-x="665" 
d="M634 705l-210 -408h-47v-297h-90v297h-47l-209 408h96l192 -384h26l192 384h97zM164 852l314 80l17 -68l-314 -80z" />
    <glyph glyph-name="Thorn" unicode="&#xde;" horiz-adv-x="621" 
d="M72 705h91v-120h114q148 0 221 -52.5t73 -180.5q0 -129 -72.5 -181.5t-221.5 -52.5h-114v-118h-91v705zM280 196q65 0 108 12.5t68 46.5t25 97t-25 97t-68 46t-108 12h-117v-311h117z" />
    <glyph glyph-name="germandbls" unicode="&#xdf;" horiz-adv-x="561" 
d="M217 76l125 1q59 1 86.5 26.5t27.5 76.5q0 38 -16 60.5t-47 43.5l-43 29q-5 3 -26 17t-31 32t-10 41q0 28 10.5 44t35.5 41l31 29q16 15 23 30.5t7 35.5q0 39 -27.5 61t-78.5 22q-59 0 -91 -33t-32 -100v-533h-89v540q0 101 55.5 151.5t154.5 50.5q97 0 147 -41t50 -109
q0 -56 -42 -98l-33 -31l-13 -13t-14.5 -19t-4.5 -20q0 -17 10 -27.5t23.5 -18.5t19.5 -12l39 -27q36 -25 58.5 -59t22.5 -90q0 -90 -54.5 -133.5t-144.5 -43.5h-129v76z" />
    <glyph glyph-name="agrave" unicode="&#xe0;" horiz-adv-x="596" 
d="M90.5 237.5q40.5 37.5 125.5 45.5l195 19q-3 68 -35 100.5t-98 32.5q-55 0 -89 -28t-40 -87h-88q8 86 64.5 136.5t151.5 50.5q107 0 165 -60t58 -160v-211h73v-76h-91q-28 0 -44 16t-16 44v24l14 53h-25q-16 -65 -62.5 -106t-130.5 -41q-96 0 -132 46t-36 102
q0 62 40.5 99.5zM163 85q25 -22 69 -22q53 0 93.5 23t63 63t22.5 90l-180 -19q-48 -5 -70.5 -20.5t-22.5 -50.5q0 -42 25 -64zM435 576l-314 80l17 68l314 -80z" />
    <glyph glyph-name="aacute" unicode="&#xe1;" horiz-adv-x="596" 
d="M90.5 237.5q40.5 37.5 125.5 45.5l195 19q-3 68 -35 100.5t-98 32.5q-55 0 -89 -28t-40 -87h-88q8 86 64.5 136.5t151.5 50.5q107 0 165 -60t58 -160v-211h73v-76h-91q-28 0 -44 16t-16 44v24l14 53h-25q-16 -65 -62.5 -106t-130.5 -41q-96 0 -132 46t-36 102
q0 62 40.5 99.5zM163 85q25 -22 69 -22q53 0 93.5 23t63 63t22.5 90l-180 -19q-48 -5 -70.5 -20.5t-22.5 -50.5q0 -42 25 -64zM116 644l314 80l17 -68l-314 -80z" />
    <glyph glyph-name="acircumflex" unicode="&#xe2;" horiz-adv-x="596" 
d="M90.5 237.5q40.5 37.5 125.5 45.5l195 19q-3 68 -35 100.5t-98 32.5q-55 0 -89 -28t-40 -87h-88q8 86 64.5 136.5t151.5 50.5q107 0 165 -60t58 -160v-211h73v-76h-91q-28 0 -44 16t-16 44v24l14 53h-25q-16 -65 -62.5 -106t-130.5 -41q-96 0 -132 46t-36 102
q0 62 40.5 99.5zM163 85q25 -22 69 -22q53 0 93.5 23t63 63t22.5 90l-180 -19q-48 -5 -70.5 -20.5t-22.5 -50.5q0 -42 25 -64zM400 559l-115 94l-116 -94l-51 50l167 133l166 -133z" />
    <glyph glyph-name="atilde" unicode="&#xe3;" horiz-adv-x="596" 
d="M90.5 237.5q40.5 37.5 125.5 45.5l195 19q-3 68 -35 100.5t-98 32.5q-55 0 -89 -28t-40 -87h-88q8 86 64.5 136.5t151.5 50.5q107 0 165 -60t58 -160v-211h73v-76h-91q-28 0 -44 16t-16 44v24l14 53h-25q-16 -65 -62.5 -106t-130.5 -41q-96 0 -132 46t-36 102
q0 62 40.5 99.5zM163 85q25 -22 69 -22q53 0 93.5 23t63 63t22.5 90l-180 -19q-48 -5 -70.5 -20.5t-22.5 -50.5q0 -42 25 -64zM127.5 696.5q28.5 34.5 77.5 34.5q33 0 55 -13t47 -37q18 -16 28.5 -23t22.5 -7q19 0 30 14.5t11 55.5h71q0 -72 -28.5 -106.5t-77.5 -34.5
q-33 0 -55 13t-47 37q-16 15 -27.5 22.5t-23.5 7.5q-19 0 -29.5 -14.5t-10.5 -55.5h-72q0 72 28.5 106.5z" />
    <glyph glyph-name="adieresis" unicode="&#xe4;" horiz-adv-x="596" 
d="M90.5 237.5q40.5 37.5 125.5 45.5l195 19q-3 68 -35 100.5t-98 32.5q-55 0 -89 -28t-40 -87h-88q8 86 64.5 136.5t151.5 50.5q107 0 165 -60t58 -160v-211h73v-76h-91q-28 0 -44 16t-16 44v24l14 53h-25q-16 -65 -62.5 -106t-130.5 -41q-96 0 -132 46t-36 102
q0 62 40.5 99.5zM163 85q25 -22 69 -22q53 0 93.5 23t63 63t22.5 90l-180 -19q-48 -5 -70.5 -20.5t-22.5 -50.5q0 -42 25 -64zM128.5 595q-20.5 20 -20.5 50t20.5 50t51.5 20q32 0 53 -20t21 -50t-21 -50t-53 -20q-31 0 -51.5 20zM335 695q21 20 52 20t52.5 -20t21.5 -50
t-21.5 -50t-52.5 -20t-52 20t-21 50t21 50z" />
    <glyph glyph-name="aring" unicode="&#xe5;" horiz-adv-x="596" 
d="M90.5 237.5q40.5 37.5 125.5 45.5l195 19q-3 68 -35 100.5t-98 32.5q-55 0 -89 -28t-40 -87h-88q8 86 64.5 136.5t151.5 50.5q107 0 165 -60t58 -160v-211h73v-76h-91q-28 0 -44 16t-16 44v24l14 53h-25q-16 -65 -62.5 -106t-130.5 -41q-96 0 -132 46t-36 102
q0 62 40.5 99.5zM163 85q25 -22 69 -22q53 0 93.5 23t63 63t22.5 90l-180 -19q-48 -5 -70.5 -20.5t-22.5 -50.5q0 -42 25 -64zM194.5 590.5q-32.5 31.5 -32.5 78.5q0 46 32.5 77.5t88.5 31.5q57 0 90 -31.5t33 -77.5t-33.5 -78t-89.5 -32t-88.5 31.5zM244.5 634.5
q13.5 -12.5 38.5 -12.5q26 0 40 12.5t14 34.5q0 21 -14.5 33t-39.5 12t-38.5 -12t-13.5 -33q0 -22 13.5 -34.5z" />
    <glyph glyph-name="ae" unicode="&#xe6;" horiz-adv-x="945" 
d="M216 282l195 20q-3 66 -37.5 99t-98.5 33q-59 0 -97.5 -29.5t-38.5 -92.5h-86q0 53 26.5 97.5t77 71t118.5 26.5q61 0 108.5 -24t74.5 -67q31 44 80.5 67.5t112.5 23.5q112 0 177.5 -64.5t65.5 -178.5v-32h-395q2 -76 42.5 -123.5t114.5 -47.5q62 0 100.5 30t51.5 83h88
q-17 -79 -75 -131.5t-164 -52.5q-82 0 -139 38.5t-83 104.5h-19q-13 -60 -66 -101.5t-132 -41.5q-96 0 -132 46t-36 102q0 126 166 144zM163.5 85q24.5 -22 68.5 -22q53 0 93.5 23t63 63t22.5 90l-180 -19q-48 -5 -70 -20.5t-22 -50.5q0 -42 24.5 -64zM807 295
q-4 67 -46.5 104.5t-109.5 37.5q-63 0 -104.5 -38t-46.5 -104h307z" />
    <glyph glyph-name="ccedilla" unicode="&#xe7;" horiz-adv-x="590" 
d="M80.5 380.5q30.5 58.5 88.5 92.5t136 34q54 0 105.5 -21t87.5 -66t42 -113h-89q-10 65 -49 94.5t-97 29.5q-81 0 -124 -51.5t-43 -130.5q0 -80 43 -131.5t124 -51.5q58 0 97 29.5t49 94.5h89q-8 -94 -70.5 -143.5t-144.5 -55.5l-47 -48q36 15 69 15q28 0 47.5 -13.5
t19.5 -42.5q0 -38 -26 -57.5t-71 -25.5t-118 -6v64q59 0 85.5 1.5t42.5 8t16 21.5q0 10 -6 15t-17 5q-15 0 -30 -5t-40 -21l-37 45l38 48q-94 16 -147.5 85.5t-53.5 168.5q0 73 30.5 131.5z" />
    <glyph glyph-name="egrave" unicode="&#xe8;" horiz-adv-x="582" 
d="M115 440.5q65 66.5 173 66.5q112 0 177.5 -64.5t65.5 -178.5v-32h-395q2 -76 42.5 -123.5t114.5 -47.5q62 0 100.5 30t51.5 83h88q-17 -79 -75 -131.5t-164 -52.5q-78 0 -133 35t-83 95t-28 135q0 119 65 185.5zM444 295q-4 67 -46.5 104.5t-109.5 37.5q-63 0 -104.5 -38
t-46.5 -104h307zM448 576l-314 80l17 68l314 -80z" />
    <glyph glyph-name="eacute" unicode="&#xe9;" horiz-adv-x="582" 
d="M115 440.5q65 66.5 173 66.5q112 0 177.5 -64.5t65.5 -178.5v-32h-395q2 -76 42.5 -123.5t114.5 -47.5q62 0 100.5 30t51.5 83h88q-17 -79 -75 -131.5t-164 -52.5q-78 0 -133 35t-83 95t-28 135q0 119 65 185.5zM444 295q-4 67 -46.5 104.5t-109.5 37.5q-63 0 -104.5 -38
t-46.5 -104h307zM129 644l314 80l17 -68l-314 -80z" />
    <glyph glyph-name="ecircumflex" unicode="&#xea;" horiz-adv-x="582" 
d="M115 440.5q65 66.5 173 66.5q112 0 177.5 -64.5t65.5 -178.5v-32h-395q2 -76 42.5 -123.5t114.5 -47.5q62 0 100.5 30t51.5 83h88q-17 -79 -75 -131.5t-164 -52.5q-78 0 -133 35t-83 95t-28 135q0 119 65 185.5zM444 295q-4 67 -46.5 104.5t-109.5 37.5q-63 0 -104.5 -38
t-46.5 -104h307zM413 559l-115 94l-116 -94l-51 50l167 133l166 -133z" />
    <glyph glyph-name="edieresis" unicode="&#xeb;" horiz-adv-x="582" 
d="M115 440.5q65 66.5 173 66.5q112 0 177.5 -64.5t65.5 -178.5v-32h-395q2 -76 42.5 -123.5t114.5 -47.5q62 0 100.5 30t51.5 83h88q-17 -79 -75 -131.5t-164 -52.5q-78 0 -133 35t-83 95t-28 135q0 119 65 185.5zM444 295q-4 67 -46.5 104.5t-109.5 37.5q-63 0 -104.5 -38
t-46.5 -104h307zM141.5 595q-20.5 20 -20.5 50t20.5 50t51.5 20q32 0 53 -20t21 -50t-21 -50t-53 -20q-31 0 -51.5 20zM348 695q21 20 52 20t52.5 -20t21.5 -50t-21.5 -50t-52.5 -20t-52 20t-21 50t21 50z" />
    <glyph glyph-name="igrave" unicode="&#xec;" horiz-adv-x="443" 
d="M52 76h138v345h-103v76h129q56 0 56 -58v-363h139v-76h-359v76zM372 576l-314 80l17 68l314 -80z" />
    <glyph glyph-name="iacute" unicode="&#xed;" horiz-adv-x="443" 
d="M52 76h138v345h-103v76h129q56 0 56 -58v-363h139v-76h-359v76zM53 644l314 80l17 -68l-314 -80z" />
    <glyph glyph-name="icircumflex" unicode="&#xee;" horiz-adv-x="449" 
d="M56 76h138v345h-103v76h129q56 0 56 -58v-363h139v-76h-359v76zM338 559l-115 94l-116 -94l-51 50l167 133l166 -133z" />
    <glyph glyph-name="idieresis" unicode="&#xef;" horiz-adv-x="450" 
d="M56 76h138v345h-103v76h129q56 0 56 -58v-363h139v-76h-359v76zM65.5 595q-20.5 20 -20.5 50t20.5 50t51.5 20q32 0 53 -20t21 -50t-21 -50t-53 -20q-31 0 -51.5 20zM272 695q21 20 52 20t52.5 -20t21.5 -50t-21.5 -50t-52.5 -20t-52 20t-21 50t21 50z" />
    <glyph glyph-name="eth" unicode="&#xf0;" horiz-adv-x="647" 
d="M173.5 23.5q-60.5 33.5 -92 92.5t-31.5 136q0 73 31 131t89 91t135 33q90 0 149.5 -53.5t74.5 -145.5h24l-15 60q-8 74 -50 131.5t-112 97.5l-105 -56l-53 48l81 43q-64 24 -150 37v76q133 -16 232 -70l123 66l53 -48l-112 -59q72 -56 111 -135.5t39 -179.5
q0 -102 -33.5 -176t-95.5 -113.5t-147 -39.5t-145.5 33.5zM184 114.5q46 -48.5 136 -48.5q59 0 101.5 25.5t64 68t21.5 92.5q0 82 -52.5 130.5t-141.5 48.5q-83 0 -129 -48.5t-46 -130.5q0 -89 46 -137.5z" />
    <glyph glyph-name="ntilde" unicode="&#xf1;" horiz-adv-x="607" 
d="M70 497h89v-83l-15 -60h25q16 70 64.5 111.5t126.5 41.5q87 0 137 -52t50 -154v-301h-88v289q0 76 -30 109t-94 33q-79 0 -127.5 -57t-48.5 -156v-218h-89v497zM170.5 696.5q28.5 34.5 77.5 34.5q33 0 55 -13t47 -37q18 -16 28.5 -23t22.5 -7q19 0 30 14.5t11 55.5h71
q0 -72 -28.5 -106.5t-77.5 -34.5q-33 0 -55 13t-47 37q-16 15 -27.5 22.5t-23.5 7.5q-19 0 -29.5 -14.5t-10.5 -55.5h-72q0 72 28.5 106.5z" />
    <glyph glyph-name="ograve" unicode="&#xf2;" horiz-adv-x="627" 
d="M83 381q33 59 93 92.5t138 33.5q77 0 137 -33.5t93 -92.5t33 -132q0 -74 -33 -133t-92.5 -92.5t-137.5 -33.5t-138 33.5t-93 92.5t-33 133q0 73 33 132zM184.5 118q46.5 -52 129.5 -52q82 0 128.5 52t46.5 131q0 51 -20.5 92.5t-60 65.5t-94.5 24t-95 -24t-60.5 -65.5
t-20.5 -92.5q0 -79 46.5 -131zM464 576l-314 80l17 68l314 -80z" />
    <glyph glyph-name="oacute" unicode="&#xf3;" horiz-adv-x="627" 
d="M83 381q33 59 93 92.5t138 33.5q77 0 137 -33.5t93 -92.5t33 -132q0 -74 -33 -133t-92.5 -92.5t-137.5 -33.5t-138 33.5t-93 92.5t-33 133q0 73 33 132zM184.5 118q46.5 -52 129.5 -52q82 0 128.5 52t46.5 131q0 51 -20.5 92.5t-60 65.5t-94.5 24t-95 -24t-60.5 -65.5
t-20.5 -92.5q0 -79 46.5 -131zM146 644l314 80l17 -68l-314 -80z" />
    <glyph glyph-name="ocircumflex" unicode="&#xf4;" horiz-adv-x="627" 
d="M83 381q33 59 93 92.5t138 33.5q77 0 137 -33.5t93 -92.5t33 -132q0 -74 -33 -133t-92.5 -92.5t-137.5 -33.5t-138 33.5t-93 92.5t-33 133q0 73 33 132zM184.5 118q46.5 -52 129.5 -52q82 0 128.5 52t46.5 131q0 51 -20.5 92.5t-60 65.5t-94.5 24t-95 -24t-60.5 -65.5
t-20.5 -92.5q0 -79 46.5 -131zM429 559l-115 94l-116 -94l-51 50l167 133l166 -133z" />
    <glyph glyph-name="otilde" unicode="&#xf5;" horiz-adv-x="627" 
d="M83 381q33 59 93 92.5t138 33.5q77 0 137 -33.5t93 -92.5t33 -132q0 -74 -33 -133t-92.5 -92.5t-137.5 -33.5t-138 33.5t-93 92.5t-33 133q0 73 33 132zM184.5 118q46.5 -52 129.5 -52q82 0 128.5 52t46.5 131q0 51 -20.5 92.5t-60 65.5t-94.5 24t-95 -24t-60.5 -65.5
t-20.5 -92.5q0 -79 46.5 -131zM157.5 696.5q28.5 34.5 77.5 34.5q33 0 55 -13t47 -37q18 -16 28.5 -23t22.5 -7q19 0 30 14.5t11 55.5h71q0 -72 -28.5 -106.5t-77.5 -34.5q-33 0 -55 13t-47 37q-16 15 -27.5 22.5t-23.5 7.5q-19 0 -29.5 -14.5t-10.5 -55.5h-72
q0 72 28.5 106.5z" />
    <glyph glyph-name="odieresis" unicode="&#xf6;" horiz-adv-x="627" 
d="M83 381q33 59 93 92.5t138 33.5q77 0 137 -33.5t93 -92.5t33 -132q0 -74 -33 -133t-92.5 -92.5t-137.5 -33.5t-138 33.5t-93 92.5t-33 133q0 73 33 132zM184.5 118q46.5 -52 129.5 -52q82 0 128.5 52t46.5 131q0 51 -20.5 92.5t-60 65.5t-94.5 24t-95 -24t-60.5 -65.5
t-20.5 -92.5q0 -79 46.5 -131zM158.5 595q-20.5 20 -20.5 50t20.5 50t51.5 20q32 0 53 -20t21 -50t-21 -50t-53 -20q-31 0 -51.5 20zM365 695q21 20 52 20t52.5 -20t21.5 -50t-21.5 -50t-52.5 -20t-52 20t-21 50t21 50z" />
    <glyph glyph-name="divide" unicode="&#xf7;" horiz-adv-x="647" 
d="M564 289v-72h-482v72h482zM262.5 125.5q24.5 24.5 60.5 24.5t61 -24.5t25 -59.5q0 -36 -25 -60.5t-61 -24.5q-37 0 -61 24.5t-24 60.5q0 35 24.5 59.5zM262.5 498q24.5 24 60.5 24t61 -24.5t25 -59.5t-25 -60t-61 -25t-60.5 24.5t-24.5 60.5t24.5 60z" />
    <glyph glyph-name="oslash" unicode="&#xf8;" horiz-adv-x="627" 
d="M83 381q33 59 93 92.5t138 33.5q57 0 103 -18l36 63l55 -30l-36 -62q50 -35 77.5 -90t27.5 -121q0 -74 -33 -133t-92.5 -92.5t-137.5 -33.5q-57 0 -104 18l-37 -63l-54 30l36 62q-50 35 -77.5 90t-27.5 122q0 73 33 132zM153 169q15 -37 43 -62l181 314q-27 10 -63 10
q-55 0 -95 -24t-60.5 -65.5t-20.5 -92.5q0 -43 15 -80zM314 66q82 0 128.5 52t46.5 131q0 43 -15 79.5t-43 61.5l-182 -314q32 -10 65 -10z" />
    <glyph glyph-name="ugrave" unicode="&#xf9;" horiz-adv-x="607" 
d="M110 42q-50 52 -50 154v301h89v-289q0 -76 29.5 -109t94.5 -33q79 0 127.5 57t48.5 157v217h88v-497h-88v84l14 59h-24q-16 -70 -64.5 -111.5t-126.5 -41.5q-88 0 -138 52zM457 576l-314 80l17 68l314 -80z" />
    <glyph glyph-name="uacute" unicode="&#xfa;" horiz-adv-x="607" 
d="M110 42q-50 52 -50 154v301h89v-289q0 -76 29.5 -109t94.5 -33q79 0 127.5 57t48.5 157v217h88v-497h-88v84l14 59h-24q-16 -70 -64.5 -111.5t-126.5 -41.5q-88 0 -138 52zM138 644l314 80l17 -68l-314 -80z" />
    <glyph glyph-name="ucircumflex" unicode="&#xfb;" horiz-adv-x="607" 
d="M110 42q-50 52 -50 154v301h89v-289q0 -76 29.5 -109t94.5 -33q79 0 127.5 57t48.5 157v217h88v-497h-88v84l14 59h-24q-16 -70 -64.5 -111.5t-126.5 -41.5q-88 0 -138 52zM421 559l-115 94l-116 -94l-51 50l167 133l166 -133z" />
    <glyph glyph-name="udieresis" unicode="&#xfc;" horiz-adv-x="607" 
d="M110 42q-50 52 -50 154v301h89v-289q0 -76 29.5 -109t94.5 -33q79 0 127.5 57t48.5 157v217h88v-497h-88v84l14 59h-24q-16 -70 -64.5 -111.5t-126.5 -41.5q-88 0 -138 52zM150.5 595q-20.5 20 -20.5 50t20.5 50t51.5 20q32 0 53 -20t21 -50t-21 -50t-53 -20
q-31 0 -51.5 20zM357 695q21 20 52 20t52.5 -20t21.5 -50t-21.5 -50t-52.5 -20t-52 20t-21 50t21 50z" />
    <glyph glyph-name="yacute" unicode="&#xfd;" horiz-adv-x="601" 
d="M541 -133q0 -61 -69 -61h-380v76h360v201l15 60h-25q-16 -70 -64.5 -111.5t-126.5 -41.5q-87 0 -137 52t-50 154v301h88v-289q0 -76 30 -109t94 -33q79 0 127.5 57t48.5 156v218h89v-630zM140 644l314 80l17 -68l-314 -80z" />
    <glyph glyph-name="thorn" unicode="&#xfe;" horiz-adv-x="655" 
d="M70 735h89v-307l-15 -59h25q17 62 68 100t132 38q71 0 124.5 -33.5t82.5 -92.5t29 -133q0 -73 -29 -132t-82.5 -92.5t-124.5 -33.5q-81 0 -132 38.5t-68 100.5h-25l15 -60v-263h-89v929zM209.5 111.5q50.5 -45.5 131.5 -45.5q80 0 128 45.5t48 136.5q0 92 -48 137.5
t-128 45.5q-81 0 -131.5 -45.5t-50.5 -137.5q0 -91 50.5 -136.5z" />
    <glyph glyph-name="ydieresis" unicode="&#xff;" horiz-adv-x="601" 
d="M541 -133q0 -61 -69 -61h-380v76h360v201l15 60h-25q-16 -70 -64.5 -111.5t-126.5 -41.5q-87 0 -137 52t-50 154v301h88v-289q0 -76 30 -109t94 -33q79 0 127.5 57t48.5 156v218h89v-630zM152.5 595q-20.5 20 -20.5 50t20.5 50t51.5 20q32 0 53 -20t21 -50t-21 -50
t-53 -20q-31 0 -51.5 20zM359 695q21 20 52 20t52.5 -20t21.5 -50t-21.5 -50t-52.5 -20t-52 20t-21 50t21 50z" />
    <glyph glyph-name="Amacron" unicode="&#x100;" horiz-adv-x="698" 
d="M251 705h195l225 -705h-95l-85 270h-285l-85 -270h-94zM466 348l-105 332h-25l-105 -332h235zM515 895v-71l-332 -1v72h332z" />
    <glyph glyph-name="amacron" unicode="&#x101;" horiz-adv-x="596" 
d="M90.5 237.5q40.5 37.5 125.5 45.5l195 19q-3 68 -35 100.5t-98 32.5q-55 0 -89 -28t-40 -87h-88q8 86 64.5 136.5t151.5 50.5q107 0 165 -60t58 -160v-211h73v-76h-91q-28 0 -44 16t-16 44v24l14 53h-25q-16 -65 -62.5 -106t-130.5 -41q-96 0 -132 46t-36 102
q0 62 40.5 99.5zM163 85q25 -22 69 -22q53 0 93.5 23t63 63t22.5 90l-180 -19q-48 -5 -70.5 -20.5t-22.5 -50.5q0 -42 25 -64zM451 687v-71l-332 -1v72h332z" />
    <glyph glyph-name="Abreve" unicode="&#x102;" horiz-adv-x="698" 
d="M251 705h195l225 -705h-95l-85 270h-285l-85 -270h-94zM466 348l-105 332h-25l-105 -332h235zM232.5 818.5q-42.5 48.5 -42.5 126.5h72q0 -56 20.5 -81t66.5 -25t66.5 25t20.5 81h72q0 -78 -42.5 -126.5t-116.5 -48.5t-116.5 48.5z" />
    <glyph glyph-name="abreve" unicode="&#x103;" horiz-adv-x="596" 
d="M90.5 237.5q40.5 37.5 125.5 45.5l195 19q-3 68 -35 100.5t-98 32.5q-55 0 -89 -28t-40 -87h-88q8 86 64.5 136.5t151.5 50.5q107 0 165 -60t58 -160v-211h73v-76h-91q-28 0 -44 16t-16 44v24l14 53h-25q-16 -65 -62.5 -106t-130.5 -41q-96 0 -132 46t-36 102
q0 62 40.5 99.5zM163 85q25 -22 69 -22q53 0 93.5 23t63 63t22.5 90l-180 -19q-48 -5 -70.5 -20.5t-22.5 -50.5q0 -42 25 -64zM168.5 610.5q-42.5 48.5 -42.5 126.5h72q0 -56 20.5 -81t66.5 -25t66.5 25t20.5 81h72q0 -78 -42.5 -126.5t-116.5 -48.5t-116.5 48.5z" />
    <glyph glyph-name="Aogonek" unicode="&#x104;" horiz-adv-x="698" 
d="M251 705h195l225 -705h-7l-61 -122l181 1v-72h-196q-30 0 -47.5 14t-17.5 37q0 16 11 36l56 106h-14l-85 270h-285l-85 -270h-94zM466 348l-105 332h-25l-105 -332h235z" />
    <glyph glyph-name="aogonek" unicode="&#x105;" horiz-adv-x="596" 
d="M90.5 237.5q40.5 37.5 125.5 45.5l195 19q-3 68 -35 100.5t-98 32.5q-55 0 -89 -28t-40 -87h-88q8 86 64.5 136.5t151.5 50.5q107 0 165 -60t58 -160v-211h73v-76h-2l-61 -122l181 1v-72h-196q-30 0 -47.5 14t-17.5 37q0 16 11 36l56 106h-15q-28 0 -44 16t-16 44v24
l14 53h-25q-16 -65 -62.5 -106t-130.5 -41q-96 0 -132 46t-36 102q0 62 40.5 99.5zM163 85q25 -22 69 -22q53 0 93.5 23t63 63t22.5 90l-180 -19q-48 -5 -70.5 -20.5t-22.5 -50.5q0 -42 25 -64z" />
    <glyph glyph-name="Cacute" unicode="&#x106;" horiz-adv-x="772" 
d="M213.5 36.5q-75.5 47.5 -115.5 130t-40 186.5t40 186.5t116 129.5t178 47q136 0 221 -75.5t101 -207.5h-91q-12 97 -71.5 150.5t-159.5 53.5q-116 0 -179 -77.5t-63 -206.5q0 -130 63 -207.5t179 -77.5q100 0 159.5 53.5t71.5 151.5h91q-16 -133 -101 -208.5t-221 -75.5
q-103 0 -178.5 47.5zM218 852l314 80l17 -68l-314 -80z" />
    <glyph glyph-name="cacute" unicode="&#x107;" horiz-adv-x="590" 
d="M80.5 380.5q30.5 58.5 88.5 92.5t136 34q54 0 105.5 -21t87.5 -66t42 -113h-89q-10 65 -49 94.5t-97 29.5q-81 0 -124 -51.5t-43 -130.5q0 -80 43 -131.5t124 -51.5q58 0 97 29.5t49 94.5h89q-6 -68 -42 -113t-87.5 -66t-105.5 -21q-78 0 -136 34t-88.5 92.5t-30.5 132.5
q0 73 30.5 131.5zM137 644l314 80l17 -68l-314 -80z" />
    <glyph glyph-name="Ccircumflex" unicode="&#x108;" horiz-adv-x="772" 
d="M213.5 36.5q-75.5 47.5 -115.5 130t-40 186.5t40 186.5t116 129.5t178 47q136 0 221 -75.5t101 -207.5h-91q-12 97 -71.5 150.5t-159.5 53.5q-116 0 -179 -77.5t-63 -206.5q0 -130 63 -207.5t179 -77.5q100 0 159.5 53.5t71.5 151.5h91q-16 -133 -101 -208.5t-221 -75.5
q-103 0 -178.5 47.5zM501 767l-115 94l-116 -94l-51 50l167 133l166 -133z" />
    <glyph glyph-name="ccircumflex" unicode="&#x109;" horiz-adv-x="590" 
d="M80.5 380.5q30.5 58.5 88.5 92.5t136 34q54 0 105.5 -21t87.5 -66t42 -113h-89q-10 65 -49 94.5t-97 29.5q-81 0 -124 -51.5t-43 -130.5q0 -80 43 -131.5t124 -51.5q58 0 97 29.5t49 94.5h89q-6 -68 -42 -113t-87.5 -66t-105.5 -21q-78 0 -136 34t-88.5 92.5t-30.5 132.5
q0 73 30.5 131.5zM420 559l-115 94l-116 -94l-51 50l167 133l166 -133z" />
    <glyph glyph-name="Cdotaccent" unicode="&#x10a;" horiz-adv-x="772" 
d="M213.5 36.5q-75.5 47.5 -115.5 130t-40 186.5t40 186.5t116 129.5t178 47q136 0 221 -75.5t101 -207.5h-91q-12 97 -71.5 150.5t-159.5 53.5q-116 0 -179 -77.5t-63 -206.5q0 -130 63 -207.5t179 -77.5q100 0 159.5 53.5t71.5 151.5h91q-16 -133 -101 -208.5t-221 -75.5
q-103 0 -178.5 47.5zM334 809q-20 19 -20 48t20 48t50 19t51 -19t21 -48t-21 -48t-51 -19t-50 19z" />
    <glyph glyph-name="cdotaccent" unicode="&#x10b;" horiz-adv-x="590" 
d="M80.5 380.5q30.5 58.5 88.5 92.5t136 34q54 0 105.5 -21t87.5 -66t42 -113h-89q-10 65 -49 94.5t-97 29.5q-81 0 -124 -51.5t-43 -130.5q0 -80 43 -131.5t124 -51.5q58 0 97 29.5t49 94.5h89q-6 -68 -42 -113t-87.5 -66t-105.5 -21q-78 0 -136 34t-88.5 92.5t-30.5 132.5
q0 73 30.5 131.5zM253 601q-20 19 -20 48t20 48t50 19t51 -19t21 -48t-21 -48t-51 -19t-50 19z" />
    <glyph glyph-name="Ccaron" unicode="&#x10c;" horiz-adv-x="772" 
d="M213.5 36.5q-75.5 47.5 -115.5 130t-40 186.5t40 186.5t116 129.5t178 47q136 0 221 -75.5t101 -207.5h-91q-12 97 -71.5 150.5t-159.5 53.5q-116 0 -179 -77.5t-63 -206.5q0 -130 63 -207.5t179 -77.5q100 0 159.5 53.5t71.5 151.5h91q-16 -133 -101 -208.5t-221 -75.5
q-103 0 -178.5 47.5zM270 951l116 -94l115 94l51 -49l-166 -133l-167 133z" />
    <glyph glyph-name="ccaron" unicode="&#x10d;" horiz-adv-x="590" 
d="M80.5 380.5q30.5 58.5 88.5 92.5t136 34q54 0 105.5 -21t87.5 -66t42 -113h-89q-10 65 -49 94.5t-97 29.5q-81 0 -124 -51.5t-43 -130.5q0 -80 43 -131.5t124 -51.5q58 0 97 29.5t49 94.5h89q-6 -68 -42 -113t-87.5 -66t-105.5 -21q-78 0 -136 34t-88.5 92.5t-30.5 132.5
q0 73 30.5 131.5zM189 743l116 -94l115 94l51 -49l-166 -133l-167 133z" />
    <glyph glyph-name="Dcaron" unicode="&#x10e;" horiz-adv-x="714" 
d="M72 705h227q101 0 179 -27t128 -105t50 -220q0 -143 -50 -221t-128 -105t-179 -27h-227v705zM299 78q78 0 134 17.5t94 78t38 179.5q0 118 -38 178.5t-94 78t-134 17.5h-136v-549h136zM184 951l116 -94l115 94l51 -49l-166 -133l-167 133z" />
    <glyph glyph-name="dcaron" unicode="&#x10f;" horiz-adv-x="817" 
d="M161.5 24q-53.5 34 -82.5 92.5t-29 132.5q0 73 29 132t82.5 92.5t124.5 33.5q81 0 132 -38t69 -100h25l-15 59v307h88v-735h-88v69l15 60h-25q-18 -62 -69 -100.5t-132 -38.5q-71 0 -124.5 34zM186.5 111.5q47.5 -45.5 127.5 -45.5q81 0 132 46t51 137t-51 136.5
t-132 45.5q-80 0 -127.5 -45t-47.5 -137t47.5 -137.5zM738 735v-259h-79v259h79z" />
    <glyph glyph-name="Dcroat" unicode="&#x110;" horiz-adv-x="732" 
d="M88 316h-88v72h88v317h227q101 0 179 -27t128 -105t50 -220q0 -143 -50 -221t-128 -105t-179 -27h-227v316zM315 78q78 0 134 17.5t94 78t38 179.5q0 118 -38 178.5t-94 78t-134 17.5h-136v-239h174v-72h-174v-238h136z" />
    <glyph glyph-name="dcroat" unicode="&#x111;" horiz-adv-x="665" 
d="M161.5 24q-53.5 34 -82.5 92.5t-29 132.5q0 73 29 132t82.5 92.5t124.5 33.5q81 0 132 -38t69 -100h25l-15 59v179h-143v72h143v56h88v-56h57v-72h-57v-607h-88v69l15 60h-25q-18 -62 -69 -100.5t-132 -38.5q-71 0 -124.5 34zM186.5 111.5q47.5 -45.5 127.5 -45.5
q81 0 132 46t51 137t-51 136.5t-132 45.5q-80 0 -127.5 -45t-47.5 -137t47.5 -137.5z" />
    <glyph glyph-name="Emacron" unicode="&#x112;" horiz-adv-x="614" 
d="M72 705h490v-78h-399v-236h349v-76h-349v-237h399v-78h-490v705zM461 895v-71l-332 -1v72h332z" />
    <glyph glyph-name="emacron" unicode="&#x113;" horiz-adv-x="582" 
d="M115 440.5q65 66.5 173 66.5q112 0 177.5 -64.5t65.5 -178.5v-32h-395q2 -76 42.5 -123.5t114.5 -47.5q62 0 100.5 30t51.5 83h88q-17 -79 -75 -131.5t-164 -52.5q-78 0 -133 35t-83 95t-28 135q0 119 65 185.5zM444 295q-4 67 -46.5 104.5t-109.5 37.5q-63 0 -104.5 -38
t-46.5 -104h307zM464 687v-71l-332 -1v72h332z" />
    <glyph glyph-name="Edotaccent" unicode="&#x116;" horiz-adv-x="614" 
d="M72 705h490v-78h-399v-236h349v-76h-349v-237h399v-78h-490v705zM243 809q-20 19 -20 48t20 48t50 19t51 -19t21 -48t-21 -48t-51 -19t-50 19z" />
    <glyph glyph-name="edotaccent" unicode="&#x117;" horiz-adv-x="582" 
d="M115 440.5q65 66.5 173 66.5q112 0 177.5 -64.5t65.5 -178.5v-32h-395q2 -76 42.5 -123.5t114.5 -47.5q62 0 100.5 30t51.5 83h88q-17 -79 -75 -131.5t-164 -52.5q-78 0 -133 35t-83 95t-28 135q0 119 65 185.5zM444 295q-4 67 -46.5 104.5t-109.5 37.5q-63 0 -104.5 -38
t-46.5 -104h307zM246 601q-20 19 -20 48t20 48t50 19t51 -19t21 -48t-21 -48t-51 -19t-50 19z" />
    <glyph glyph-name="Eogonek" unicode="&#x118;" horiz-adv-x="614" 
d="M72 705h490v-78h-399v-236h349v-76h-349v-237h399v-78h-142l-61 -122l181 1v-72h-196q-30 0 -47.5 14t-17.5 37q0 16 11 36l56 106h-274v705z" />
    <glyph glyph-name="eogonek" unicode="&#x119;" horiz-adv-x="582" 
d="M496 -193h-196q-30 0 -47.5 14t-17.5 37q0 16 11 36l51 96h-3q-78 0 -133 35t-83 95t-28 135q0 119 65 185.5t173 66.5q112 0 177.5 -64.5t65.5 -178.5v-32h-395q2 -76 42.5 -123.5t114.5 -47.5q62 0 100.5 30t51.5 83h88q-13 -61 -51.5 -108t-104.5 -65l-62 -123l181 1
v-72zM444 295q-4 67 -46.5 104.5t-109.5 37.5q-63 0 -104.5 -38t-46.5 -104h307z" />
    <glyph glyph-name="Ecaron" unicode="&#x11a;" horiz-adv-x="614" 
d="M72 705h490v-78h-399v-236h349v-76h-349v-237h399v-78h-490v705zM179 951l116 -94l115 94l51 -49l-166 -133l-167 133z" />
    <glyph glyph-name="ecaron" unicode="&#x11b;" horiz-adv-x="582" 
d="M115 440.5q65 66.5 173 66.5q112 0 177.5 -64.5t65.5 -178.5v-32h-395q2 -76 42.5 -123.5t114.5 -47.5q62 0 100.5 30t51.5 83h88q-17 -79 -75 -131.5t-164 -52.5q-78 0 -133 35t-83 95t-28 135q0 119 65 185.5zM444 295q-4 67 -46.5 104.5t-109.5 37.5q-63 0 -104.5 -38
t-46.5 -104h307zM182 743l116 -94l115 94l51 -49l-166 -133l-167 133z" />
    <glyph glyph-name="Gcircumflex" unicode="&#x11c;" horiz-adv-x="794" 
d="M200 35q-71 46 -106.5 126.5t-35.5 184.5q0 111 40 194.5t115.5 129.5t180.5 46q128 0 210 -70t99 -193h-92q-12 88 -68 136.5t-146 48.5q-118 0 -182.5 -79.5t-64.5 -214.5q0 -124 59 -200.5t184 -76.5q116 0 176 62t56 180h-273v70h303q63 0 63 -59v-320h-91v80l19 95
h-26q-3 -36 -24 -78t-75 -75t-146 -33q-104 0 -175 46zM506 767l-115 94l-116 -94l-51 50l167 133l166 -133z" />
    <glyph glyph-name="gcircumflex" unicode="&#x11d;" horiz-adv-x="656" 
d="M161.5 24q-53.5 34 -82.5 92.5t-29 132.5q0 73 29 132t82.5 92.5t124.5 33.5q81 0 132 -38t69 -100h25l-15 59v69h88v-630q0 -61 -69 -61h-380v76h360v118h1v69l15 60h-25q-18 -62 -69 -100.5t-132 -38.5q-71 0 -124.5 34zM186.5 111.5q47.5 -45.5 127.5 -45.5
q81 0 132 46t51 137t-51 136.5t-132 45.5q-80 0 -127.5 -45t-47.5 -137t47.5 -137.5zM441 559l-115 94l-116 -94l-51 50l167 133l166 -133z" />
    <glyph glyph-name="Gbreve" unicode="&#x11e;" horiz-adv-x="794" 
d="M200 35q-71 46 -106.5 126.5t-35.5 184.5q0 111 40 194.5t115.5 129.5t180.5 46q128 0 210 -70t99 -193h-92q-12 88 -68 136.5t-146 48.5q-118 0 -182.5 -79.5t-64.5 -214.5q0 -124 59 -200.5t184 -76.5q116 0 176 62t56 180h-273v70h303q63 0 63 -59v-320h-91v80l19 95
h-26q-3 -36 -24 -78t-75 -75t-146 -33q-104 0 -175 46zM274.5 818.5q-42.5 48.5 -42.5 126.5h72q0 -56 20.5 -81t66.5 -25t66.5 25t20.5 81h72q0 -78 -42.5 -126.5t-116.5 -48.5t-116.5 48.5z" />
    <glyph glyph-name="gbreve" unicode="&#x11f;" horiz-adv-x="656" 
d="M161.5 24q-53.5 34 -82.5 92.5t-29 132.5q0 73 29 132t82.5 92.5t124.5 33.5q81 0 132 -38t69 -100h25l-15 59v69h88v-630q0 -61 -69 -61h-380v76h360v118h1v69l15 60h-25q-18 -62 -69 -100.5t-132 -38.5q-71 0 -124.5 34zM186.5 111.5q47.5 -45.5 127.5 -45.5
q81 0 132 46t51 137t-51 136.5t-132 45.5q-80 0 -127.5 -45t-47.5 -137t47.5 -137.5zM209.5 610.5q-42.5 48.5 -42.5 126.5h72q0 -56 20.5 -81t66.5 -25t66.5 25t20.5 81h72q0 -78 -42.5 -126.5t-116.5 -48.5t-116.5 48.5z" />
    <glyph glyph-name="Gdotaccent" unicode="&#x120;" horiz-adv-x="794" 
d="M200 35q-71 46 -106.5 126.5t-35.5 184.5q0 111 40 194.5t115.5 129.5t180.5 46q128 0 210 -70t99 -193h-92q-12 88 -68 136.5t-146 48.5q-118 0 -182.5 -79.5t-64.5 -214.5q0 -124 59 -200.5t184 -76.5q116 0 176 62t56 180h-273v70h303q63 0 63 -59v-320h-91v80l19 95
h-26q-3 -36 -24 -78t-75 -75t-146 -33q-104 0 -175 46zM339 809q-20 19 -20 48t20 48t50 19t51 -19t21 -48t-21 -48t-51 -19t-50 19z" />
    <glyph glyph-name="gdotaccent" unicode="&#x121;" horiz-adv-x="656" 
d="M161.5 24q-53.5 34 -82.5 92.5t-29 132.5q0 73 29 132t82.5 92.5t124.5 33.5q81 0 132 -38t69 -100h25l-15 59v69h88v-630q0 -61 -69 -61h-380v76h360v118h1v69l15 60h-25q-18 -62 -69 -100.5t-132 -38.5q-71 0 -124.5 34zM186.5 111.5q47.5 -45.5 127.5 -45.5
q81 0 132 46t51 137t-51 136.5t-132 45.5q-80 0 -127.5 -45t-47.5 -137t47.5 -137.5zM274 601q-20 19 -20 48t20 48t50 19t51 -19t21 -48t-21 -48t-51 -19t-50 19z" />
    <glyph glyph-name="uni0122" unicode="&#x122;" horiz-adv-x="794" 
d="M200 35q-71 46 -106.5 126.5t-35.5 184.5q0 111 40 194.5t115.5 129.5t180.5 46q128 0 210 -70t99 -193h-92q-12 88 -68 136.5t-146 48.5q-118 0 -182.5 -79.5t-64.5 -214.5q0 -124 59 -200.5t184 -76.5q116 0 176 62t56 180h-273v70h303q63 0 63 -59v-320h-91v80l19 95
h-26q-3 -36 -24 -78t-75 -75t-146 -33q-104 0 -175 46zM407 -71l-54 -165l-76 21l54 166z" />
    <glyph glyph-name="uni0123" unicode="&#x123;" horiz-adv-x="656" 
d="M161.5 24q-53.5 34 -82.5 92.5t-29 132.5q0 73 29 132t82.5 92.5t124.5 33.5q81 0 132 -38t69 -100h25l-15 59v69h88v-630q0 -61 -69 -61h-380v76h360v118h1v69l15 60h-25q-18 -62 -69 -100.5t-132 -38.5q-71 0 -124.5 34zM186.5 111.5q47.5 -45.5 127.5 -45.5
q81 0 132 46t51 137t-51 136.5t-132 45.5q-80 0 -127.5 -45t-47.5 -137t47.5 -137.5zM419 758l-53 -184l-77 20l53 185z" />
    <glyph glyph-name="Hcircumflex" unicode="&#x124;" horiz-adv-x="728" 
d="M163 705v-318h402v318h91v-705h-91v308h-402v-308h-91v705h91zM479 767l-115 94l-116 -94l-51 50l167 133l166 -133z" />
    <glyph glyph-name="hcircumflex" unicode="&#x125;" horiz-adv-x="607" 
d="M70 735h89v-321l-16 -60h26q17 70 67.5 111.5t128.5 41.5q85 0 133 -54t48 -154v-299h-88v289q0 76 -29.5 109t-94.5 33q-81 0 -128 -59.5t-47 -160.5v-211h-89v735zM229 797l-115 94l-116 -94l-51 50l167 133l166 -133z" />
    <glyph glyph-name="Hbar" unicode="&#x126;" horiz-adv-x="739" 
d="M168 705v-97h402v97h91v-97h63v-72h-63v-536h-91v308h-402v-308h-91v536h-61v72h61v97h91zM570 387v149h-402v-149h402z" />
    <glyph glyph-name="hbar" unicode="&#x127;" horiz-adv-x="614" 
d="M78 607h-56v72h56v56h89v-56h143v-72h-143v-193l-16 -60h26q17 70 67.5 111.5t128.5 41.5q85 0 133 -54t48 -154v-299h-88v289q0 76 -29.5 109t-94.5 33q-81 0 -128 -59.5t-47 -160.5v-211h-89v607z" />
    <glyph glyph-name="Itilde" unicode="&#x128;" horiz-adv-x="528" 
d="M467 705v-78h-158v-549h158v-78h-406v78h158v549h-158v78h406zM107.5 904.5q28.5 34.5 77.5 34.5q33 0 55 -13t47 -37q18 -16 28.5 -23t22.5 -7q19 0 30 14.5t11 55.5h71q0 -72 -28.5 -106.5t-77.5 -34.5q-33 0 -55 13t-47 37q-16 15 -27.5 22.5t-23.5 7.5
q-19 0 -29.5 -14.5t-10.5 -55.5h-72q0 72 28.5 106.5z" />
    <glyph glyph-name="itilde" unicode="&#x129;" horiz-adv-x="443" 
d="M52 76h138v345h-103v76h129q56 0 56 -58v-363h139v-76h-359v76zM64.5 696.5q28.5 34.5 77.5 34.5q33 0 55 -13t47 -37q18 -16 28.5 -23t22.5 -7q19 0 30 14.5t11 55.5h71q0 -72 -28.5 -106.5t-77.5 -34.5q-33 0 -55 13t-47 37q-16 15 -27.5 22.5t-23.5 7.5
q-19 0 -29.5 -14.5t-10.5 -55.5h-72q0 72 28.5 106.5z" />
    <glyph glyph-name="Imacron" unicode="&#x12a;" horiz-adv-x="528" 
d="M467 705v-78h-158v-549h158v-78h-406v78h158v549h-158v78h406zM430 895v-71l-332 -1v72h332z" />
    <glyph glyph-name="imacron" unicode="&#x12b;" horiz-adv-x="449" 
d="M56 76h138v345h-103v76h129q56 0 56 -58v-363h139v-76h-359v76zM391 687v-71l-332 -1v72h332z" />
    <glyph glyph-name="Iogonek" unicode="&#x12e;" horiz-adv-x="528" 
d="M467 705v-78h-158v-549h158v-78h-166l-61 -122l181 1v-72h-196q-30 0 -47.5 14t-17.5 37q0 16 11 36l56 106h-166v78h158v549h-158v78h406z" />
    <glyph glyph-name="iogonek" unicode="&#x12f;" horiz-adv-x="443" 
d="M52 76h138v345h-103v76h129q56 0 56 -58v-363h139v-76h-128l-61 -122l181 1v-72h-196q-30 0 -47.5 14t-17.5 37q0 16 11 36l56 106h-157v76zM170 697q20 19 50 19t51 -19t21 -48t-21 -48t-51 -19t-50 19t-20 48t20 48z" />
    <glyph glyph-name="Idotaccent" unicode="&#x130;" horiz-adv-x="528" 
d="M467 705v-78h-158v-549h158v-78h-406v78h158v549h-158v78h406zM212 809q-20 19 -20 48t20 48t50 19t51 -19t21 -48t-21 -48t-51 -19t-50 19z" />
    <glyph glyph-name="dotlessi" unicode="&#x131;" horiz-adv-x="443" 
d="M52 76h138v345h-103v76h129q56 0 56 -58v-363h139v-76h-359v76z" />
    <glyph glyph-name="IJ" unicode="&#x132;" horiz-adv-x="602" 
d="M72 78h247q71 0 101 42.5t30 126.5v458h91v-483q0 -108 -51.5 -165t-149.5 -57h-268v78zM72 705h91v-542h-91v542z" />
    <glyph glyph-name="ij" unicode="&#x133;" horiz-adv-x="707" 
d="M542.5 8.5q3.5 16.5 3.5 42.5v370h-274v-345h139v-76h-359v76h138v345h-103v76h484q31 0 47 -13.5t16 -43.5v-405q0 -25 -4 -41t-15 -38l-76 -146h-96l84 161q12 21 15.5 37.5zM170 697q20 19 50 19t51 -19t21 -48t-21 -48t-51 -19t-50 19t-20 48t20 48zM530 697
q20 19 50 19t51 -19t21 -48t-21 -48t-51 -19t-50 19t-20 48t20 48z" />
    <glyph glyph-name="Jcircumflex" unicode="&#x134;" horiz-adv-x="543" 
d="M33 0v78h228q71 0 101 42.5t30 126.5v380h-258v78h279q38 0 53.5 -14.5t15.5 -50.5v-418q0 -108 -51.5 -165t-148.5 -57h-249zM426 767l-115 94l-116 -94l-51 50l167 133l166 -133z" />
    <glyph glyph-name="jcircumflex" unicode="&#x135;" horiz-adv-x="302" 
d="M138.5 8.5q3.5 16.5 3.5 42.5v370h-105v76h130q31 0 47 -13.5t16 -43.5v-405q0 -25 -4 -41t-15 -38l-76 -146h-96l84 161q12 21 15.5 37.5zM292 559l-115 94l-116 -94l-51 50l167 133l166 -133z" />
    <glyph glyph-name="uni0136" unicode="&#x136;" horiz-adv-x="661" 
d="M72 705h91v-309h50l299 309h114l-331 -346l334 -359h-120l-298 320h-48v-320h-91v705zM363 -71l-54 -165l-76 21l54 166z" />
    <glyph glyph-name="uni0137" unicode="&#x137;" horiz-adv-x="545" 
d="M70 735h89v-442h54l190 204h111l-227 -241l225 -256h-111l-192 221h-50v-221h-89v735zM304 -71l-54 -165l-76 21l54 166z" />
    <glyph glyph-name="Lacute" unicode="&#x139;" horiz-adv-x="548" 
d="M90.5 16q-16.5 16 -16.5 47v642h91v-627h353v-78h-381q-30 0 -46.5 16zM73 852l314 80l17 -68l-314 -80z" />
    <glyph glyph-name="lacute" unicode="&#x13a;" horiz-adv-x="447" 
d="M47 76h139v583h-104v76h141q25 0 38.5 -12.5t13.5 -37.5v-609h139v-76h-367v76zM40 882l314 80l17 -68l-314 -80z" />
    <glyph glyph-name="uni013B" unicode="&#x13b;" horiz-adv-x="547" 
d="M88.5 16q-16.5 16 -16.5 47v642h91v-627h353v-78h-381q-30 0 -46.5 16zM351 -71l-54 -165l-76 21l54 166z" />
    <glyph glyph-name="uni013C" unicode="&#x13c;" horiz-adv-x="441" 
d="M42 76h139v583h-104v76h141q25 0 38.5 -12.5t13.5 -37.5v-609h139v-76h-367v76zM256 -71l-54 -165l-76 21l54 166z" />
    <glyph glyph-name="Lcaron" unicode="&#x13d;" horiz-adv-x="547" 
d="M88.5 16q-16.5 16 -16.5 47v642h91v-627h353v-78h-381q-30 0 -46.5 16zM427 705v-259h-79v259h79z" />
    <glyph glyph-name="lcaron" unicode="&#x13e;" horiz-adv-x="450" 
d="M42 76h139v583h-104v76h141q25 0 38.5 -12.5t13.5 -37.5v-609h139v-76h-367v76zM411 735v-259h-79v259h79z" />
    <glyph glyph-name="Lslash" unicode="&#x141;" horiz-adv-x="565" 
d="M105.5 16q-16.5 16 -16.5 47v261l-123 -34l-18 69l141 38v308h91v-283l120 32l18 -68l-138 -38v-270h353v-78h-381q-30 0 -46.5 16z" />
    <glyph glyph-name="lslash" unicode="&#x142;" horiz-adv-x="441" 
d="M42 76h139v241l-118 -32l-17 68l135 37v269h-104v76h141q25 0 38.5 -12.5t13.5 -37.5v-271l116 32l18 -69l-134 -36v-265h139v-76h-367v76z" />
    <glyph glyph-name="Nacute" unicode="&#x143;" horiz-adv-x="762" 
d="M72 705h182l336 -680h25l-15 63v617h90v-705h-182l-335 680h-26l16 -63v-617h-91v705zM233 852l314 80l17 -68l-314 -80z" />
    <glyph glyph-name="nacute" unicode="&#x144;" horiz-adv-x="607" 
d="M70 497h89v-83l-15 -60h25q16 70 64.5 111.5t126.5 41.5q87 0 137 -52t50 -154v-301h-88v289q0 76 -30 109t-94 33q-79 0 -127.5 -57t-48.5 -156v-218h-89v497zM159 644l314 80l17 -68l-314 -80z" />
    <glyph glyph-name="uni0145" unicode="&#x145;" horiz-adv-x="762" 
d="M72 705h182l336 -680h25l-15 63v617h90v-705h-182l-335 680h-26l16 -63v-617h-91v705zM413 -71l-54 -165l-76 21l54 166z" />
    <glyph glyph-name="uni0146" unicode="&#x146;" horiz-adv-x="607" 
d="M70 497h89v-83l-15 -60h25q16 70 64.5 111.5t126.5 41.5q87 0 137 -52t50 -154v-301h-88v289q0 76 -30 109t-94 33q-79 0 -127.5 -57t-48.5 -156v-218h-89v497zM342 -71l-54 -165l-76 21l54 166z" />
    <glyph glyph-name="Ncaron" unicode="&#x147;" horiz-adv-x="762" 
d="M72 705h182l336 -680h25l-15 63v617h90v-705h-182l-335 680h-26l16 -63v-617h-91v705zM286 951l116 -94l115 94l51 -49l-166 -133l-167 133z" />
    <glyph glyph-name="ncaron" unicode="&#x148;" horiz-adv-x="607" 
d="M70 497h89v-83l-15 -60h25q16 70 64.5 111.5t126.5 41.5q87 0 137 -52t50 -154v-301h-88v289q0 76 -30 109t-94 33q-79 0 -127.5 -57t-48.5 -156v-218h-89v497zM212 743l116 -94l115 94l51 -49l-166 -133l-167 133z" />
    <glyph glyph-name="Eng" unicode="&#x14a;" horiz-adv-x="760" 
d="M72 705h182l336 -680h25l-15 63v617h90v-841q0 -30 -14.5 -43t-50.5 -13h-202v76h178v116h-93l-335 680h-26l16 -63v-617h-91v705z" />
    <glyph glyph-name="eng" unicode="&#x14b;" horiz-adv-x="607" 
d="M70 497h89v-83l-15 -60h25q16 70 64.5 111.5t126.5 41.5q87 0 137 -52t50 -154v-434q0 -61 -70 -61h-197v76h179v407q0 76 -30 109t-94 33q-79 0 -127.5 -57t-48.5 -156v-218h-89v497z" />
    <glyph glyph-name="Omacron" unicode="&#x14c;" horiz-adv-x="781" 
d="M98 539.5q40 82.5 115.5 129.5t177.5 47t177 -47t115 -129.5t40 -186.5t-40 -186.5t-115 -130t-177 -47.5t-177.5 47.5t-115.5 130t-40 186.5t40 186.5zM211.5 146q61.5 -78 179.5 -78t179.5 78t61.5 207t-61.5 206.5t-179.5 77.5t-179.5 -77.5t-61.5 -206.5t61.5 -207z
M558 895v-71l-332 -1v72h332z" />
    <glyph glyph-name="omacron" unicode="&#x14d;" horiz-adv-x="627" 
d="M83 381q33 59 93 92.5t138 33.5q77 0 137 -33.5t93 -92.5t33 -132q0 -74 -33 -133t-92.5 -92.5t-137.5 -33.5t-138 33.5t-93 92.5t-33 133q0 73 33 132zM184.5 118q46.5 -52 129.5 -52q82 0 128.5 52t46.5 131q0 51 -20.5 92.5t-60 65.5t-94.5 24t-95 -24t-60.5 -65.5
t-20.5 -92.5q0 -79 46.5 -131zM480 687v-71l-332 -1v72h332z" />
    <glyph glyph-name="Ohungarumlaut" unicode="&#x150;" horiz-adv-x="781" 
d="M98 539.5q40 82.5 115.5 129.5t177.5 47t177 -47t115 -129.5t40 -186.5t-40 -186.5t-115 -130t-177 -47.5t-177.5 47.5t-115.5 130t-40 186.5t40 186.5zM211.5 146q61.5 -78 179.5 -78t179.5 78t61.5 207t-61.5 206.5t-179.5 77.5t-179.5 -77.5t-61.5 -206.5t61.5 -207z
M526 959l50 -49l-148 -140l-49 48zM354 959l50 -49l-148 -140l-50 48z" />
    <glyph glyph-name="ohungarumlaut" unicode="&#x151;" horiz-adv-x="627" 
d="M83 381q33 59 93 92.5t138 33.5q77 0 137 -33.5t93 -92.5t33 -132q0 -74 -33 -133t-92.5 -92.5t-137.5 -33.5t-138 33.5t-93 92.5t-33 133q0 73 33 132zM184.5 118q46.5 -52 129.5 -52q82 0 128.5 52t46.5 131q0 51 -20.5 92.5t-60 65.5t-94.5 24t-95 -24t-60.5 -65.5
t-20.5 -92.5q0 -79 46.5 -131zM449 751l50 -49l-148 -140l-49 48zM277 751l50 -49l-148 -140l-50 48z" />
    <glyph glyph-name="OE" unicode="&#x152;" horiz-adv-x="1176" 
d="M98 539.5q40 82.5 115.5 129.5t177.5 47q76 0 137.5 -27t105.5 -76v92h490v-78h-399v-236h349v-76h-349v-237h399v-78h-490v92q-44 -49 -105.5 -76t-137.5 -27q-102 0 -177.5 47.5t-115.5 130t-40 186.5t40 186.5zM211.5 146q61.5 -78 179.5 -78t179.5 78t61.5 207
t-61.5 206.5t-179.5 77.5t-179.5 -77.5t-61.5 -206.5t61.5 -207z" />
    <glyph glyph-name="oe" unicode="&#x153;" horiz-adv-x="1025" 
d="M83 381q33 59 93 92.5t138 33.5q70 0 125.5 -27.5t90.5 -75.5q30 50 81.5 76.5t119.5 26.5q112 0 177.5 -64.5t65.5 -178.5v-32h-395q2 -76 42.5 -123.5t114.5 -47.5q62 0 100.5 30t51.5 83h88q-17 -79 -75 -131.5t-164 -52.5q-71 0 -122.5 28.5t-81.5 79.5
q-35 -51 -91.5 -79.5t-127.5 -28.5q-78 0 -138 33.5t-93 92.5t-33 133q0 73 33 132zM184.5 118q46.5 -52 129.5 -52q82 0 128.5 52t46.5 131q0 51 -20.5 92.5t-60 65.5t-94.5 24t-95 -24t-60.5 -65.5t-20.5 -92.5q0 -79 46.5 -131zM887 295q-4 67 -46.5 104.5t-109.5 37.5
q-63 0 -104.5 -38t-46.5 -104h307z" />
    <glyph glyph-name="Racute" unicode="&#x154;" horiz-adv-x="676" 
d="M72 705h261q135 0 205 -41t70 -148q0 -78 -36.5 -116t-104.5 -50v-25h77q65 0 65 -69v-256h-90v279h-356v-279h-91v705zM333 357q63 0 102.5 10.5t61 41t21.5 87.5q0 58 -21.5 86t-59.5 36.5t-104 8.5h-170v-270h170zM152 852l314 80l17 -68l-314 -80z" />
    <glyph glyph-name="racute" unicode="&#x155;" horiz-adv-x="448" 
d="M144 497h281v-76h-262v-421h-89v428q0 69 70 69zM89 644l314 80l17 -68l-314 -80z" />
    <glyph glyph-name="uni0156" unicode="&#x156;" horiz-adv-x="676" 
d="M72 705h261q135 0 205 -41t70 -148q0 -78 -36.5 -116t-104.5 -50v-25h77q65 0 65 -69v-256h-90v279h-356v-279h-91v705zM333 357q63 0 102.5 10.5t61 41t21.5 87.5q0 58 -21.5 86t-59.5 36.5t-104 8.5h-170v-270h170zM382 -71l-54 -165l-76 21l54 166z" />
    <glyph glyph-name="uni0157" unicode="&#x157;" horiz-adv-x="444" 
d="M141 497h281v-76h-262v-421h-89v428q0 69 70 69zM148 -71l-54 -165l-76 21l54 166z" />
    <glyph glyph-name="Rcaron" unicode="&#x158;" horiz-adv-x="676" 
d="M72 705h261q135 0 205 -41t70 -148q0 -78 -36.5 -116t-104.5 -50v-25h77q65 0 65 -69v-256h-90v279h-356v-279h-91v705zM333 357q63 0 102.5 10.5t61 41t21.5 87.5q0 58 -21.5 86t-59.5 36.5t-104 8.5h-170v-270h170zM205 951l116 -94l115 94l51 -49l-166 -133l-167 133z
" />
    <glyph glyph-name="rcaron" unicode="&#x159;" horiz-adv-x="449" 
d="M143 497h281v-76h-262v-421h-89v428q0 69 70 69zM141 743l116 -94l115 94l51 -49l-166 -133l-167 133z" />
    <glyph glyph-name="Sacute" unicode="&#x15a;" horiz-adv-x="682" 
d="M572.5 40q-67.5 -51 -205.5 -51q-159 0 -241.5 71t-82.5 205h92q0 -101 58.5 -150t175.5 -49q91 0 135 29t44 88q0 88 -118 118l-197 51q-157 41 -157 177q0 91 64 139t186 48q142 0 217.5 -64.5t75.5 -179.5h-93q0 168 -200 168q-158 0 -158 -107q0 -80 107 -108
l195 -49q85 -22 127.5 -69.5t42.5 -118.5q0 -97 -67.5 -148zM174 852l314 80l17 -68l-314 -80z" />
    <glyph glyph-name="sacute" unicode="&#x15b;" horiz-adv-x="506" 
d="M103.5 40.5q-61.5 50.5 -61.5 142.5h89q0 -61 38 -92t108 -31q53 0 79.5 17.5t26.5 55.5q0 26 -17 42t-56 26l-133 39q-50 14 -82.5 45.5t-32.5 85.5q0 65 50.5 100.5t139.5 35.5q97 0 152.5 -43.5t55.5 -123.5h-89q0 49 -30 73.5t-88 24.5q-49 0 -76 -17t-27 -49
q0 -24 17 -39.5t54 -26.5l116 -33q66 -19 100.5 -53t34.5 -89q0 -68 -50.5 -104.5t-145.5 -36.5q-111 0 -172.5 50.5zM89 644l314 80l17 -68l-314 -80z" />
    <glyph glyph-name="Scircumflex" unicode="&#x15c;" horiz-adv-x="682" 
d="M572.5 40q-67.5 -51 -205.5 -51q-159 0 -241.5 71t-82.5 205h92q0 -101 58.5 -150t175.5 -49q91 0 135 29t44 88q0 88 -118 118l-197 51q-157 41 -157 177q0 91 64 139t186 48q142 0 217.5 -64.5t75.5 -179.5h-93q0 168 -200 168q-158 0 -158 -107q0 -80 107 -108
l195 -49q85 -22 127.5 -69.5t42.5 -118.5q0 -97 -67.5 -148zM457 767l-115 94l-116 -94l-51 50l167 133l166 -133z" />
    <glyph glyph-name="scircumflex" unicode="&#x15d;" horiz-adv-x="506" 
d="M103.5 40.5q-61.5 50.5 -61.5 142.5h89q0 -61 38 -92t108 -31q53 0 79.5 17.5t26.5 55.5q0 26 -17 42t-56 26l-133 39q-50 14 -82.5 45.5t-32.5 85.5q0 65 50.5 100.5t139.5 35.5q97 0 152.5 -43.5t55.5 -123.5h-89q0 49 -30 73.5t-88 24.5q-49 0 -76 -17t-27 -49
q0 -24 17 -39.5t54 -26.5l116 -33q66 -19 100.5 -53t34.5 -89q0 -68 -50.5 -104.5t-145.5 -36.5q-111 0 -172.5 50.5zM373 559l-115 94l-116 -94l-51 50l167 133l166 -133z" />
    <glyph glyph-name="Scedilla" unicode="&#x15e;" horiz-adv-x="682" 
d="M573.5 41q-66.5 -51 -203.5 -52l-45 -46q36 15 69 15q28 0 47.5 -13.5t19.5 -42.5q0 -38 -26 -57.5t-71 -25.5t-118 -6v64q59 0 85.5 1.5t42.5 8t16 21.5q0 10 -6 15t-17 5q-15 0 -30 -5t-40 -21l-37 45l36 46q-125 15 -189 84.5t-64 187.5h92q0 -101 58.5 -150
t175.5 -49q91 0 135 29t44 88q0 88 -118 118l-197 51q-157 41 -157 177q0 91 64 139t186 48q142 0 217.5 -64.5t75.5 -179.5h-93q0 168 -200 168q-158 0 -158 -107q0 -80 107 -108l195 -49q85 -22 127.5 -69.5t42.5 -118.5q0 -96 -66.5 -147z" />
    <glyph glyph-name="scedilla" unicode="&#x15f;" horiz-adv-x="506" 
d="M246.5 -121.5q26.5 1.5 42.5 8t16 21.5q0 10 -6 15t-17 5q-15 0 -30 -5t-40 -21l-37 45l38 48q-82 14 -126.5 62t-44.5 126h89q0 -61 38 -92t108 -31q53 0 79.5 17.5t26.5 55.5q0 26 -17 42t-56 26l-133 39q-50 14 -82.5 45.5t-32.5 85.5q0 65 50.5 100.5t139.5 35.5
q97 0 152.5 -43.5t55.5 -123.5h-89q0 49 -30 73.5t-88 24.5q-49 0 -76 -17t-27 -49q0 -24 17 -39.5t54 -26.5l116 -33q66 -19 100.5 -53t34.5 -89q0 -66 -47.5 -102.5t-138.5 -38.5l-46 -47q36 15 69 15q28 0 47.5 -13.5t19.5 -42.5q0 -38 -26 -57.5t-71 -25.5t-118 -6v64
q59 0 85.5 1.5z" />
    <glyph glyph-name="Scaron" unicode="&#x160;" horiz-adv-x="682" 
d="M572.5 40q-67.5 -51 -205.5 -51q-159 0 -241.5 71t-82.5 205h92q0 -101 58.5 -150t175.5 -49q91 0 135 29t44 88q0 88 -118 118l-197 51q-157 41 -157 177q0 91 64 139t186 48q142 0 217.5 -64.5t75.5 -179.5h-93q0 168 -200 168q-158 0 -158 -107q0 -80 107 -108
l195 -49q85 -22 127.5 -69.5t42.5 -118.5q0 -97 -67.5 -148zM226 951l116 -94l115 94l51 -49l-166 -133l-167 133z" />
    <glyph glyph-name="scaron" unicode="&#x161;" horiz-adv-x="506" 
d="M103.5 40.5q-61.5 50.5 -61.5 142.5h89q0 -61 38 -92t108 -31q53 0 79.5 17.5t26.5 55.5q0 26 -17 42t-56 26l-133 39q-50 14 -82.5 45.5t-32.5 85.5q0 65 50.5 100.5t139.5 35.5q97 0 152.5 -43.5t55.5 -123.5h-89q0 49 -30 73.5t-88 24.5q-49 0 -76 -17t-27 -49
q0 -24 17 -39.5t54 -26.5l116 -33q66 -19 100.5 -53t34.5 -89q0 -68 -50.5 -104.5t-145.5 -36.5q-111 0 -172.5 50.5zM142 743l116 -94l115 94l51 -49l-166 -133l-167 133z" />
    <glyph glyph-name="uni0162" unicode="&#x162;" horiz-adv-x="660" 
d="M618 705v-78h-242v-627h-91v627h-243v78h576zM319.5 -121.5q26.5 1.5 42.5 8t16 21.5q0 10 -6 15t-17 5q-15 0 -30 -5t-40 -21l-37 45l42 53h79l-56 -57q36 15 69 15q28 0 47.5 -13.5t19.5 -42.5q0 -38 -26 -57.5t-71 -25.5t-118 -6v64q59 0 85.5 1.5z" />
    <glyph glyph-name="uni0163" unicode="&#x163;" horiz-adv-x="439" 
d="M397 0h-195q-35 0 -52.5 17t-17.5 53v351h-110v76h110v126l89 27v-153h156v-76h-156v-346l176 1v-76zM258.5 -121.5q26.5 1.5 42.5 8t16 21.5q0 10 -6 15t-17 5q-15 0 -30 -5t-40 -21l-37 45l42 53h79l-56 -57q36 15 69 15q28 0 47.5 -13.5t19.5 -42.5q0 -38 -26 -57.5
t-71 -25.5t-118 -6v64q59 0 85.5 1.5z" />
    <glyph glyph-name="Tcaron" unicode="&#x164;" horiz-adv-x="660" 
d="M618 705v-78h-242v-627h-91v627h-243v78h576zM215 951l116 -94l115 94l51 -49l-166 -133l-167 133z" />
    <glyph glyph-name="tcaron" unicode="&#x165;" horiz-adv-x="440" 
d="M397 0h-195q-35 0 -52.5 17t-17.5 53v351h-110v76h110v126l89 27v-153h156v-76h-156v-346l176 1v-76zM394 735v-180h-79v180h79z" />
    <glyph glyph-name="Tbar" unicode="&#x166;" horiz-adv-x="660" 
d="M618 705v-78h-242v-239h131v-72h-131v-316h-91v316h-131v72h131v239h-243v78h576z" />
    <glyph glyph-name="tbar" unicode="&#x167;" horiz-adv-x="439" 
d="M397 0h-195q-35 0 -52.5 17t-17.5 53v183h-90v67h90v101h-110v76h110v126l89 27v-153h156v-76h-156v-101h127v-67h-127v-178l176 1v-76z" />
    <glyph glyph-name="Utilde" unicode="&#x168;" horiz-adv-x="674" 
d="M53 705h91v-424q0 -110 42.5 -161.5t149.5 -51.5t150.5 51.5t43.5 161.5v424h91v-443q0 -134 -70.5 -203.5t-214.5 -69.5q-283 0 -283 273v443zM179.5 904.5q28.5 34.5 77.5 34.5q33 0 55 -13t47 -37q18 -16 28.5 -23t22.5 -7q19 0 30 14.5t11 55.5h71
q0 -72 -28.5 -106.5t-77.5 -34.5q-33 0 -55 13t-47 37q-16 15 -27.5 22.5t-23.5 7.5q-19 0 -29.5 -14.5t-10.5 -55.5h-72q0 72 28.5 106.5z" />
    <glyph glyph-name="utilde" unicode="&#x169;" horiz-adv-x="607" 
d="M110 42q-50 52 -50 154v301h89v-289q0 -76 29.5 -109t94.5 -33q79 0 127.5 57t48.5 157v217h88v-497h-88v84l14 59h-24q-16 -70 -64.5 -111.5t-126.5 -41.5q-88 0 -138 52zM149.5 696.5q28.5 34.5 77.5 34.5q33 0 55 -13t47 -37q18 -16 28.5 -23t22.5 -7q19 0 30 14.5
t11 55.5h71q0 -72 -28.5 -106.5t-77.5 -34.5q-33 0 -55 13t-47 37q-16 15 -27.5 22.5t-23.5 7.5q-19 0 -29.5 -14.5t-10.5 -55.5h-72q0 72 28.5 106.5z" />
    <glyph glyph-name="Umacron" unicode="&#x16a;" horiz-adv-x="674" 
d="M53 705h91v-424q0 -110 42.5 -161.5t149.5 -51.5t150.5 51.5t43.5 161.5v424h91v-443q0 -134 -70.5 -203.5t-214.5 -69.5q-283 0 -283 273v443zM502 895v-71l-332 -1v72h332z" />
    <glyph glyph-name="umacron" unicode="&#x16b;" horiz-adv-x="607" 
d="M110 42q-50 52 -50 154v301h89v-289q0 -76 29.5 -109t94.5 -33q79 0 127.5 57t48.5 157v217h88v-497h-88v84l14 59h-24q-16 -70 -64.5 -111.5t-126.5 -41.5q-88 0 -138 52zM473 687v-71l-332 -1v72h332z" />
    <glyph glyph-name="Ubreve" unicode="&#x16c;" horiz-adv-x="674" 
d="M53 705h91v-424q0 -110 42.5 -161.5t149.5 -51.5t150.5 51.5t43.5 161.5v424h91v-443q0 -134 -70.5 -203.5t-214.5 -69.5q-283 0 -283 273v443zM219.5 818.5q-42.5 48.5 -42.5 126.5h72q0 -56 20.5 -81t66.5 -25t66.5 25t20.5 81h72q0 -78 -42.5 -126.5t-116.5 -48.5
t-116.5 48.5z" />
    <glyph glyph-name="ubreve" unicode="&#x16d;" horiz-adv-x="607" 
d="M110 42q-50 52 -50 154v301h89v-289q0 -76 29.5 -109t94.5 -33q79 0 127.5 57t48.5 157v217h88v-497h-88v84l14 59h-24q-16 -70 -64.5 -111.5t-126.5 -41.5q-88 0 -138 52zM189.5 610.5q-42.5 48.5 -42.5 126.5h72q0 -56 20.5 -81t66.5 -25t66.5 25t20.5 81h72
q0 -78 -42.5 -126.5t-116.5 -48.5t-116.5 48.5z" />
    <glyph glyph-name="Uring" unicode="&#x16e;" horiz-adv-x="674" 
d="M53 705h91v-424q0 -110 42.5 -161.5t149.5 -51.5t150.5 51.5t43.5 161.5v424h91v-443q0 -134 -70.5 -203.5t-214.5 -69.5q-283 0 -283 273v443zM246.5 798.5q-32.5 31.5 -32.5 78.5q0 46 32.5 77.5t88.5 31.5q57 0 90 -31.5t33 -77.5t-33.5 -78t-89.5 -32t-88.5 31.5z
M296.5 842.5q13.5 -12.5 38.5 -12.5q26 0 40 12.5t14 34.5q0 21 -14.5 33t-39.5 12t-38.5 -12t-13.5 -33q0 -22 13.5 -34.5z" />
    <glyph glyph-name="uring" unicode="&#x16f;" horiz-adv-x="607" 
d="M110 42q-50 52 -50 154v301h89v-289q0 -76 29.5 -109t94.5 -33q79 0 127.5 57t48.5 157v217h88v-497h-88v84l14 59h-24q-16 -70 -64.5 -111.5t-126.5 -41.5q-88 0 -138 52zM216.5 590.5q-32.5 31.5 -32.5 78.5q0 46 32.5 77.5t88.5 31.5q57 0 90 -31.5t33 -77.5
t-33.5 -78t-89.5 -32t-88.5 31.5zM266.5 634.5q13.5 -12.5 38.5 -12.5q26 0 40 12.5t14 34.5q0 21 -14.5 33t-39.5 12t-38.5 -12t-13.5 -33q0 -22 13.5 -34.5z" />
    <glyph glyph-name="Uhungarumlaut" unicode="&#x170;" horiz-adv-x="674" 
d="M53 705h91v-424q0 -110 42.5 -161.5t149.5 -51.5t150.5 51.5t43.5 161.5v424h91v-443q0 -134 -70.5 -203.5t-214.5 -69.5q-283 0 -283 273v443zM471 959l50 -49l-148 -140l-49 48zM299 959l50 -49l-148 -140l-50 48z" />
    <glyph glyph-name="uhungarumlaut" unicode="&#x171;" horiz-adv-x="607" 
d="M110 42q-50 52 -50 154v301h89v-289q0 -76 29.5 -109t94.5 -33q79 0 127.5 57t48.5 157v217h88v-497h-88v84l14 59h-24q-16 -70 -64.5 -111.5t-126.5 -41.5q-88 0 -138 52zM441 751l50 -49l-148 -140l-49 48zM269 751l50 -49l-148 -140l-50 48z" />
    <glyph glyph-name="Uogonek" unicode="&#x172;" horiz-adv-x="674" 
d="M53 705h91v-424q0 -110 42.5 -161.5t149.5 -51.5t150.5 51.5t43.5 161.5v424h91v-443q0 -222 -189 -263l-61 -121l181 1v-72h-196q-30 0 -47.5 14t-17.5 37q0 16 11 36l51 95h-17q-283 0 -283 273v443z" />
    <glyph glyph-name="uogonek" unicode="&#x173;" horiz-adv-x="607" 
d="M110 42q-50 52 -50 154v301h89v-289q0 -76 29.5 -109t94.5 -33q79 0 127.5 57t48.5 157v217h88l-1 -497l-61 -122l181 1v-72h-196q-30 0 -47.5 14t-17.5 37q0 16 11 36l56 106h-13v84l14 59h-24q-16 -70 -64.5 -111.5t-126.5 -41.5q-88 0 -138 52z" />
    <glyph glyph-name="Wcircumflex" unicode="&#x174;" horiz-adv-x="920" 
d="M770 0h-176l-121 680h-25l-118 -680h-178l-130 705h90l116 -605l-6 -75h26l120 680h186l119 -680h26l-4 75l113 605h90zM575 767l-115 94l-116 -94l-51 50l167 133l166 -133z" />
    <glyph glyph-name="wcircumflex" unicode="&#x175;" horiz-adv-x="878" 
d="M119 497l109 -403l-1 -69h23l98 472h182l97 -472h24l-2 69l108 403h85l-132 -497h-163l-96 473h-25l-96 -473h-166l-129 497h84zM554 559l-115 94l-116 -94l-51 50l167 133l166 -133z" />
    <glyph glyph-name="Ycircumflex" unicode="&#x176;" horiz-adv-x="665" 
d="M634 705l-210 -408h-47v-297h-90v297h-47l-209 408h96l192 -384h26l192 384h97zM447 767l-115 94l-116 -94l-51 50l167 133l166 -133z" />
    <glyph glyph-name="ycircumflex" unicode="&#x177;" horiz-adv-x="601" 
d="M541 -133q0 -61 -69 -61h-380v76h360v201l15 60h-25q-16 -70 -64.5 -111.5t-126.5 -41.5q-87 0 -137 52t-50 154v301h88v-289q0 -76 30 -109t94 -33q79 0 127.5 57t48.5 156v218h89v-630zM423 559l-115 94l-116 -94l-51 50l167 133l166 -133z" />
    <glyph glyph-name="Ydieresis" unicode="&#x178;" horiz-adv-x="665" 
d="M634 705l-210 -408h-47v-297h-90v297h-47l-209 408h96l192 -384h26l192 384h97zM176.5 803q-20.5 20 -20.5 50t20.5 50t51.5 20q32 0 53 -20t21 -50t-21 -50t-53 -20q-31 0 -51.5 20zM383 903q21 20 52 20t52.5 -20t21.5 -50t-21.5 -50t-52.5 -20t-52 20t-21 50t21 50z
" />
    <glyph glyph-name="Zacute" unicode="&#x179;" horiz-adv-x="655" 
d="M53 174l524 443v25l-60 -15h-464v78h550v-174l-525 -443v-25l60 15h465v-78h-550v174zM160 852l314 80l17 -68l-314 -80z" />
    <glyph glyph-name="zacute" unicode="&#x17a;" horiz-adv-x="535" 
d="M51 155l408 266v24l-88 -21h-320v73h433v-153l-408 -267v-25l88 22h320v-74h-433v155zM100 644l314 80l17 -68l-314 -80z" />
    <glyph glyph-name="Zdotaccent" unicode="&#x17b;" horiz-adv-x="655" 
d="M53 174l524 443v25l-60 -15h-464v78h550v-174l-525 -443v-25l60 15h465v-78h-550v174zM276 809q-20 19 -20 48t20 48t50 19t51 -19t21 -48t-21 -48t-51 -19t-50 19z" />
    <glyph glyph-name="zdotaccent" unicode="&#x17c;" horiz-adv-x="535" 
d="M51 155l408 266v24l-88 -21h-320v73h433v-153l-408 -267v-25l88 22h320v-74h-433v155zM216 601q-20 19 -20 48t20 48t50 19t51 -19t21 -48t-21 -48t-51 -19t-50 19z" />
    <glyph glyph-name="Zcaron" unicode="&#x17d;" horiz-adv-x="655" 
d="M53 174l524 443v25l-60 -15h-464v78h550v-174l-525 -443v-25l60 15h465v-78h-550v174zM212 951l116 -94l115 94l51 -49l-166 -133l-167 133z" />
    <glyph glyph-name="zcaron" unicode="&#x17e;" horiz-adv-x="535" 
d="M51 155l408 266v24l-88 -21h-320v73h433v-153l-408 -267v-25l88 22h320v-74h-433v155zM152 743l116 -94l115 94l51 -49l-166 -133l-167 133z" />
    <glyph glyph-name="uni018F" unicode="&#x18f;" horiz-adv-x="766" 
d="M213.5 36q-74.5 40 -115 116t-40.5 180v44h559q-5 119 -67 189.5t-181 70.5q-86 0 -142.5 -46.5t-76.5 -127.5h-90q25 108 101 179t208 71q111 0 187.5 -47.5t114 -130.5t37.5 -188q0 -110 -39.5 -188.5t-112 -120t-170.5 -41.5t-172.5 40zM217 134q64 -62 169 -62
q100 0 163.5 62.5t67.5 172.5h-465q1 -111 65 -173z" />
    <glyph glyph-name="uni0218" unicode="&#x218;" horiz-adv-x="682" 
d="M572.5 40q-67.5 -51 -205.5 -51q-159 0 -241.5 71t-82.5 205h92q0 -101 58.5 -150t175.5 -49q91 0 135 29t44 88q0 88 -118 118l-197 51q-157 41 -157 177q0 91 64 139t186 48q142 0 217.5 -64.5t75.5 -179.5h-93q0 168 -200 168q-158 0 -158 -107q0 -80 107 -108
l195 -49q85 -22 127.5 -69.5t42.5 -118.5q0 -97 -67.5 -148zM374 -71l-54 -165l-76 21l54 166z" />
    <glyph glyph-name="uni0219" unicode="&#x219;" horiz-adv-x="506" 
d="M103.5 40.5q-61.5 50.5 -61.5 142.5h89q0 -61 38 -92t108 -31q53 0 79.5 17.5t26.5 55.5q0 26 -17 42t-56 26l-133 39q-50 14 -82.5 45.5t-32.5 85.5q0 65 50.5 100.5t139.5 35.5q97 0 152.5 -43.5t55.5 -123.5h-89q0 49 -30 73.5t-88 24.5q-49 0 -76 -17t-27 -49
q0 -24 17 -39.5t54 -26.5l116 -33q66 -19 100.5 -53t34.5 -89q0 -68 -50.5 -104.5t-145.5 -36.5q-111 0 -172.5 50.5zM289 -71l-54 -165l-76 21l54 166z" />
    <glyph glyph-name="uni021A" unicode="&#x21a;" horiz-adv-x="660" 
d="M618 705v-78h-242v-627h-91v627h-243v78h576zM362 -71l-54 -165l-76 21l54 166z" />
    <glyph glyph-name="uni021B" unicode="&#x21b;" horiz-adv-x="439" 
d="M397 0h-195q-35 0 -52.5 17t-17.5 53v351h-110v76h110v126l89 27v-153h156v-76h-156v-346l176 1v-76zM302 -71l-54 -165l-76 21l54 166z" />
    <glyph glyph-name="uni0237" unicode="&#x237;" horiz-adv-x="302" 
d="M138.5 8.5q3.5 16.5 3.5 42.5v370h-105v76h130q31 0 47 -13.5t16 -43.5v-405q0 -25 -4 -41t-15 -38l-76 -146h-96l84 161q12 21 15.5 37.5z" />
    <glyph glyph-name="uni0259" unicode="&#x259;" horiz-adv-x="582" 
d="M124 454.5q58 52.5 164 52.5q78 0 133 -35t83 -95t28 -135q0 -119 -65 -185.5t-173 -66.5q-112 0 -177.5 64.5t-65.5 178.5v32h395q-2 76 -42.5 123.5t-114.5 47.5q-62 0 -100.5 -30t-51.5 -83h-88q17 79 75 131.5zM184.5 97.5q42.5 -37.5 109.5 -37.5q63 0 104.5 38
t46.5 104h-307q4 -67 46.5 -104.5z" />
    <glyph glyph-name="circumflex" unicode="&#x2c6;" horiz-adv-x="498" 
d="M364 559l-115 94l-116 -94l-51 50l167 133l166 -133z" />
    <glyph glyph-name="caron" unicode="&#x2c7;" horiz-adv-x="498" 
d="M133 743l116 -94l115 94l51 -49l-166 -133l-167 133z" />
    <glyph glyph-name="breve" unicode="&#x2d8;" horiz-adv-x="482" 
d="M124.5 610.5q-42.5 48.5 -42.5 126.5h72q0 -56 20.5 -81t66.5 -25t66.5 25t20.5 81h72q0 -78 -42.5 -126.5t-116.5 -48.5t-116.5 48.5z" />
    <glyph glyph-name="dotaccent" unicode="&#x2d9;" horiz-adv-x="315" 
d="M104 601q-20 19 -20 48t20 48t50 19t51 -19t21 -48t-21 -48t-51 -19t-50 19z" />
    <glyph glyph-name="ring" unicode="&#x2da;" horiz-adv-x="380" 
d="M114.5 590.5q-32.5 31.5 -32.5 78.5q0 46 32.5 77.5t88.5 31.5q57 0 90 -31.5t33 -77.5t-33.5 -78t-89.5 -32t-88.5 31.5zM164.5 634.5q13.5 -12.5 38.5 -12.5q26 0 40 12.5t14 34.5q0 21 -14.5 33t-39.5 12t-38.5 -12t-13.5 -33q0 -22 13.5 -34.5z" />
    <glyph glyph-name="ogonek" unicode="&#x2db;" horiz-adv-x="427" 
d="M345 -193h-196q-30 0 -47.5 14t-17.5 37q0 16 11 36l57 107h74l-62 -123l181 1v-72z" />
    <glyph glyph-name="tilde" unicode="&#x2dc;" horiz-adv-x="535" 
d="M110.5 696.5q28.5 34.5 77.5 34.5q33 0 55 -13t47 -37q18 -16 28.5 -23t22.5 -7q19 0 30 14.5t11 55.5h71q0 -72 -28.5 -106.5t-77.5 -34.5q-33 0 -55 13t-47 37q-16 15 -27.5 22.5t-23.5 7.5q-19 0 -29.5 -14.5t-10.5 -55.5h-72q0 72 28.5 106.5z" />
    <glyph glyph-name="hungarumlaut" unicode="&#x2dd;" horiz-adv-x="534" 
d="M402 751l50 -49l-148 -140l-49 48zM230 751l50 -49l-148 -140l-50 48z" />
    <glyph glyph-name="gravecomb" unicode="&#x300;" 
d="M396 576l-314 80l17 68l314 -80z" />
    <glyph glyph-name="acutecomb" unicode="&#x301;" 
d="M82 644l314 80l17 -68l-314 -80z" />
    <glyph glyph-name="uni0302" unicode="&#x302;" 
d="M364 559l-115 94l-116 -94l-51 50l167 133l166 -133z" />
    <glyph glyph-name="tildecomb" unicode="&#x303;" 
d="M110.5 696.5q28.5 34.5 77.5 34.5q33 0 55 -13t47 -37q18 -16 28.5 -23t22.5 -7q19 0 30 14.5t11 55.5h71q0 -72 -28.5 -106.5t-77.5 -34.5q-33 0 -55 13t-47 37q-16 15 -27.5 22.5t-23.5 7.5q-19 0 -29.5 -14.5t-10.5 -55.5h-72q0 72 28.5 106.5z" />
    <glyph glyph-name="uni0304" unicode="&#x304;" 
d="M414 687v-71l-332 -1v72h332z" />
    <glyph glyph-name="uni0306" unicode="&#x306;" 
d="M124.5 610.5q-42.5 48.5 -42.5 126.5h72q0 -56 20.5 -81t66.5 -25t66.5 25t20.5 81h72q0 -78 -42.5 -126.5t-116.5 -48.5t-116.5 48.5z" />
    <glyph glyph-name="uni0307" unicode="&#x307;" 
d="M104 601q-20 19 -20 48t20 48t50 19t51 -19t21 -48t-21 -48t-51 -19t-50 19z" />
    <glyph glyph-name="uni0308" unicode="&#x308;" 
d="M102.5 595q-20.5 20 -20.5 50t20.5 50t51.5 20q32 0 53 -20t21 -50t-21 -50t-53 -20q-31 0 -51.5 20zM309 695q21 20 52 20t52.5 -20t21.5 -50t-21.5 -50t-52.5 -20t-52 20t-21 50t21 50z" />
    <glyph glyph-name="uni030A" unicode="&#x30a;" 
d="M114.5 590.5q-32.5 31.5 -32.5 78.5q0 46 32.5 77.5t88.5 31.5q57 0 90 -31.5t33 -77.5t-33.5 -78t-89.5 -32t-88.5 31.5zM164.5 634.5q13.5 -12.5 38.5 -12.5q26 0 40 12.5t14 34.5q0 21 -14.5 33t-39.5 12t-38.5 -12t-13.5 -33q0 -22 13.5 -34.5z" />
    <glyph glyph-name="uni030B" unicode="&#x30b;" 
d="M402 751l50 -49l-148 -140l-49 48zM230 751l50 -49l-148 -140l-50 48z" />
    <glyph glyph-name="uni030C" unicode="&#x30c;" 
d="M133 743l116 -94l115 94l51 -49l-166 -133l-167 133z" />
    <glyph glyph-name="uni0312" unicode="&#x312;" 
d="M212 758l-53 -184l-77 20l53 185z" />
    <glyph glyph-name="uni0326" unicode="&#x326;" 
d="M192 -71l-54 -165l-76 21l54 166z" />
    <glyph glyph-name="uni0327" unicode="&#x327;" 
d="M167.5 -121.5q26.5 1.5 42.5 8t16 21.5q0 10 -6 15t-17 5q-15 0 -30 -5t-40 -21l-37 45l42 53h79l-56 -57q36 15 69 15q28 0 47.5 -13.5t19.5 -42.5q0 -38 -26 -57.5t-71 -25.5t-118 -6v64q59 0 85.5 1.5z" />
    <glyph glyph-name="uni0328" unicode="&#x328;" 
d="M345 -193h-196q-30 0 -47.5 14t-17.5 37q0 16 11 36l57 107h74l-62 -123l181 1v-72z" />
    <glyph glyph-name="uni0335" unicode="&#x335;" 
d="M340 678v-72h-288v72h288z" />
    <glyph glyph-name="uni0337" unicode="&#x337;" 
d="M387 446l18 -69l-341 -92l-17 68z" />
    <glyph glyph-name="uni0338" unicode="&#x338;" 
d="M652 732l-460 -794l-56 34l458 794z" />
    <glyph glyph-name="uni0400" unicode="&#x400;" horiz-adv-x="614" 
d="M72 705h490v-78h-399v-236h349v-76h-349v-237h399v-78h-490v705zM445 784l-314 80l17 68l314 -80z" />
    <glyph glyph-name="uni0401" unicode="&#x401;" horiz-adv-x="614" 
d="M72 705h490v-78h-399v-236h349v-76h-349v-237h399v-78h-490v705zM139.5 803q-20.5 20 -20.5 50t20.5 50t51.5 20q32 0 53 -20t21 -50t-21 -50t-53 -20q-31 0 -51.5 20zM346 903q21 20 52 20t52.5 -20t21.5 -50t-21.5 -50t-52.5 -20t-52 20t-21 50t21 50z" />
    <glyph glyph-name="uni0402" unicode="&#x402;" horiz-adv-x="847" 
d="M612 705v-78h-240v-179h181q130 0 187 -49.5t57 -164.5q0 -132 -74 -183t-199 -51v78q101 0 142 40t41 116q0 56 -18 85.5t-52.5 40t-93.5 10.5h-171v-370h-90v627h-240v78h570z" />
    <glyph glyph-name="uni0403" unicode="&#x403;" horiz-adv-x="547" 
d="M515 705v-78h-353v-627h-91v642q0 31 16.5 47t46.5 16h381zM106 852l314 80l17 -68l-314 -80z" />
    <glyph glyph-name="uni0404" unicode="&#x404;" horiz-adv-x="772" 
d="M213.5 36.5q-75.5 47.5 -115.5 130t-40 186.5t40 186.5t116 129.5t178 47q136 0 221 -75.5t101 -207.5h-91q-12 97 -71.5 150.5t-159.5 53.5q-108 0 -170.5 -67.5t-70.5 -181.5h295v-72h-295q9 -114 71 -181t170 -67q100 0 159.5 53.5t71.5 151.5h91
q-16 -133 -101 -208.5t-221 -75.5q-103 0 -178.5 47.5z" />
    <glyph glyph-name="uni0405" unicode="&#x405;" horiz-adv-x="682" 
d="M572.5 40q-67.5 -51 -205.5 -51q-159 0 -241.5 71t-82.5 205h92q0 -101 58.5 -150t175.5 -49q91 0 135 29t44 88q0 88 -118 118l-197 51q-157 41 -157 177q0 91 64 139t186 48q142 0 217.5 -64.5t75.5 -179.5h-93q0 168 -200 168q-158 0 -158 -107q0 -80 107 -108
l195 -49q85 -22 127.5 -69.5t42.5 -118.5q0 -97 -67.5 -148z" />
    <glyph glyph-name="uni0406" unicode="&#x406;" horiz-adv-x="528" 
d="M467 705v-78h-158v-549h158v-78h-406v78h158v549h-158v78h406z" />
    <glyph glyph-name="uni0407" unicode="&#x407;" horiz-adv-x="528" 
d="M467 705v-78h-158v-549h158v-78h-406v78h158v549h-158v78h406zM108.5 803q-20.5 20 -20.5 50t20.5 50t51.5 20q32 0 53 -20t21 -50t-21 -50t-53 -20q-31 0 -51.5 20zM315 903q21 20 52 20t52.5 -20t21.5 -50t-21.5 -50t-52.5 -20t-52 20t-21 50t21 50z" />
    <glyph glyph-name="uni0408" unicode="&#x408;" horiz-adv-x="543" 
d="M33 0v78h228q71 0 101 42.5t30 126.5v380h-258v78h279q38 0 53.5 -14.5t15.5 -50.5v-418q0 -108 -51.5 -165t-148.5 -57h-249z" />
    <glyph glyph-name="uni0409" unicode="&#x409;" horiz-adv-x="1092" 
d="M134.5 154.5q33.5 76.5 41.5 194.5t8 319v37h439v-265h147q134 0 203 -47t69 -171q0 -87 -33 -135.5t-92 -67.5t-147 -19h-238v627h-257q-1 -206 -16 -335.5t-68 -210.5t-160 -81v78q70 0 103.5 76.5zM774 76q91 0 134.5 31t43.5 115q0 82 -43.5 112t-134.5 30h-151v-288
h151z" />
    <glyph glyph-name="uni040A" unicode="&#x40a;" horiz-adv-x="1125" 
d="M163 705v-318h402v318h91v-265h147q134 0 203 -47t69 -171q0 -87 -33 -135.5t-92 -67.5t-147 -19h-238v308h-402v-308h-91v705h91zM807 76q91 0 134.5 31t43.5 115q0 82 -43.5 112t-134.5 30h-151v-288h151z" />
    <glyph glyph-name="uni040B" unicode="&#x40b;" horiz-adv-x="916" 
d="M754 368h-378v-368h-91v627h-243v78h576v-78h-242v-179h412q29 0 43 -13.5t14 -43.5v-391h-91v368z" />
    <glyph glyph-name="uni040C" unicode="&#x40c;" horiz-adv-x="668" 
d="M72 705h91v-308h55l218 270q16 19 34 29t42 10h121v-78h-121l-216 -269l333 -359h-118l-297 318h-51v-318h-91v705zM166 852l314 80l17 -68l-314 -80z" />
    <glyph glyph-name="uni040D" unicode="&#x40d;" horiz-adv-x="762" 
d="M600 0v617l15 63h-25l-336 -680h-182v705h91v-617l-16 -63h26l335 680h182v-705h-90zM532 784l-314 80l17 68l314 -80z" />
    <glyph glyph-name="uni040F" unicode="&#x40f;" horiz-adv-x="694" 
d="M72 705h91v-627h368v627h91v-705h-230v-133h-90v133h-230v705z" />
    <glyph glyph-name="uni0410" unicode="&#x410;" horiz-adv-x="698" 
d="M251 705h195l225 -705h-95l-85 270h-285l-85 -270h-94zM466 348l-105 332h-25l-105 -332h235z" />
    <glyph glyph-name="uni0411" unicode="&#x411;" horiz-adv-x="635" 
d="M531 627h-368v-187h147q134 0 203 -47t69 -171q0 -87 -33 -135.5t-92 -67.5t-147 -19h-238v705h459v-78zM314 76q91 0 134.5 31t43.5 115q0 82 -43.5 112t-134.5 30h-151v-288h151z" />
    <glyph glyph-name="uni0412" unicode="&#x412;" horiz-adv-x="691" 
d="M72 705h238q93 0 152 -15t90 -52.5t31 -104.5q0 -72 -41 -108.5t-102 -41.5v-24q195 -5 195 -171q0 -103 -72 -145.5t-211 -42.5h-280v705zM355 76q65 0 105 9.5t62 37t22 80.5q0 72 -47 100t-142 28h-192v-255h192zM314 403q61 0 99 8.5t59 33t21 72.5q0 51 -20.5 75.5
t-57 31.5t-101.5 7h-151v-228h151z" />
    <glyph glyph-name="uni0413" unicode="&#x413;" horiz-adv-x="547" 
d="M515 705v-78h-353v-627h-91v642q0 31 16.5 47t46.5 16h381z" />
    <glyph glyph-name="uni0414" unicode="&#x414;" horiz-adv-x="796" 
d="M654 78h43q31 0 47 -16.5t16 -46.5v-148h-90v133h-553v-133h-91v148q0 30 16 46.5t47 16.5h33q48 114 68.5 259t20.5 368h443v-627zM564 78v549h-263q-3 -187 -24 -316.5t-65 -232.5h352z" />
    <glyph glyph-name="uni0415" unicode="&#x415;" horiz-adv-x="614" 
d="M72 705h490v-78h-399v-236h349v-76h-349v-237h399v-78h-490v705z" />
    <glyph glyph-name="uni0416" unicode="&#x416;" horiz-adv-x="1020" 
d="M610 318h-55v-318h-90v318h-56l-260 -318h-114l296 362l-183 266h-121v78h124q49 0 76 -39l181 -270h57v308h90v-308h56l182 270q27 39 76 39h124v-78h-121l-182 -266l296 -362h-115z" />
    <glyph glyph-name="uni0417" unicode="&#x417;" horiz-adv-x="678" 
d="M195 113.5q49 -46.5 153 -46.5q180 0 180 142q0 124 -132 124h-98v75h98q62 0 92 25.5t30 79.5q0 125 -170 125q-100 0 -146 -40t-46 -125h-90q0 120 73.5 181.5t210.5 61.5q124 0 191 -51t67 -135q0 -65 -35.5 -100.5t-104.5 -46.5v-25q74 -14 112 -50t38 -113
q0 -97 -70.5 -151.5t-197.5 -54.5q-141 0 -217.5 68t-76.5 212h90q0 -109 49 -155.5z" />
    <glyph glyph-name="uni0418" unicode="&#x418;" horiz-adv-x="762" 
d="M600 0v617l15 63h-25l-336 -680h-182v705h91v-617l-16 -63h26l335 680h182v-705h-90z" />
    <glyph glyph-name="uni0419" unicode="&#x419;" horiz-adv-x="762" 
d="M600 0v617l15 63h-25l-336 -680h-182v705h91v-617l-16 -63h26l335 680h182v-705h-90zM264.5 818.5q-42.5 48.5 -42.5 126.5h72q0 -56 20.5 -81t66.5 -25t66.5 25t20.5 81h72q0 -78 -42.5 -126.5t-116.5 -48.5t-116.5 48.5z" />
    <glyph glyph-name="uni041A" unicode="&#x41a;" horiz-adv-x="668" 
d="M72 705h91v-308h55l218 270q16 19 34 29t42 10h121v-78h-121l-216 -269l333 -359h-118l-297 318h-51v-318h-91v705z" />
    <glyph glyph-name="uni041B" unicode="&#x41b;" horiz-adv-x="695" 
d="M134.5 154.5q33.5 76.5 41.5 194.5t8 319v37h439v-705h-91v627h-257q-1 -206 -16 -335.5t-68 -210.5t-160 -81v78q70 0 103.5 76.5z" />
    <glyph glyph-name="uni041C" unicode="&#x41c;" horiz-adv-x="907" 
d="M72 705h182l187 -680h26l187 680h181v-705h-91v593l15 87h-25l-190 -680h-182l-189 680h-26l16 -87v-593h-91v705z" />
    <glyph glyph-name="uni041D" unicode="&#x41d;" horiz-adv-x="732" 
d="M163 705v-318h402v318h91v-705h-91v308h-402v-308h-91v705h91z" />
    <glyph glyph-name="uni041E" unicode="&#x41e;" horiz-adv-x="781" 
d="M98 539.5q40 82.5 115.5 129.5t177.5 47t177 -47t115 -129.5t40 -186.5t-40 -186.5t-115 -130t-177 -47.5t-177.5 47.5t-115.5 130t-40 186.5t40 186.5zM211.5 146q61.5 -78 179.5 -78t179.5 78t61.5 207t-61.5 206.5t-179.5 77.5t-179.5 -77.5t-61.5 -206.5t61.5 -207z
" />
    <glyph glyph-name="uni041F" unicode="&#x41f;" horiz-adv-x="689" 
d="M617 705v-705h-91v627h-363v-627h-91v705h545z" />
    <glyph glyph-name="uni0420" unicode="&#x420;" horiz-adv-x="620" 
d="M72 705h205q149 0 221.5 -52t72.5 -181t-72.5 -181.5t-221.5 -52.5h-114v-238h-91v705zM280 316q65 0 108 12.5t68 46.5t25 97t-25 97t-68 46t-108 12h-117v-311h117z" />
    <glyph glyph-name="uni0421" unicode="&#x421;" horiz-adv-x="772" 
d="M213.5 36.5q-75.5 47.5 -115.5 130t-40 186.5t40 186.5t116 129.5t178 47q136 0 221 -75.5t101 -207.5h-91q-12 97 -71.5 150.5t-159.5 53.5q-116 0 -179 -77.5t-63 -206.5q0 -130 63 -207.5t179 -77.5q100 0 159.5 53.5t71.5 151.5h91q-16 -133 -101 -208.5t-221 -75.5
q-103 0 -178.5 47.5z" />
    <glyph glyph-name="uni0422" unicode="&#x422;" horiz-adv-x="660" 
d="M618 705v-78h-242v-627h-91v627h-243v78h576z" />
    <glyph glyph-name="uni0423" unicode="&#x423;" horiz-adv-x="647" 
d="M618 705l-243 -492v-150q0 -63 -70 -63h-221v78h201v135l-244 492h95l181 -376v-43h26v43l179 376h96z" />
    <glyph glyph-name="uni0424" unicode="&#x424;" horiz-adv-x="822" 
d="M452 711v-98q162 -7 245.5 -72.5t83.5 -189.5q0 -125 -84 -190.5t-245 -72.5v-94h-82v94q-162 7 -246 72.5t-84 190.5q0 124 84 189.5t246 72.5v98h82zM191 214q59 -44 179 -49v371q-121 -5 -179.5 -49t-58.5 -136q0 -93 59 -137zM630.5 214q58.5 44 58.5 137t-58 136.5
t-179 48.5v-371q120 5 178.5 49z" />
    <glyph glyph-name="uni0425" unicode="&#x425;" horiz-adv-x="683" 
d="M556 0l-202 315h-25l-202 -315h-103l229 353l-229 352h103l201 -312h27l201 312h103l-230 -352l230 -353h-103z" />
    <glyph glyph-name="uni0426" unicode="&#x426;" horiz-adv-x="705" 
d="M72 705h91v-627h363v627h91v-627h42q31 0 47 -16.5t16 -46.5v-148h-90v133h-560v705z" />
    <glyph glyph-name="uni0427" unicode="&#x427;" horiz-adv-x="704" 
d="M162 705v-386h379v386h91v-705h-91v239h-414q-28 0 -42 13.5t-14 43.5v409h91z" />
    <glyph glyph-name="uni0428" unicode="&#x428;" horiz-adv-x="953" 
d="M72 705h91v-627h268v627h91v-627h268v627h91v-705h-809v705z" />
    <glyph glyph-name="uni0429" unicode="&#x429;" horiz-adv-x="969" 
d="M72 705h91v-627h268v627h91v-627h268v627h91v-627h62q31 0 47 -16.5t16 -46.5v-148h-90v133h-844v705z" />
    <glyph glyph-name="uni042A" unicode="&#x42a;" horiz-adv-x="651" 
d="M182 440h147q134 0 203 -47t69 -171q0 -87 -33 -135.5t-92 -67.5t-147 -19h-238v627h-125v78h216v-265zM333 76q91 0 134.5 31t43.5 115q0 82 -43.5 112t-134.5 30h-151v-288h151z" />
    <glyph glyph-name="uni042B" unicode="&#x42b;" horiz-adv-x="865" 
d="M163 440h147q134 0 203 -47t69 -171q0 -87 -33 -135.5t-92 -67.5t-147 -19h-238v705h91v-265zM314 76q91 0 134.5 31t43.5 115q0 82 -43.5 112t-134.5 30h-151v-288h151zM793 705v-705h-89v705h89z" />
    <glyph glyph-name="uni042C" unicode="&#x42c;" horiz-adv-x="632" 
d="M163 440h147q134 0 203 -47t69 -171q0 -87 -33 -135.5t-92 -67.5t-147 -19h-238v705h91v-265zM314 76q91 0 134.5 31t43.5 115q0 82 -43.5 112t-134.5 30h-151v-288h151z" />
    <glyph glyph-name="uni042D" unicode="&#x42d;" horiz-adv-x="772" 
d="M558.5 668.5q75.5 -47.5 115.5 -130t40 -186.5t-40 -186.5t-116 -129.5t-178 -47q-136 0 -221 75.5t-101 207.5h91q12 -97 71.5 -150.5t159.5 -53.5q108 0 170.5 67.5t70.5 181.5h-295v72h295q-9 114 -71 181t-170 67q-100 0 -159.5 -53.5t-71.5 -151.5h-91
q16 133 101 208.5t221 75.5q103 0 178.5 -47.5z" />
    <glyph glyph-name="uni042E" unicode="&#x42e;" horiz-adv-x="941" 
d="M417.5 145.5q53.5 -76.5 160.5 -76.5q106 0 159 76.5t53 207.5t-53 207t-159 76q-107 0 -160.5 -76.5t-53.5 -206.5q0 -131 53.5 -207.5zM72 705h91v-312h109q10 146 89 234.5t217 88.5q98 0 166.5 -46.5t103.5 -128.5t35 -188t-35 -188.5t-103.5 -129t-166.5 -46.5
q-138 0 -217 89t-89 235h-109v-313h-91v705z" />
    <glyph glyph-name="uni042F" unicode="&#x42f;" horiz-adv-x="645" 
d="M482 0v320h-140h-3l-106 -278q-9 -21 -29 -31.5t-46 -10.5h-123v78h118l96 247q-90 12 -135.5 55.5t-45.5 132.5q0 108 68.5 150t205.5 42h231v-705h-91zM178.5 437.5q20.5 -25.5 58 -34t100.5 -8.5h145v235h-145q-62 0 -100 -8.5t-58.5 -34t-20.5 -74.5
q0 -50 20.5 -75.5z" />
    <glyph glyph-name="uni0430" unicode="&#x430;" horiz-adv-x="596" 
d="M90.5 237.5q40.5 37.5 125.5 45.5l195 19q-3 68 -35 100.5t-98 32.5q-55 0 -89 -28t-40 -87h-88q8 86 64.5 136.5t151.5 50.5q107 0 165 -60t58 -160v-211h73v-76h-91q-28 0 -44 16t-16 44v24l14 53h-25q-16 -65 -62.5 -106t-130.5 -41q-96 0 -132 46t-36 102
q0 62 40.5 99.5zM163 85q25 -22 69 -22q53 0 93.5 23t63 63t22.5 90l-180 -19q-48 -5 -70.5 -20.5t-22.5 -50.5q0 -42 25 -64z" />
    <glyph glyph-name="uni0431" unicode="&#x431;" horiz-adv-x="644" 
d="M88.5 489.5q28.5 65.5 85 105.5t148.5 67q64 19 90.5 29t38.5 21.5t18 32.5h105q-8 -45 -35 -71.5t-63.5 -40.5t-101.5 -30l-38 -10q-69 -19 -111 -43t-66 -63t-31 -100l-25 -60h25q19 87 74.5 133.5t143.5 46.5q71 0 126.5 -30.5t87.5 -88t32 -135.5q0 -76 -29.5 -135.5
t-89 -93.5t-144.5 -34q-131 0 -200 85t-69 247q0 102 28.5 167.5zM194.5 117.5q45.5 -51.5 135.5 -51.5q85 0 129 49.5t44 135.5q0 85 -43.5 132.5t-128.5 47.5q-88 0 -135 -49.5t-47 -131.5q0 -81 45.5 -132.5z" />
    <glyph glyph-name="uni0432" unicode="&#x432;" horiz-adv-x="554" 
d="M70 497h209q99 0 150.5 -26t51.5 -94q0 -54 -30 -77.5t-69 -26.5v-24q136 -2 136 -120q0 -129 -202 -129h-246v497zM316 63q61 0 89 18t28 61q0 48 -28.5 66.5t-88.5 18.5h-162v-164h162zM279 289q63 0 90 14.5t27 60.5q0 39 -27.5 55t-89.5 16h-125v-146h125z" />
    <glyph glyph-name="uni0433" unicode="&#x433;" horiz-adv-x="444" 
d="M140 497h281v-76h-262v-421h-89v428q0 69 70 69z" />
    <glyph glyph-name="uni0434" unicode="&#x434;" horiz-adv-x="670" 
d="M178.5 252.5q16.5 97.5 16.5 244.5h348v-421h40q30 0 46 -16t16 -46v-146h-88v132h-439v-132h-88v146q0 30 16 46t46 16h30q40 79 56.5 176.5zM455 76v347h-174q-4 -115 -21 -196.5t-52 -150.5h247z" />
    <glyph glyph-name="uni0435" unicode="&#x435;" horiz-adv-x="582" 
d="M115 440.5q65 66.5 173 66.5q112 0 177.5 -64.5t65.5 -178.5v-32h-395q2 -76 42.5 -123.5t114.5 -47.5q62 0 100.5 30t51.5 83h88q-17 -79 -75 -131.5t-164 -52.5q-78 0 -133 35t-83 95t-28 135q0 119 65 185.5zM444 295q-4 67 -46.5 104.5t-109.5 37.5q-63 0 -104.5 -38
t-46.5 -104h307z" />
    <glyph glyph-name="uni0436" unicode="&#x436;" horiz-adv-x="812" 
d="M451 287h38l129 173q14 19 32 28t43 9h80v-76h-80l-117 -156l211 -265h-101l-170 211h-65v-211h-90v211h-65l-169 -211h-102l212 265l-116 156h-81v76h79q49 0 76 -37l129 -173h37v210h90v-210z" />
    <glyph glyph-name="uni0437" unicode="&#x437;" horiz-adv-x="557" 
d="M177.5 88q35.5 -33 109.5 -33q67 0 96 24t29 70q0 40 -25.5 61t-75.5 21h-65v63h65q48 0 69 19t21 55q0 74 -118 74q-70 0 -100 -25.5t-30 -74.5h-86q0 79 54.5 122t161.5 43q97 0 150 -36.5t53 -93.5q0 -48 -25.5 -71.5t-71.5 -30.5v-25q48 -6 78 -32.5t30 -78.5
q0 -69 -55 -109t-155 -40q-112 0 -171.5 50t-59.5 154h86q0 -73 35.5 -106z" />
    <glyph glyph-name="uni0438" unicode="&#x438;" horiz-adv-x="628" 
d="M471 0v422l15 51h-25l-217 -473h-174v497h87v-420l-15 -52h25l217 472h173v-497h-86z" />
    <glyph glyph-name="uni0439" unicode="&#x439;" horiz-adv-x="628" 
d="M471 0v422l15 51h-25l-217 -473h-174v497h87v-420l-15 -52h25l217 472h173v-497h-86zM198.5 610.5q-42.5 48.5 -42.5 126.5h72q0 -56 20.5 -81t66.5 -25t66.5 25t20.5 81h72q0 -78 -42.5 -126.5t-116.5 -48.5t-116.5 48.5z" />
    <glyph glyph-name="uni043A" unicode="&#x43a;" horiz-adv-x="523" 
d="M159 497v-210h44l129 173q27 37 76 37h79v-76h-80l-120 -159l211 -262h-101l-175 211h-63v-211h-89v497h89z" />
    <glyph glyph-name="uni043B" unicode="&#x43b;" horiz-adv-x="583" 
d="M512 0h-89v421h-190q-1 -155 -13 -241t-51.5 -133t-119.5 -47v76q46 0 66 44.5t24.5 124.5t4.5 252h368v-497z" />
    <glyph glyph-name="uni043C" unicode="&#x43c;" horiz-adv-x="742" 
d="M70 497h173l115 -472h25l114 472h174v-497h-84v421l15 52h-25l-124 -473h-166l-123 473h-24l14 -52v-421h-84v497z" />
    <glyph glyph-name="uni043D" unicode="&#x43d;" horiz-adv-x="596" 
d="M159 497v-210h276v210h88v-497h-88v211h-276v-211h-89v497h89z" />
    <glyph glyph-name="uni043E" unicode="&#x43e;" horiz-adv-x="627" 
d="M83 381q33 59 93 92.5t138 33.5q77 0 137 -33.5t93 -92.5t33 -132q0 -74 -33 -133t-92.5 -92.5t-137.5 -33.5t-138 33.5t-93 92.5t-33 133q0 73 33 132zM184.5 118q46.5 -52 129.5 -52q82 0 128.5 52t46.5 131q0 51 -20.5 92.5t-60 65.5t-94.5 24t-95 -24t-60.5 -65.5
t-20.5 -92.5q0 -79 46.5 -131z" />
    <glyph glyph-name="uni043F" unicode="&#x43f;" horiz-adv-x="561" 
d="M490 497v-497h-88v421h-243v-421h-89v497h420z" />
    <glyph glyph-name="uni0440" unicode="&#x440;" horiz-adv-x="655" 
d="M70 497h89v-69l-15 -59h25q17 62 68 100t132 38q71 0 124.5 -33.5t82.5 -92.5t29 -133q0 -73 -29 -132t-82.5 -92.5t-124.5 -33.5q-81 0 -132 38.5t-68 100.5h-25l15 -60v-263h-89v691zM209.5 111.5q50.5 -45.5 131.5 -45.5q80 0 128 45.5t48 136.5q0 92 -48 137.5
t-128 45.5q-81 0 -131.5 -45.5t-50.5 -137.5q0 -91 50.5 -136.5z" />
    <glyph glyph-name="uni0441" unicode="&#x441;" horiz-adv-x="590" 
d="M80.5 380.5q30.5 58.5 88.5 92.5t136 34q54 0 105.5 -21t87.5 -66t42 -113h-89q-10 65 -49 94.5t-97 29.5q-81 0 -124 -51.5t-43 -130.5q0 -80 43 -131.5t124 -51.5q58 0 97 29.5t49 94.5h89q-6 -68 -42 -113t-87.5 -66t-105.5 -21q-78 0 -136 34t-88.5 92.5t-30.5 132.5
q0 73 30.5 131.5z" />
    <glyph glyph-name="uni0442" unicode="&#x442;" horiz-adv-x="548" 
d="M506 497v-76h-188v-421h-88v421h-188v76h464z" />
    <glyph glyph-name="uni0443" unicode="&#x443;" horiz-adv-x="558" 
d="M541 497l-217 -490v-145q0 -57 -56 -57h-211v78h178v124l-218 490h96l154 -373v-42h25v42l152 373h97z" />
    <glyph glyph-name="uni0444" unicode="&#x444;" horiz-adv-x="741" 
d="M413 675v-170q90 -6 152.5 -40.5t94.5 -90.5t32 -125t-32 -125t-94.5 -90.5t-152.5 -41.5v-172h-84v172q-90 7 -152.5 41.5t-94.5 90.5t-32 125t32 125t94.5 90.5t152.5 40.5v170h84zM185.5 125.5q47.5 -48.5 143.5 -57.5v361q-97 -9 -144 -57t-47 -123t47.5 -123.5z
M556 125.5q47 48.5 47 123.5t-47 123t-143 57v-361q96 9 143 57.5z" />
    <glyph glyph-name="uni0445" unicode="&#x445;" horiz-adv-x="585" 
d="M200 250l-168 247h101l142 -213h18l142 213h101l-167 -247l167 -250h-101l-142 213h-18l-142 -213h-101z" />
    <glyph glyph-name="uni0446" unicode="&#x446;" horiz-adv-x="581" 
d="M71 497h88v-421h243v421h89v-421h42q30 0 46 -16t16 -46v-146h-88v132h-436v497z" />
    <glyph glyph-name="uni0447" unicode="&#x447;" horiz-adv-x="608" 
d="M157 497v-246h292v246h88v-497h-88v173h-324q-56 0 -56 50v274h88z" />
    <glyph glyph-name="uni0448" unicode="&#x448;" horiz-adv-x="767" 
d="M70 497h89v-421h180v421h89v-421h180v421h89v-497h-627v497z" />
    <glyph glyph-name="uni0449" unicode="&#x449;" horiz-adv-x="788" 
d="M70 497h89v-421h180v421h89v-421h180v421h89v-421h42q30 0 46 -16t16 -46v-146h-88v132h-643v497z" />
    <glyph glyph-name="uni044A" unicode="&#x44a;" horiz-adv-x="550" 
d="M442.5 317.5q58.5 -40.5 58.5 -138.5t-58.5 -138.5t-157.5 -40.5h-198v423h-124v76h213v-141h109q99 0 157.5 -40.5zM275 74q47 0 75.5 7t45 30t16.5 68t-16.5 68t-45 30t-75.5 7h-99v-210h99z" />
    <glyph glyph-name="uni044B" unicode="&#x44b;" horiz-adv-x="743" 
d="M425.5 317.5q58.5 -40.5 58.5 -138.5t-58.5 -138.5t-157.5 -40.5h-198v497h89v-139h109q99 0 157.5 -40.5zM258 74q47 0 75.5 7t45 30t16.5 68t-16.5 68t-45 30t-75.5 7h-99v-210h99zM593 497h89v-497h-89v497z" />
    <glyph glyph-name="uni044C" unicode="&#x44c;" horiz-adv-x="533" 
d="M425.5 317.5q58.5 -40.5 58.5 -138.5t-58.5 -138.5t-157.5 -40.5h-198v497h89v-139h109q99 0 157.5 -40.5zM258 74q47 0 75.5 7t45 30t16.5 68t-16.5 68t-45 30t-75.5 7h-99v-210h99z" />
    <glyph glyph-name="uni044D" unicode="&#x44d;" horiz-adv-x="590" 
d="M509.5 116.5q-30.5 -58.5 -88.5 -92.5t-136 -34q-54 0 -105.5 21t-87.5 66t-42 113h89q10 -65 49 -94.5t97 -29.5q73 0 115 42t50 110h-224v62h224q-9 68 -51 109.5t-114 41.5q-58 0 -97 -29.5t-49 -94.5h-89q6 68 42 113t87.5 66t105.5 21q78 0 136 -34t88.5 -92.5
t30.5 -132.5q0 -73 -30.5 -131.5z" />
    <glyph glyph-name="uni044E" unicode="&#x44e;" horiz-adv-x="803" 
d="M344.5 51.5q-62.5 61.5 -72.5 159.5h-113v-211h-89v497h89v-210h113q10 98 72.5 159t167.5 61q77 0 131.5 -34t82 -92.5t27.5 -131.5t-27.5 -131.5t-82 -93t-131.5 -34.5q-105 0 -167.5 61.5zM395.5 116q37.5 -50 116.5 -50t116 50t37 133q0 82 -37 132t-116 50
t-116.5 -50t-37.5 -132q0 -83 37.5 -133z" />
    <glyph glyph-name="uni044F" unicode="&#x44f;" horiz-adv-x="508" 
d="M349 0v215h-104l-90 -175q-26 -40 -75 -40h-60v71h73l68 146q-65 7 -99 38.5t-34 99.5q0 75 47 108.5t136 33.5h226v-497h-88zM140 294q24 -20 76 -20h133v166h-133q-51 0 -75.5 -20.5t-24.5 -62.5q0 -43 24 -63z" />
    <glyph glyph-name="uni0450" unicode="&#x450;" horiz-adv-x="582" 
d="M115 440.5q65 66.5 173 66.5q112 0 177.5 -64.5t65.5 -178.5v-32h-395q2 -76 42.5 -123.5t114.5 -47.5q62 0 100.5 30t51.5 83h88q-17 -79 -75 -131.5t-164 -52.5q-78 0 -133 35t-83 95t-28 135q0 119 65 185.5zM444 295q-4 67 -46.5 104.5t-109.5 37.5q-63 0 -104.5 -38
t-46.5 -104h307zM448 576l-314 80l17 68l314 -80z" />
    <glyph glyph-name="uni0451" unicode="&#x451;" horiz-adv-x="582" 
d="M115 440.5q65 66.5 173 66.5q112 0 177.5 -64.5t65.5 -178.5v-32h-395q2 -76 42.5 -123.5t114.5 -47.5q62 0 100.5 30t51.5 83h88q-17 -79 -75 -131.5t-164 -52.5q-78 0 -133 35t-83 95t-28 135q0 119 65 185.5zM444 295q-4 67 -46.5 104.5t-109.5 37.5q-63 0 -104.5 -38
t-46.5 -104h307zM141.5 595q-20.5 20 -20.5 50t20.5 50t51.5 20q32 0 53 -20t21 -50t-21 -50t-53 -20q-31 0 -51.5 20zM348 695q21 20 52 20t52.5 -20t21.5 -50t-21.5 -50t-52.5 -20t-52 20t-21 50t21 50z" />
    <glyph glyph-name="uni0452" unicode="&#x452;" horiz-adv-x="614" 
d="M78 607h-56v72h56v56h89v-56h143v-72h-143v-193l-16 -60h26q17 70 67.5 111.5t128.5 41.5q85 0 133 -54t48 -154v-432q0 -61 -70 -61h-197v76h179v407q0 76 -29.5 109t-94.5 33q-81 0 -128 -59.5t-47 -160.5v-211h-89v607z" />
    <glyph glyph-name="uni0453" unicode="&#x453;" horiz-adv-x="449" 
d="M142 497h281v-76h-262v-421h-89v428q0 69 70 69zM91 644l314 80l17 -68l-314 -80z" />
    <glyph glyph-name="uni0454" unicode="&#x454;" horiz-adv-x="590" 
d="M80.5 380.5q30.5 58.5 88.5 92.5t136 34q54 0 105.5 -21t87.5 -66t42 -113h-89q-10 65 -49 94.5t-97 29.5q-73 0 -115 -42t-50 -110h224v-62h-224q9 -68 51 -109.5t114 -41.5q58 0 97 29.5t49 94.5h89q-6 -68 -42 -113t-87.5 -66t-105.5 -21q-78 0 -136 34t-88.5 92.5
t-30.5 132.5q0 73 30.5 131.5z" />
    <glyph glyph-name="uni0455" unicode="&#x455;" horiz-adv-x="506" 
d="M103.5 40.5q-61.5 50.5 -61.5 142.5h89q0 -61 38 -92t108 -31q53 0 79.5 17.5t26.5 55.5q0 26 -17 42t-56 26l-133 39q-50 14 -82.5 45.5t-32.5 85.5q0 65 50.5 100.5t139.5 35.5q97 0 152.5 -43.5t55.5 -123.5h-89q0 49 -30 73.5t-88 24.5q-49 0 -76 -17t-27 -49
q0 -24 17 -39.5t54 -26.5l116 -33q66 -19 100.5 -53t34.5 -89q0 -68 -50.5 -104.5t-145.5 -36.5q-111 0 -172.5 50.5z" />
    <glyph glyph-name="uni0456" unicode="&#x456;" horiz-adv-x="443" 
d="M52 76h138v345h-103v76h129q56 0 56 -58v-363h139v-76h-359v76zM170 601q-20 19 -20 48t20 48t50 19t51 -19t21 -48t-21 -48t-51 -19t-50 19z" />
    <glyph glyph-name="uni0457" unicode="&#x457;" horiz-adv-x="443" 
d="M52 76h138v345h-103v76h129q56 0 56 -58v-363h139v-76h-359v76zM65.5 595q-20.5 20 -20.5 50t20.5 50t51.5 20q32 0 53 -20t21 -50t-21 -50t-53 -20q-31 0 -51.5 20zM272 695q21 20 52 20t52.5 -20t21.5 -50t-21.5 -50t-52.5 -20t-52 20t-21 50t21 50z" />
    <glyph glyph-name="uni0458" unicode="&#x458;" horiz-adv-x="302" 
d="M138.5 8.5q3.5 16.5 3.5 42.5v370h-105v76h130q31 0 47 -13.5t16 -43.5v-405q0 -25 -4 -41t-15 -38l-76 -146h-96l84 161q12 21 15.5 37.5zM125 601q-20 19 -20 48t20 48t50 19t51 -19t21 -48t-21 -48t-51 -19t-50 19z" />
    <glyph glyph-name="uni0459" unicode="&#x459;" horiz-adv-x="886" 
d="M512 358h109q99 0 157.5 -40.5t58.5 -138.5t-58.5 -138.5t-157.5 -40.5h-198v421h-190q-1 -155 -13 -241t-51.5 -133t-119.5 -47v76q46 0 66 44.5t24.5 124.5t4.5 252h368v-139zM611 74q47 0 75.5 7t45 30t16.5 68t-16.5 68t-45 30t-75.5 7h-99v-210h99z" />
    <glyph glyph-name="uni045A" unicode="&#x45a;" horiz-adv-x="898" 
d="M159 497v-210h275v210h89v-139h109q99 0 157.5 -40.5t58.5 -138.5t-58.5 -138.5t-157.5 -40.5h-198v211h-275v-211h-89v497h89zM622 74q47 0 75.5 7t45 30t16.5 68t-16.5 68t-45 30t-75.5 7h-99v-210h99z" />
    <glyph glyph-name="uni045B" unicode="&#x45b;" horiz-adv-x="614" 
d="M78 607h-56v72h56v56h89v-56h143v-72h-143v-193l-16 -60h26q17 70 67.5 111.5t128.5 41.5q85 0 133 -54t48 -154v-299h-88v289q0 76 -29.5 109t-94.5 33q-81 0 -128 -59.5t-47 -160.5v-211h-89v607z" />
    <glyph glyph-name="uni045C" unicode="&#x45c;" horiz-adv-x="523" 
d="M159 497v-210h44l129 173q27 37 76 37h79v-76h-80l-120 -159l211 -262h-101l-175 211h-63v-211h-89v497h89zM94 644l314 80l17 -68l-314 -80z" />
    <glyph glyph-name="uni045F" unicode="&#x45f;" horiz-adv-x="595" 
d="M70 495h89v-419h275v419h88v-495h-181v-132h-89v132h-182v495z" />
    <glyph glyph-name="uni0490" unicode="&#x490;" horiz-adv-x="544" 
d="M424 705v95h91v-173h-353v-627h-91v642q0 31 16.5 47t46.5 16h290z" />
    <glyph glyph-name="uni0491" unicode="&#x491;" horiz-adv-x="448" 
d="M140 497h193v116h89v-192h-263v-421h-89v428q0 69 70 69z" />
    <glyph glyph-name="uni1E20" unicode="&#x1e20;" horiz-adv-x="794" 
d="M200 35q-71 46 -106.5 126.5t-35.5 184.5q0 111 40 194.5t115.5 129.5t180.5 46q128 0 210 -70t99 -193h-92q-12 88 -68 136.5t-146 48.5q-118 0 -182.5 -79.5t-64.5 -214.5q0 -124 59 -200.5t184 -76.5q116 0 176 62t56 180h-273v70h303q63 0 63 -59v-320h-91v80l19 95
h-26q-3 -36 -24 -78t-75 -75t-146 -33q-104 0 -175 46zM557 895v-71l-332 -1v72h332z" />
    <glyph glyph-name="uni1E21" unicode="&#x1e21;" horiz-adv-x="656" 
d="M161.5 24q-53.5 34 -82.5 92.5t-29 132.5q0 73 29 132t82.5 92.5t124.5 33.5q81 0 132 -38t69 -100h25l-15 59v69h88v-630q0 -61 -69 -61h-380v76h360v118h1v69l15 60h-25q-18 -62 -69 -100.5t-132 -38.5q-71 0 -124.5 34zM186.5 111.5q47.5 -45.5 127.5 -45.5
q81 0 132 46t51 137t-51 136.5t-132 45.5q-80 0 -127.5 -45t-47.5 -137t47.5 -137.5zM492 687v-71l-332 -1v72h332z" />
    <glyph glyph-name="Wgrave" unicode="&#x1e80;" horiz-adv-x="920" 
d="M770 0h-176l-121 680h-25l-118 -680h-178l-130 705h90l116 -605l-6 -75h26l120 680h186l119 -680h26l-4 75l113 605h90zM610 784l-314 80l17 68l314 -80z" />
    <glyph glyph-name="wgrave" unicode="&#x1e81;" horiz-adv-x="878" 
d="M119 497l109 -403l-1 -69h23l98 472h182l97 -472h24l-2 69l108 403h85l-132 -497h-163l-96 473h-25l-96 -473h-166l-129 497h84zM589 576l-314 80l17 68l314 -80z" />
    <glyph glyph-name="Wacute" unicode="&#x1e82;" horiz-adv-x="920" 
d="M770 0h-176l-121 680h-25l-118 -680h-178l-130 705h90l116 -605l-6 -75h26l120 680h186l119 -680h26l-4 75l113 605h90zM292 852l314 80l17 -68l-314 -80z" />
    <glyph glyph-name="wacute" unicode="&#x1e83;" horiz-adv-x="878" 
d="M119 497l109 -403l-1 -69h23l98 472h182l97 -472h24l-2 69l108 403h85l-132 -497h-163l-96 473h-25l-96 -473h-166l-129 497h84zM271 644l314 80l17 -68l-314 -80z" />
    <glyph glyph-name="Wdieresis" unicode="&#x1e84;" horiz-adv-x="920" 
d="M770 0h-176l-121 680h-25l-118 -680h-178l-130 705h90l116 -605l-6 -75h26l120 680h186l119 -680h26l-4 75l113 605h90zM304.5 803q-20.5 20 -20.5 50t20.5 50t51.5 20q32 0 53 -20t21 -50t-21 -50t-53 -20q-31 0 -51.5 20zM511 903q21 20 52 20t52.5 -20t21.5 -50
t-21.5 -50t-52.5 -20t-52 20t-21 50t21 50z" />
    <glyph glyph-name="wdieresis" unicode="&#x1e85;" horiz-adv-x="878" 
d="M119 497l109 -403l-1 -69h23l98 472h182l97 -472h24l-2 69l108 403h85l-132 -497h-163l-96 473h-25l-96 -473h-166l-129 497h84zM283.5 595q-20.5 20 -20.5 50t20.5 50t51.5 20q32 0 53 -20t21 -50t-21 -50t-53 -20q-31 0 -51.5 20zM490 695q21 20 52 20t52.5 -20
t21.5 -50t-21.5 -50t-52.5 -20t-52 20t-21 50t21 50z" />
    <glyph glyph-name="uni1E9E" unicode="&#x1e9e;" horiz-adv-x="650" 
d="M137 660q65 56 177 56q80 0 130.5 -24.5t73 -62.5t22.5 -78q0 -54 -46.5 -97t-147.5 -69l6 -25q53 17 96 17q78 0 126.5 -47.5t48.5 -132.5q0 -100 -66 -148.5t-191 -48.5h-147v78h147q80 0 123 34t43 96q0 54 -32 84t-90 30q-36 0 -80 -12l-27 112q84 23 115.5 51
t31.5 67q0 42 -31.5 70t-102.5 28q-77 0 -115 -39t-38 -124v-475h-91v484q0 120 65 176z" />
    <glyph glyph-name="uni1EBC" unicode="&#x1ebc;" horiz-adv-x="614" 
d="M72 705h490v-78h-399v-236h349v-76h-349v-237h399v-78h-490v705zM138.5 904.5q28.5 34.5 77.5 34.5q33 0 55 -13t47 -37q18 -16 28.5 -23t22.5 -7q19 0 30 14.5t11 55.5h71q0 -72 -28.5 -106.5t-77.5 -34.5q-33 0 -55 13t-47 37q-16 15 -27.5 22.5t-23.5 7.5
q-19 0 -29.5 -14.5t-10.5 -55.5h-72q0 72 28.5 106.5z" />
    <glyph glyph-name="uni1EBD" unicode="&#x1ebd;" horiz-adv-x="582" 
d="M115 440.5q65 66.5 173 66.5q112 0 177.5 -64.5t65.5 -178.5v-32h-395q2 -76 42.5 -123.5t114.5 -47.5q62 0 100.5 30t51.5 83h88q-17 -79 -75 -131.5t-164 -52.5q-78 0 -133 35t-83 95t-28 135q0 119 65 185.5zM444 295q-4 67 -46.5 104.5t-109.5 37.5q-63 0 -104.5 -38
t-46.5 -104h307zM140.5 696.5q28.5 34.5 77.5 34.5q33 0 55 -13t47 -37q18 -16 28.5 -23t22.5 -7q19 0 30 14.5t11 55.5h71q0 -72 -28.5 -106.5t-77.5 -34.5q-33 0 -55 13t-47 37q-16 15 -27.5 22.5t-23.5 7.5q-19 0 -29.5 -14.5t-10.5 -55.5h-72q0 72 28.5 106.5z" />
    <glyph glyph-name="Ygrave" unicode="&#x1ef2;" horiz-adv-x="665" 
d="M634 705l-210 -408h-47v-297h-90v297h-47l-209 408h96l192 -384h26l192 384h97zM483 784l-314 80l17 68l314 -80z" />
    <glyph glyph-name="ygrave" unicode="&#x1ef3;" horiz-adv-x="601" 
d="M541 -133q0 -61 -69 -61h-380v76h360v201l15 60h-25q-16 -70 -64.5 -111.5t-126.5 -41.5q-87 0 -137 52t-50 154v301h88v-289q0 -76 30 -109t94 -33q79 0 127.5 57t48.5 156v218h89v-630zM459 576l-314 80l17 68l314 -80z" />
    <glyph glyph-name="uni1EF8" unicode="&#x1ef8;" horiz-adv-x="665" 
d="M634 705l-210 -408h-47v-297h-90v297h-47l-209 408h96l192 -384h26l192 384h97zM175.5 904.5q28.5 34.5 77.5 34.5q33 0 55 -13t47 -37q18 -16 28.5 -23t22.5 -7q19 0 30 14.5t11 55.5h71q0 -72 -28.5 -106.5t-77.5 -34.5q-33 0 -55 13t-47 37q-16 15 -27.5 22.5
t-23.5 7.5q-19 0 -29.5 -14.5t-10.5 -55.5h-72q0 72 28.5 106.5z" />
    <glyph glyph-name="uni1EF9" unicode="&#x1ef9;" horiz-adv-x="601" 
d="M541 -133q0 -61 -69 -61h-380v76h360v201l15 60h-25q-16 -70 -64.5 -111.5t-126.5 -41.5q-87 0 -137 52t-50 154v301h88v-289q0 -76 30 -109t94 -33q79 0 127.5 57t48.5 156v218h89v-630zM151.5 696.5q28.5 34.5 77.5 34.5q33 0 55 -13t47 -37q18 -16 28.5 -23t22.5 -7
q19 0 30 14.5t11 55.5h71q0 -72 -28.5 -106.5t-77.5 -34.5q-33 0 -55 13t-47 37q-16 15 -27.5 22.5t-23.5 7.5q-19 0 -29.5 -14.5t-10.5 -55.5h-72q0 72 28.5 106.5z" />
    <glyph glyph-name="endash" unicode="&#x2013;" horiz-adv-x="849" 
d="M767 289v-72h-685v72h685z" />
    <glyph glyph-name="emdash" unicode="&#x2014;" horiz-adv-x="1049" 
d="M967 289v-72h-885v72h885z" />
    <glyph glyph-name="quoteleft" unicode="&#x2018;" horiz-adv-x="320" 
d="M80 471l80 295l80 -22l-80 -295z" />
    <glyph glyph-name="quoteright" unicode="&#x2019;" horiz-adv-x="320" 
d="M80 743l81 22l79 -295l-80 -22z" />
    <glyph glyph-name="quotesinglbase" unicode="&#x201a;" horiz-adv-x="320" 
d="M240 143l-80 -295l-80 22l80 295z" />
    <glyph glyph-name="quotedblleft" unicode="&#x201c;" horiz-adv-x="461" 
d="M80 471l80 295l80 -22l-80 -295zM220 471l80 295l80 -22l-80 -295z" />
    <glyph glyph-name="quotedblright" unicode="&#x201d;" horiz-adv-x="461" 
d="M80 743l81 22l79 -295l-80 -22zM220 743l81 22l79 -295l-80 -22z" />
    <glyph glyph-name="quotedblbase" unicode="&#x201e;" horiz-adv-x="461" 
d="M240 143l-80 -295l-80 22l80 295zM380 143l-80 -295l-80 22l80 295z" />
    <glyph glyph-name="dagger" unicode="&#x2020;" horiz-adv-x="559" 
d="M315 853v-191h162v-72h-162v-439h-71v439h-162v72h162v191h71z" />
    <glyph glyph-name="daggerdbl" unicode="&#x2021;" horiz-adv-x="559" 
d="M244 414v176h-162v72h162v191h71v-191h162v-72h-162v-176h162v-72h-162v-191h-71v191h-162v72h162z" />
    <glyph glyph-name="bullet" unicode="&#x2022;" horiz-adv-x="663" 
d="M203 31q-57 33 -89.5 90t-32.5 125t32.5 124.5t89.5 89t127 32.5q69 0 126.5 -32.5t91 -89t33.5 -124.5q0 -67 -33.5 -124t-91 -90.5t-126.5 -33.5q-70 0 -127 33z" />
    <glyph glyph-name="ellipsis" unicode="&#x2026;" horiz-adv-x="935" 
d="M106.5 14.5q-24.5 24.5 -24.5 60.5t24.5 60t60.5 24t61 -24.5t25 -59.5t-25 -60t-61 -25t-60.5 24.5zM406.5 14.5q-24.5 24.5 -24.5 60.5t24.5 60t60.5 24t61 -24.5t25 -59.5t-25 -60t-61 -25t-60.5 24.5zM706.5 14.5q-24.5 24.5 -24.5 60.5t24.5 60t60.5 24t61 -24.5
t25 -59.5t-25 -60t-61 -25t-60.5 24.5z" />
    <glyph glyph-name="perthousand" unicode="&#x2030;" horiz-adv-x="1611" 
d="M130.5 317q-47.5 28 -74 75.5t-26.5 104.5t26.5 104.5t74 75.5t108.5 28t109 -28t74 -75.5t26 -104.5t-26 -104.5t-74 -75.5t-109 -28t-108.5 28zM118.5 428.5q17.5 -31.5 49.5 -50t71 -18.5t71 18.5t49.5 50t17.5 68.5t-17.5 68.5t-49.5 50t-71 18.5t-71 -18.5
t-49.5 -50t-17.5 -68.5t17.5 -68.5zM777 680l-357 -692l-63 30l356 692zM785.5 20q-47.5 28 -74 75.5t-26.5 104.5t26.5 104.5t74 75.5t108.5 28t109 -28t74 -75.5t26 -104.5t-26 -104.5t-74 -75.5t-109 -28t-108.5 28zM773.5 131.5q17.5 -31.5 49.5 -50t71 -18.5t71 18.5
t49.5 50t17.5 68.5t-17.5 68.5t-49.5 50t-71 18.5t-71 -18.5t-49.5 -50t-17.5 -68.5t17.5 -68.5zM1263.5 20q-47.5 28 -74 75.5t-26.5 104.5t26.5 104.5t74 75.5t108.5 28t109 -28t74 -75.5t26 -104.5t-26 -104.5t-74 -75.5t-109 -28t-108.5 28zM1251.5 131.5
q17.5 -31.5 49.5 -50t71 -18.5t71 18.5t49.5 50t17.5 68.5t-17.5 68.5t-49.5 50t-71 18.5t-71 -18.5t-49.5 -50t-17.5 -68.5t17.5 -68.5z" />
    <glyph glyph-name="guilsinglleft" unicode="&#x2039;" horiz-adv-x="501" 
d="M363 -32l-281 280l281 279l58 -51l-229 -228l229 -229z" />
    <glyph glyph-name="guilsinglright" unicode="&#x203a;" horiz-adv-x="501" 
d="M138 527l281 -280l-281 -279l-58 51l229 228l-229 229z" />
    <glyph glyph-name="fraction" unicode="&#x2044;" horiz-adv-x="295" 
d="M358 680l-357 -692l-63 30l356 692z" />
    <glyph glyph-name="uni2070" unicode="&#x2070;" horiz-adv-x="508" 
d="M63.5 837.5q25.5 57.5 74 90t116.5 32.5t116.5 -32.5t74 -90t25.5 -131.5q0 -113 -57 -183.5t-159 -70.5t-159 70.5t-57 183.5q0 74 25.5 131.5zM129 603l218 257q-36 36 -93 36q-69 0 -105.5 -51.5t-36.5 -138.5q0 -58 17 -103zM254 516q69 0 105.5 51t36.5 139
q0 59 -17 104l-217 -259q37 -35 92 -35z" />
    <glyph glyph-name="uni2074" unicode="&#x2074;" horiz-adv-x="466" 
d="M185.5 790.5q56.5 67.5 65.5 162.5h73q-10 -111 -75 -193.5t-188 -128.5v-19l49 12h188v158h74v-158h60v-64h-60v-101h-74v101h-257v133q88 30 144.5 97.5z" />
    <glyph glyph-name="uni2075" unicode="&#x2075;" horiz-adv-x="494" 
d="M95 499q-57 47 -57 137h74q0 -59 34.5 -89.5t101.5 -30.5q62 0 96.5 32.5t34.5 90.5q0 55 -31 84t-86 29q-71 0 -119 -62l-97 58l42 205h328v-64h-268l-33 -157l17 -11q43 91 151 91q78 0 124 -45t46 -127q0 -88 -56 -138t-150 -50q-95 0 -152 47z" />
    <glyph glyph-name="uni2076" unicode="&#x2076;" horiz-adv-x="483" 
d="M94.5 883q53.5 70 182.5 70h134v-64h-139q-156 0 -177 -158l-18 -39h19q12 56 57 87.5t113 31.5q83 0 133 -48t50 -126q0 -85 -52.5 -135t-144.5 -50q-100 0 -155.5 60.5t-55.5 177.5q0 123 53.5 193zM149 550.5q35 -34.5 99 -34.5q61 0 94 31t33 90q0 53 -33.5 84
t-91.5 31q-65 0 -100.5 -31.5t-35.5 -86.5q0 -49 35 -83.5z" />
    <glyph glyph-name="uni2077" unicode="&#x2077;" horiz-adv-x="410" 
d="M166 719.5q67 103.5 201 162.5v20l-47 -13h-297v64h364v-117q-110 -53 -161 -143t-51 -234h-76q0 157 67 260.5z" />
    <glyph glyph-name="uni2078" unicode="&#x2078;" horiz-adv-x="467" 
d="M60.5 677.5q32.5 29.5 91.5 43.5v19q-47 12 -72 35t-25 69q0 59 50.5 87.5t128.5 28.5t128 -28.5t50 -87.5q0 -44 -25 -68t-73 -36v-19q125 -28 125 -127q0 -67 -54.5 -104.5t-150.5 -37.5t-151 37.5t-55 104.5q0 54 32.5 83.5zM134 537.5q33 -24.5 100 -24.5
q66 0 98.5 24.5t32.5 68.5q0 43 -32.5 67.5t-98.5 24.5q-67 0 -100 -24.5t-33 -67.5q0 -44 33 -68.5zM154.5 777q26.5 -16 79.5 -16q52 0 78 16t26 53t-26 53t-78 16q-53 0 -79.5 -16t-26.5 -53t26.5 -53z" />
    <glyph glyph-name="uni2079" unicode="&#x2079;" horiz-adv-x="483" 
d="M388.5 528.5q-53.5 -69.5 -182.5 -69.5h-135v64h139q157 0 179 158l18 38h-20q-12 -56 -57 -87.5t-114 -31.5q-83 0 -132 48t-49 126q0 85 52.5 135.5t143.5 50.5q100 0 155.5 -60.5t55.5 -177.5q0 -124 -53.5 -193.5zM142 690.5q34 -30.5 91 -30.5q65 0 100 31t35 86
q0 50 -35 84.5t-98 34.5q-61 0 -94 -31t-33 -91q0 -53 34 -83.5z" />
    <glyph glyph-name="uni2080" unicode="&#x2080;" horiz-adv-x="508" 
d="M63.5 278.5q25.5 57.5 74 90t116.5 32.5t116.5 -32.5t74 -90t25.5 -131.5q0 -113 -57 -183.5t-159 -70.5t-159 70.5t-57 183.5q0 74 25.5 131.5zM129 44l218 257q-36 36 -93 36q-69 0 -105.5 -51.5t-36.5 -138.5q0 -58 17 -103zM254 -43q69 0 105.5 51t36.5 139
q0 59 -17 104l-217 -259q37 -35 92 -35z" />
    <glyph glyph-name="uni2081" unicode="&#x2081;" horiz-adv-x="354" 
d="M229 327l12 46h-19q-6 -99 -41.5 -163.5t-124.5 -92.5l-25 64q67 27 95.5 80.5t29.5 132.5h147v-494h-74v427z" />
    <glyph glyph-name="uni2082" unicode="&#x2082;" horiz-adv-x="468" 
d="M93 342q59 59 156 59q82 0 131.5 -43.5t49.5 -123.5q0 -111 -98 -172.5t-271 -90.5v-20l49 13h320v-64h-389v129q104 15 210 59.5t106 146.5q0 49 -27 75.5t-81 26.5q-68 0 -105 -41.5t-37 -135.5h-73q0 123 59 182z" />
    <glyph glyph-name="uni2083" unicode="&#x2083;" horiz-adv-x="476" 
d="M140 -13.5q32 -29.5 102 -29.5q119 0 119 90q0 81 -86 81h-67v60h67q79 0 79 68q0 81 -112 81q-66 0 -96.5 -25.5t-30.5 -80.5h-73q0 84 53 127t149 43q86 0 134.5 -35.5t48.5 -94.5q0 -46 -25.5 -70.5t-74.5 -32.5v-20q53 -9 80 -33.5t27 -79.5q0 -67 -51 -104.5
t-139 -37.5q-99 0 -154 47t-55 148h73q0 -72 32 -101.5z" />
    <glyph glyph-name="uni2084" unicode="&#x2084;" horiz-adv-x="466" 
d="M185.5 231.5q56.5 67.5 65.5 162.5h73q-10 -111 -75 -193.5t-188 -128.5v-19l49 12h188v158h74v-158h60v-64h-60v-101h-74v101h-257v133q88 30 144.5 97.5z" />
    <glyph glyph-name="uni2085" unicode="&#x2085;" horiz-adv-x="494" 
d="M95 -60q-57 47 -57 137h74q0 -59 34.5 -89.5t101.5 -30.5q62 0 96.5 32.5t34.5 90.5q0 55 -31 84t-86 29q-71 0 -119 -62l-97 58l42 205h328v-64h-268l-33 -157l17 -11q43 91 151 91q78 0 124 -45t46 -127q0 -88 -56 -138t-150 -50q-95 0 -152 47z" />
    <glyph glyph-name="uni2086" unicode="&#x2086;" horiz-adv-x="483" 
d="M94.5 324q53.5 70 182.5 70h134v-64h-139q-156 0 -177 -158l-18 -39h19q12 56 57 87.5t113 31.5q83 0 133 -48t50 -126q0 -85 -52.5 -135t-144.5 -50q-100 0 -155.5 60.5t-55.5 177.5q0 123 53.5 193zM149 -8.5q35 -34.5 99 -34.5q61 0 94 31t33 90q0 53 -33.5 84
t-91.5 31q-65 0 -100.5 -31.5t-35.5 -86.5q0 -49 35 -83.5z" />
    <glyph glyph-name="uni2087" unicode="&#x2087;" horiz-adv-x="410" 
d="M166 160.5q67 103.5 201 162.5v20l-47 -13h-297v64h364v-117q-110 -53 -161 -143t-51 -234h-76q0 157 67 260.5z" />
    <glyph glyph-name="uni2088" unicode="&#x2088;" horiz-adv-x="467" 
d="M60.5 118.5q32.5 29.5 91.5 43.5v19q-47 12 -72 35t-25 69q0 59 50.5 87.5t128.5 28.5t128 -28.5t50 -87.5q0 -44 -25 -68t-73 -36v-19q125 -28 125 -127q0 -67 -54.5 -104.5t-150.5 -37.5t-151 37.5t-55 104.5q0 54 32.5 83.5zM134 -21.5q33 -24.5 100 -24.5
q66 0 98.5 24.5t32.5 68.5q0 43 -32.5 67.5t-98.5 24.5q-67 0 -100 -24.5t-33 -67.5q0 -44 33 -68.5zM154.5 218q26.5 -16 79.5 -16q52 0 78 16t26 53t-26 53t-78 16q-53 0 -79.5 -16t-26.5 -53t26.5 -53z" />
    <glyph glyph-name="uni2089" unicode="&#x2089;" horiz-adv-x="483" 
d="M388.5 -30.5q-53.5 -69.5 -182.5 -69.5h-135v64h139q157 0 179 158l18 38h-20q-12 -56 -57 -87.5t-114 -31.5q-83 0 -132 48t-49 126q0 85 52.5 135.5t143.5 50.5q100 0 155.5 -60.5t55.5 -177.5q0 -124 -53.5 -193.5zM142 131.5q34 -30.5 91 -30.5q65 0 100 31t35 86
q0 50 -35 84.5t-98 34.5q-61 0 -94 -31t-33 -91q0 -53 34 -83.5z" />
    <glyph glyph-name="Euro" unicode="&#x20ac;" horiz-adv-x="817" 
d="M173 382h-86v62h92q20 125 92.5 198t195.5 73q112 0 181.5 -62.5t86.5 -170.5h-88q-11 75 -56.5 116t-124.5 41q-170 0 -200 -195h236v-62h-241q-1 -9 -1 -29l1 -31h241v-62h-235q30 -194 199 -194q80 0 125 41.5t57 116.5h87q-17 -108 -86.5 -171t-181.5 -63
q-122 0 -195 73t-93 197h-92v62h86q-1 10 -1 31z" />
    <glyph glyph-name="trademark" unicode="&#x2122;" horiz-adv-x="893" 
d="M356 705v-54h-105v-280h-62v280h-107v54h274zM401 705h124l74 -309h12l76 309h122v-334h-63v230l19 79h-21l-76 -309h-124l-78 309h-21l18 -79v-230h-62v334z" />
    <glyph glyph-name="oneeighth" unicode="&#x215b;" horiz-adv-x="1084" 
d="M229 638l12 46h-19q-6 -99 -41.5 -163.5t-124.5 -92.5l-25 64q67 27 95.5 80.5t29.5 132.5h147v-494h-74v427zM705 680l-357 -692l-63 30l356 692zM677.5 218.5q32.5 29.5 91.5 43.5v19q-47 12 -72 35t-25 69q0 59 50.5 87.5t128.5 28.5t128 -28.5t50 -87.5
q0 -44 -25 -68t-73 -36v-19q125 -28 125 -127q0 -67 -54.5 -104.5t-150.5 -37.5t-151 37.5t-55 104.5q0 54 32.5 83.5zM751 78.5q33 -24.5 100 -24.5q66 0 98.5 24.5t32.5 68.5q0 43 -32.5 67.5t-98.5 24.5q-67 0 -100 -24.5t-33 -67.5q0 -44 33 -68.5zM771.5 318
q26.5 -16 79.5 -16q52 0 78 16t26 53t-26 53t-78 16q-53 0 -79.5 -16t-26.5 -53t26.5 -53z" />
    <glyph glyph-name="threeeighths" unicode="&#x215c;" horiz-adv-x="1191" 
d="M140 297.5q32 -29.5 102 -29.5q119 0 119 90q0 81 -86 81h-67v60h67q79 0 79 68q0 81 -112 81q-66 0 -96.5 -25.5t-30.5 -80.5h-73q0 84 53 127t149 43q86 0 134.5 -35.5t48.5 -94.5q0 -46 -25.5 -70.5t-74.5 -32.5v-20q53 -9 80 -33.5t27 -79.5q0 -67 -51 -104.5
t-139 -37.5q-99 0 -154 47t-55 148h73q0 -72 32 -101.5zM812 680l-357 -692l-63 30l356 692zM784.5 218.5q32.5 29.5 91.5 43.5v19q-47 12 -72 35t-25 69q0 59 50.5 87.5t128.5 28.5t128 -28.5t50 -87.5q0 -44 -25 -68t-73 -36v-19q125 -28 125 -127q0 -67 -54.5 -104.5
t-150.5 -37.5t-151 37.5t-55 104.5q0 54 32.5 83.5zM858 78.5q33 -24.5 100 -24.5q66 0 98.5 24.5t32.5 68.5q0 43 -32.5 67.5t-98.5 24.5q-67 0 -100 -24.5t-33 -67.5q0 -44 33 -68.5zM878.5 318q26.5 -16 79.5 -16q52 0 78 16t26 53t-26 53t-78 16q-53 0 -79.5 -16
t-26.5 -53t26.5 -53z" />
    <glyph glyph-name="fiveeighths" unicode="&#x215d;" horiz-adv-x="1209" 
d="M95 251q-57 47 -57 137h74q0 -59 34.5 -89.5t101.5 -30.5q62 0 96.5 32.5t34.5 90.5q0 55 -31 84t-86 29q-71 0 -119 -62l-97 58l42 205h328v-64h-268l-33 -157l17 -11q43 91 151 91q78 0 124 -45t46 -127q0 -88 -56 -138t-150 -50q-95 0 -152 47zM830 680l-357 -692
l-63 30l356 692zM802.5 218.5q32.5 29.5 91.5 43.5v19q-47 12 -72 35t-25 69q0 59 50.5 87.5t128.5 28.5t128 -28.5t50 -87.5q0 -44 -25 -68t-73 -36v-19q125 -28 125 -127q0 -67 -54.5 -104.5t-150.5 -37.5t-151 37.5t-55 104.5q0 54 32.5 83.5zM876 78.5
q33 -24.5 100 -24.5q66 0 98.5 24.5t32.5 68.5q0 43 -32.5 67.5t-98.5 24.5q-67 0 -100 -24.5t-33 -67.5q0 -44 33 -68.5zM896.5 318q26.5 -16 79.5 -16q52 0 78 16t26 53t-26 53t-78 16q-53 0 -79.5 -16t-26.5 -53t26.5 -53z" />
    <glyph glyph-name="seveneighths" unicode="&#x215e;" horiz-adv-x="1035" 
d="M166 471.5q67 103.5 201 162.5v20l-47 -13h-297v64h364v-117q-110 -53 -161 -143t-51 -234h-76q0 157 67 260.5zM656 680l-357 -692l-63 30l356 692zM628.5 218.5q32.5 29.5 91.5 43.5v19q-47 12 -72 35t-25 69q0 59 50.5 87.5t128.5 28.5t128 -28.5t50 -87.5
q0 -44 -25 -68t-73 -36v-19q125 -28 125 -127q0 -67 -54.5 -104.5t-150.5 -37.5t-151 37.5t-55 104.5q0 54 32.5 83.5zM702 78.5q33 -24.5 100 -24.5q66 0 98.5 24.5t32.5 68.5q0 43 -32.5 67.5t-98.5 24.5q-67 0 -100 -24.5t-33 -67.5q0 -44 33 -68.5zM722.5 318
q26.5 -16 79.5 -16q52 0 78 16t26 53t-26 53t-78 16q-53 0 -79.5 -16t-26.5 -53t26.5 -53z" />
    <glyph glyph-name="arrowleft" unicode="&#x2190;" horiz-adv-x="756" 
d="M674 211h-449l194 -193l-56 -50l-281 279l281 280l56 -50l-191 -191h446v-75z" />
    <glyph glyph-name="arrowup" unicode="&#x2191;" horiz-adv-x="723" 
d="M323 400l-191 -191l-50 56l280 281l279 -281l-50 -56l-193 194v-449h-75v446z" />
    <glyph glyph-name="arrowright" unicode="&#x2192;" horiz-adv-x="756" 
d="M528 286l-191 191l56 50l281 -280l-281 -279l-56 50l194 193h-449v75h446z" />
    <glyph glyph-name="arrowdown" unicode="&#x2193;" horiz-adv-x="723" 
d="M398 545v-449l193 194l50 -56l-279 -281l-280 281l50 56l191 -191v446h75z" />
    <glyph glyph-name="arrowboth" unicode="&#x2194;" horiz-adv-x="1163" 
d="M935 451l-191 191l56 50l281 -280l-281 -279l-56 50l194 193h-449v75h446zM363 527l56 -50l-191 -191h446v-75h-449l194 -193l-56 -50l-281 279z" />
    <glyph glyph-name="arrowupdn" unicode="&#x2195;" horiz-adv-x="873" 
d="M313 593l-191 -191l-50 56l280 281l279 -281l-50 -56l-193 194v-449h-75v446zM292 79l191 -191v446h75v-449l193 194l50 -56l-279 -281l-280 281z" />
    <glyph glyph-name="uni2196" unicode="&#x2196;" horiz-adv-x="723" 
d="M207 328v-270l-75 4v397l396 -2l4 -75l-273 1l317 -317l-53 -53z" />
    <glyph glyph-name="uni2197" unicode="&#x2197;" horiz-adv-x="723" 
d="M440 382h-270l5 75l396 1l-1 -396l-75 -4l1 274l-318 -318l-53 53z" />
    <glyph glyph-name="uni2198" unicode="&#x2198;" horiz-adv-x="723" 
d="M500 143v270l75 -4l1 -396l-396 1l-4 75l273 -1l-317 318l53 53z" />
    <glyph glyph-name="uni2199" unicode="&#x2199;" horiz-adv-x="723" 
d="M256 90h270l-4 -75l-397 -1l1 396l75 4v-273l317 317l53 -53z" />
    <glyph glyph-name="partialdiff" unicode="&#x2202;" horiz-adv-x="645" 
d="M173.5 23.5q-60.5 33.5 -92 92.5t-31.5 136q0 73 31 131t89 91t135 33q90 0 149.5 -53.5t74.5 -145.5h24l-15 60q-14 124 -119 201t-270 100v76q130 -15 230.5 -68.5t158 -144.5t57.5 -213q0 -102 -33.5 -176t-95.5 -113.5t-147 -39.5t-145.5 33.5zM184 114.5
q46 -48.5 136 -48.5q59 0 101.5 25.5t64 68t21.5 92.5q0 82 -52.5 130.5t-141.5 48.5q-83 0 -129 -48.5t-46 -130.5q0 -89 46 -137.5z" />
    <glyph glyph-name="emptyset" unicode="&#x2205;" horiz-adv-x="982" 
d="M317 -93l-59 -102l-63 36l58 101q-81 56 -126 145t-45 194q0 113 51.5 206.5t144.5 148t213 54.5q93 0 174 -35l59 102l63 -36l-58 -101q81 -56 126 -145t45 -194q0 -113 -51.5 -206.5t-144.5 -148t-213 -54.5q-93 0 -174 35zM190 124.5q36 -72.5 100 -119.5l339 588
q-64 28 -138 28q-97 0 -174 -46t-120 -124t-43 -170q0 -84 36 -156.5zM491 -59q97 0 174 46t120 124t43 170q0 84 -36 156.5t-100 119.5l-339 -588q64 -28 138 -28z" />
    <glyph glyph-name="product" unicode="&#x220f;" horiz-adv-x="766" 
d="M684 705v-71h-132v-814h-81v814h-176v-814h-80v814h-133v71h602z" />
    <glyph glyph-name="summation" unicode="&#x2211;" horiz-adv-x="601" 
d="M82 -59l298 310v24l-298 309v121h437v-71h-321l-59 14v-24l319 -317v-88l-319 -317v-25l59 15h321v-72h-437v121z" />
    <glyph glyph-name="minus" unicode="&#x2212;" horiz-adv-x="647" 
d="M564 289v-72h-482v72h482z" />
    <glyph glyph-name="radical" unicode="&#x221a;" horiz-adv-x="806" 
d="M492.5 692q16.5 13 45.5 13h185v-67h-189l-205 -818h-148l-99 385h69l91 -360h26l201 806q7 28 23.5 41z" />
    <glyph glyph-name="infinity" unicode="&#x221e;" horiz-adv-x="1022" 
d="M108 402q26 45 72 69.5t103 24.5q53 0 94 -20.5t70 -49.5t64 -74q35 45 64 74t70 49.5t94 20.5q57 0 103 -24.5t72 -69.5t26 -102t-26 -102t-72 -69.5t-103 -24.5q-53 0 -94 20.5t-70 49.5t-64 74q-35 -45 -64 -74t-70 -49.5t-94 -20.5q-57 0 -103 24.5t-72 69.5t-26 102
t26 102zM196 209q35 -34 94 -34q55 0 93.5 30.5t87.5 94.5q-49 64 -87.5 94.5t-93.5 30.5q-59 0 -94 -34t-35 -91t35 -91zM638.5 205.5q38.5 -30.5 93.5 -30.5q59 0 94 34t35 91t-35 91t-94 34q-55 0 -93.5 -30.5t-87.5 -94.5q49 -64 87.5 -94.5z" />
    <glyph glyph-name="integral" unicode="&#x222b;" horiz-adv-x="688" 
d="M82 -109h147l167 759q12 55 69 55h141v-71h-137l-167 -759q-12 -55 -69 -55h-151v71z" />
    <glyph glyph-name="approxequal" unicode="&#x2248;" horiz-adv-x="644" 
d="M117.5 395q35.5 36 84.5 36q35 0 65 -11.5t70 -33.5q34 -18 55.5 -26.5t43.5 -8.5q54 0 54 72h72q0 -72 -35.5 -107.5t-85.5 -35.5q-35 0 -64.5 11.5t-69.5 32.5q-34 18 -55.5 26.5t-43.5 8.5q-54 0 -54 -72h-72q0 72 35.5 108zM117.5 186q35.5 36 84.5 36q35 0 65 -11.5
t70 -33.5q34 -18 55.5 -26.5t43.5 -8.5q54 0 54 72h72q0 -72 -35.5 -107.5t-85.5 -35.5q-35 0 -64.5 11.5t-69.5 32.5q-34 18 -55.5 26.5t-43.5 8.5q-54 0 -54 -72h-72q0 72 35.5 108z" />
    <glyph glyph-name="notequal" unicode="&#x2260;" horiz-adv-x="647" 
d="M365 391l86 149l57 -33l-67 -116h123v-71h-164l-77 -133h241v-72h-282l-86 -149l-57 34l66 115h-123v72h165l77 133h-242v71h283z" />
    <glyph glyph-name="lessequal" unicode="&#x2264;" horiz-adv-x="648" 
d="M539 553l27 -68l-395 -132l395 -135l-27 -69l-457 163v83zM82 94h482v-71h-482v71z" />
    <glyph glyph-name="greaterequal" unicode="&#x2265;" horiz-adv-x="648" 
d="M110 149l-28 69l395 131l-395 136l28 68l456 -163v-82zM564 94v-72h-482v72h482z" />
    <glyph glyph-name="uni2460" unicode="&#x2460;" horiz-adv-x="1092" 
d="M297.5 -58q-111.5 64 -175.5 176t-64 249t64 248.5t175.5 175.5t248.5 64t248.5 -64t175.5 -175.5t64 -248.5t-64 -249t-175.5 -176t-248.5 -64t-248.5 64zM175.5 146.5q55.5 -98.5 153 -155t217.5 -56.5t217.5 56.5t153 155t55.5 220.5t-55.5 221t-153 155.5
t-217.5 56.5t-217.5 -56.5t-153 -155.5t-55.5 -221t55.5 -220.5zM445.5 476q28.5 53 29.5 132h147v-494h-74v428l12 46h-19q-6 -99 -41.5 -164t-124.5 -93l-25 64q67 28 95.5 81z" />
    <glyph glyph-name="uni2461" unicode="&#x2461;" horiz-adv-x="1092" 
d="M297.5 -58q-111.5 64 -175.5 176t-64 249t64 248.5t175.5 175.5t248.5 64t248.5 -64t175.5 -175.5t64 -248.5t-64 -249t-175.5 -176t-248.5 -64t-248.5 64zM175.5 146.5q55.5 -98.5 153 -155t217.5 -56.5t217.5 56.5t153 155t55.5 220.5t-55.5 221t-153 155.5
t-217.5 56.5t-217.5 -56.5t-153 -155.5t-55.5 -221t55.5 -220.5zM407 556q59 59 156 59q82 0 131.5 -43.5t49.5 -123.5q0 -110 -98 -172t-271 -91v-20l49 13h320v-64h-389v129q103 14 209.5 59t106.5 147q0 49 -27 76t-81 27q-142 0 -142 -178h-73q0 123 59 182z" />
    <glyph glyph-name="uni2462" unicode="&#x2462;" horiz-adv-x="1092" 
d="M297.5 -58q-111.5 64 -175.5 176t-64 249t64 248.5t175.5 175.5t248.5 64t248.5 -64t175.5 -175.5t64 -248.5t-64 -249t-175.5 -176t-248.5 -64t-248.5 64zM175.5 146.5q55.5 -98.5 153 -155t217.5 -56.5t217.5 56.5t153 155t55.5 220.5t-55.5 221t-153 155.5
t-217.5 56.5t-217.5 -56.5t-153 -155.5t-55.5 -221t55.5 -220.5zM419 302q0 -71 32.5 -101t101.5 -30q119 0 119 91q0 80 -85 80h-68v61h68q78 0 78 67q0 82 -112 82q-66 0 -96.5 -26t-30.5 -81h-73q0 84 53 127t149 43q86 0 135 -35t49 -94q0 -47 -25.5 -71.5t-75.5 -32.5
v-19q53 -9 80.5 -33.5t27.5 -79.5q0 -68 -51.5 -105.5t-139.5 -37.5q-98 0 -153.5 47.5t-55.5 147.5h73z" />
    <glyph glyph-name="uni2463" unicode="&#x2463;" horiz-adv-x="1092" 
d="M297.5 -58q-111.5 64 -175.5 176t-64 249t64 248.5t175.5 175.5t248.5 64t248.5 -64t175.5 -175.5t64 -248.5t-64 -249t-175.5 -176t-248.5 -64t-248.5 64zM175.5 146.5q55.5 -98.5 153 -155t217.5 -56.5t217.5 56.5t153 155t55.5 220.5t-55.5 221t-153 155.5
t-217.5 56.5t-217.5 -56.5t-153 -155.5t-55.5 -221t55.5 -220.5zM334 348q88 30 144.5 97.5t65.5 162.5h73q-10 -111 -75 -193.5t-188 -128.5v-19l49 12h188v158h74v-158h60v-63h-60v-102h-74v102h-257v132z" />
    <glyph glyph-name="uni2464" unicode="&#x2464;" horiz-adv-x="1092" 
d="M297.5 -58q-111.5 64 -175.5 176t-64 249t64 248.5t175.5 175.5t248.5 64t248.5 -64t175.5 -175.5t64 -248.5t-64 -249t-175.5 -176t-248.5 -64t-248.5 64zM175.5 146.5q55.5 -98.5 153 -155t217.5 -56.5t217.5 56.5t153 155t55.5 220.5t-55.5 221t-153 155.5
t-217.5 56.5t-217.5 -56.5t-153 -155.5t-55.5 -221t55.5 -220.5zM412 292q0 -59 35 -90t102 -31q62 0 96.5 32.5t34.5 91.5q0 54 -31.5 83t-86.5 29q-71 0 -118 -62l-97 58l42 205h328v-63h-268l-33 -158l17 -10q44 91 150 91q79 0 124.5 -45t45.5 -128q0 -88 -55.5 -138
t-149.5 -50q-95 0 -152 47.5t-57 137.5h73z" />
    <glyph glyph-name="uni2465" unicode="&#x2465;" horiz-adv-x="1092" 
d="M297.5 -58q-111.5 64 -175.5 176t-64 249t64 248.5t175.5 175.5t248.5 64t248.5 -64t175.5 -175.5t64 -248.5t-64 -249t-175.5 -176t-248.5 -64t-248.5 64zM175.5 146.5q55.5 -98.5 153 -155t217.5 -56.5t217.5 56.5t153 155t55.5 220.5t-55.5 221t-153 155.5
t-217.5 56.5t-217.5 -56.5t-153 -155.5t-55.5 -221t55.5 -220.5zM395.5 538q53.5 70 182.5 70h134v-63h-139q-156 0 -177 -159l-18 -39h20q11 56 56 87.5t113 31.5q84 0 133.5 -48t49.5 -126q0 -85 -52.5 -135t-144.5 -50q-100 0 -155.5 60.5t-55.5 177.5q0 123 53.5 193z
M450 205.5q35 -34.5 99 -34.5q61 0 94 31t33 90q0 54 -33 84.5t-92 30.5q-64 0 -100 -31.5t-36 -85.5q0 -50 35 -84.5z" />
    <glyph glyph-name="uni2466" unicode="&#x2466;" horiz-adv-x="1092" 
d="M297.5 -58q-111.5 64 -175.5 176t-64 249t64 248.5t175.5 175.5t248.5 64t248.5 -64t175.5 -175.5t64 -248.5t-64 -249t-175.5 -176t-248.5 -64t-248.5 64zM175.5 146.5q55.5 -98.5 153 -155t217.5 -56.5t217.5 56.5t153 155t55.5 220.5t-55.5 221t-153 155.5
t-217.5 56.5t-217.5 -56.5t-153 -155.5t-55.5 -221t55.5 -220.5zM365 608h363v-117q-109 -53 -160 -143t-51 -234h-76q0 157 67 260.5t201 163.5v19l-47 -12h-297v63z" />
    <glyph glyph-name="uni2467" unicode="&#x2467;" horiz-adv-x="1092" 
d="M297.5 -58q-111.5 64 -175.5 176t-64 249t64 248.5t175.5 175.5t248.5 64t248.5 -64t175.5 -175.5t64 -248.5t-64 -249t-175.5 -176t-248.5 -64t-248.5 64zM175.5 146.5q55.5 -98.5 153 -155t217.5 -56.5t217.5 56.5t153 155t55.5 220.5t-55.5 221t-153 155.5
t-217.5 56.5t-217.5 -56.5t-153 -155.5t-55.5 -221t55.5 -220.5zM372.5 333.5q32.5 29.5 92.5 42.5v20q-46 11 -71.5 34.5t-25.5 68.5q0 59 50 87.5t128 28.5t128 -28.5t50 -87.5q0 -44 -25 -68t-72 -35v-20q125 -27 125 -126q0 -67 -55 -105t-151 -38t-151 38t-55 105
q0 54 32.5 83.5zM446 192.5q33 -24.5 100 -24.5q66 0 99 24.5t33 68.5q0 43 -32.5 67.5t-99.5 24.5t-100 -24.5t-33 -67.5q0 -44 33 -68.5zM467 432.5q26 -15.5 79 -15.5q52 0 78 15.5t26 52.5t-26 53t-78 16t-78.5 -16t-26.5 -53t26 -52.5z" />
    <glyph glyph-name="uni2468" unicode="&#x2468;" horiz-adv-x="1092" 
d="M297.5 -58q-111.5 64 -175.5 176t-64 249t64 248.5t175.5 175.5t248.5 64t248.5 -64t175.5 -175.5t64 -248.5t-64 -249t-175.5 -176t-248.5 -64t-248.5 64zM175.5 146.5q55.5 -98.5 153 -155t217.5 -56.5t217.5 56.5t153 155t55.5 220.5t-55.5 221t-153 155.5
t-217.5 56.5t-217.5 -56.5t-153 -155.5t-55.5 -221t55.5 -220.5zM394.5 565q52.5 50 143.5 50q101 0 156.5 -60.5t55.5 -176.5q0 -124 -54 -194t-183 -70h-134v64h139q158 0 178 158l18 39h-19q-13 -57 -57.5 -88.5t-113.5 -31.5q-83 0 -132.5 48.5t-49.5 126.5
q0 85 52.5 135zM449 345.5q34 -30.5 91 -30.5q65 0 100.5 31t35.5 86q0 50 -35 85t-98 35q-61 0 -94.5 -31.5t-33.5 -90.5q0 -54 34 -84.5z" />
    <glyph glyph-name="uni24EA" unicode="&#x24ea;" horiz-adv-x="1092" 
d="M297.5 -58q-111.5 64 -175.5 176t-64 249t64 248.5t175.5 175.5t248.5 64t248.5 -64t175.5 -175.5t64 -248.5t-64 -249t-175.5 -176t-248.5 -64t-248.5 64zM175.5 146.5q55.5 -98.5 153 -155t217.5 -56.5t217.5 56.5t153 155t55.5 220.5t-55.5 221t-153 155.5
t-217.5 56.5t-217.5 -56.5t-153 -155.5t-55.5 -221t55.5 -220.5zM387.5 544.5q57.5 70.5 159.5 70.5t159 -70.5t57 -183.5t-57 -183.5t-159 -70.5t-159.5 70.5t-57.5 183.5t57.5 183.5zM422 257l217 259q-36 36 -92 36q-69 0 -106 -51.5t-37 -139.5q0 -60 18 -104zM547 171
q68 0 105 51.5t37 138.5q0 62 -18 105l-217 -259q36 -36 93 -36z" />
    <glyph glyph-name="uni24FF" unicode="&#x24ff;" horiz-adv-x="1092" 
d="M297.5 -58q-111.5 64 -175.5 176t-64 249t64 248.5t175.5 175.5t248.5 64t248.5 -64t175.5 -175.5t64 -248.5t-64 -249t-175.5 -176t-248.5 -64t-248.5 64zM387.5 177.5q57.5 -70.5 159.5 -70.5t159 70.5t57 183.5t-57 183.5t-159 70.5t-159.5 -70.5t-57.5 -183.5
t57.5 -183.5zM441 500.5q37 51.5 106 51.5q54 0 92 -36l-217 -259q-18 44 -18 104q0 88 37 139.5zM670 465q19 -42 19 -104q0 -87 -37 -138.5t-105 -51.5q-57 0 -93 36z" />
    <glyph glyph-name="lozenge" unicode="&#x25ca;" horiz-adv-x="547" 
d="M82 352l112 324h160l111 -324l-111 -324h-160zM261 53h25l96 299l-96 299h-25l-97 -299z" />
    <glyph glyph-name="circle" unicode="&#x25cb;" horiz-adv-x="1108" 
d="M305.5 -172q-111.5 64 -175.5 176t-64 249t64 248.5t175.5 175.5t248.5 64t248.5 -64t175.5 -175.5t64 -248.5t-64 -249t-175.5 -176t-248.5 -64t-248.5 64zM183.5 32q55.5 -99 153 -155.5t217.5 -56.5t217.5 56.5t153 155.5t55.5 221t-55.5 221t-153 155.5t-217.5 56.5
t-217.5 -56.5t-153 -155.5t-55.5 -221t55.5 -221z" />
    <glyph glyph-name="uni25CF" unicode="&#x25cf;" horiz-adv-x="1108" 
d="M305.5 -172q-111.5 64 -175.5 176t-64 249t64 248.5t175.5 175.5t248.5 64t248.5 -64t175.5 -175.5t64 -248.5t-64 -249t-175.5 -176t-248.5 -64t-248.5 64z" />
    <glyph glyph-name="uni2776" unicode="&#x2776;" horiz-adv-x="1092" 
d="M297.5 -58q-111.5 64 -175.5 176t-64 249t64 248.5t175.5 175.5t248.5 64t248.5 -64t175.5 -175.5t64 -248.5t-64 -249t-175.5 -176t-248.5 -64t-248.5 64zM375 331q89 28 124.5 93t41.5 164h19l-12 -46v-428h74v494h-147q-1 -79 -29.5 -132t-95.5 -81z" />
    <glyph glyph-name="uni2777" unicode="&#x2777;" horiz-adv-x="1092" 
d="M297.5 -58q-111.5 64 -175.5 176t-64 249t64 248.5t175.5 175.5t248.5 64t248.5 -64t175.5 -175.5t64 -248.5t-64 -249t-175.5 -176t-248.5 -64t-248.5 64zM421 374q0 178 142 178q54 0 81 -27t27 -76q0 -102 -106.5 -147t-209.5 -59v-129h389v64h-320l-49 -13v20
q173 29 271 91t98 172q0 80 -49.5 123.5t-131.5 43.5q-97 0 -156 -59t-59 -182h73z" />
    <glyph glyph-name="uni2778" unicode="&#x2778;" horiz-adv-x="1092" 
d="M297.5 -58q-111.5 64 -175.5 176t-64 249t64 248.5t175.5 175.5t248.5 64t248.5 -64t175.5 -175.5t64 -248.5t-64 -249t-175.5 -176t-248.5 -64t-248.5 64zM401.5 154.5q55.5 -47.5 153.5 -47.5q88 0 139.5 37.5t51.5 105.5q0 55 -27.5 79.5t-80.5 33.5v19
q50 8 75.5 32.5t25.5 71.5q0 59 -49 94t-135 35q-96 0 -149 -43t-53 -127h73q0 55 30.5 81t96.5 26q112 0 112 -82q0 -67 -78 -67h-68v-61h68q85 0 85 -80q0 -91 -119 -91q-69 0 -101.5 30t-32.5 101h-73q0 -100 55.5 -147.5z" />
    <glyph glyph-name="uni2779" unicode="&#x2779;" horiz-adv-x="1092" 
d="M297.5 -58q-111.5 64 -175.5 176t-64 249t64 248.5t175.5 175.5t248.5 64t248.5 -64t175.5 -175.5t64 -248.5t-64 -249t-175.5 -176t-248.5 -64t-248.5 64zM591 216v-102h74v102h60v63h-60v158h-74v-158h-188l-49 -12v19q123 46 188 128.5t75 193.5h-73
q-9 -95 -65.5 -162.5t-144.5 -97.5v-132h257z" />
    <glyph glyph-name="uni277A" unicode="&#x277a;" horiz-adv-x="1092" 
d="M297.5 -58q-111.5 64 -175.5 176t-64 249t64 248.5t175.5 175.5t248.5 64t248.5 -64t175.5 -175.5t64 -248.5t-64 -249t-175.5 -176t-248.5 -64t-248.5 64zM396 154.5q57 -47.5 152 -47.5q94 0 149.5 50t55.5 138q0 83 -45.5 128t-124.5 45q-106 0 -150 -91l-17 10
l33 158h268v63h-328l-42 -205l97 -58q47 62 118 62q55 0 86.5 -29t31.5 -83q0 -59 -34.5 -91.5t-96.5 -32.5q-67 0 -102 31t-35 90h-73q0 -90 57 -137.5z" />
    <glyph glyph-name="uni277B" unicode="&#x277b;" horiz-adv-x="1092" 
d="M297.5 -58q-111.5 64 -175.5 176t-64 249t64 248.5t175.5 175.5t248.5 64t248.5 -64t175.5 -175.5t64 -248.5t-64 -249t-175.5 -176t-248.5 -64t-248.5 64zM397.5 167.5q55.5 -60.5 155.5 -60.5q92 0 144.5 50t52.5 135q0 78 -49.5 126t-133.5 48q-68 0 -113 -31.5
t-56 -87.5h-20l18 39q21 159 177 159h139v63h-134q-129 0 -182.5 -70t-53.5 -193q0 -117 55.5 -177.5zM451 375.5q36 31.5 100 31.5q59 0 92 -30.5t33 -84.5q0 -59 -33 -90t-94 -31q-64 0 -99 34.5t-35 84.5q0 54 36 85.5z" />
    <glyph glyph-name="uni277C" unicode="&#x277c;" horiz-adv-x="1092" 
d="M297.5 -58q-111.5 64 -175.5 176t-64 249t64 248.5t175.5 175.5t248.5 64t248.5 -64t175.5 -175.5t64 -248.5t-64 -249t-175.5 -176t-248.5 -64t-248.5 64zM662 545l47 12v-19q-134 -60 -201 -163.5t-67 -260.5h76q0 144 51 234t160 143v117h-363v-63h297z" />
    <glyph glyph-name="uni277D" unicode="&#x277d;" horiz-adv-x="1092" 
d="M297.5 -58q-111.5 64 -175.5 176t-64 249t64 248.5t175.5 175.5t248.5 64t248.5 -64t175.5 -175.5t64 -248.5t-64 -249t-175.5 -176t-248.5 -64t-248.5 64zM395 145q55 -38 151 -38t151 38t55 105q0 99 -125 126v20q47 11 72 35t25 68q0 59 -50 87.5t-128 28.5
t-128 -28.5t-50 -87.5q0 -45 25.5 -68.5t71.5 -34.5v-20q-60 -13 -92.5 -42.5t-32.5 -83.5q0 -67 55 -105zM446 328.5q33 24.5 100 24.5t99.5 -24.5t32.5 -67.5q0 -44 -33 -68.5t-99 -24.5q-67 0 -100 24.5t-33 68.5q0 43 33 67.5zM467.5 538q26.5 16 78.5 16t78 -16t26 -53
t-26 -52.5t-78 -15.5q-53 0 -79 15.5t-26 52.5t26.5 53z" />
    <glyph glyph-name="uni277E" unicode="&#x277e;" horiz-adv-x="1092" 
d="M297.5 -58q-111.5 64 -175.5 176t-64 249t64 248.5t175.5 175.5t248.5 64t248.5 -64t175.5 -175.5t64 -248.5t-64 -249t-175.5 -176t-248.5 -64t-248.5 64zM391.5 303.5q49.5 -48.5 132.5 -48.5q69 0 113.5 31.5t57.5 88.5h19l-18 -39q-20 -158 -178 -158h-139v-64h134
q129 0 183 70t54 194q0 116 -55.5 176.5t-156.5 60.5q-91 0 -143.5 -50t-52.5 -135q0 -78 49.5 -126.5zM448.5 520.5q33.5 31.5 94.5 31.5q63 0 98 -35t35 -85q0 -55 -35.5 -86t-100.5 -31q-57 0 -91 30.5t-34 84.5q0 59 33.5 90.5z" />
    <glyph glyph-name="uniA78B" unicode="&#xa78b;" horiz-adv-x="244" 
d="M161 706v-260h-82v260h82z" />
    <glyph glyph-name="uniA78C" unicode="&#xa78c;" horiz-adv-x="244" 
d="M161 745v-260h-82v260h82z" />
    <glyph glyph-name="uni004A0301" horiz-adv-x="543" 
d="M33 0v78h228q71 0 101 42.5t30 126.5v380h-258v78h279q38 0 53.5 -14.5t15.5 -50.5v-418q0 -108 -51.5 -165t-148.5 -57h-249zM143 852l314 80l17 -68l-314 -80z" />
    <glyph glyph-name="M.001" horiz-adv-x="921" 
d="M72 705h189l187 -680h25l188 680h188v-705h-91v593l9 87h-26l-189 -680h-182l-190 680h-26l9 -87v-593h-91v705z" />
    <glyph glyph-name="uni013B.loclMAH" horiz-adv-x="547" 
d="M88.5 16q-16.5 16 -16.5 47v642h91v-627h353v-78h-381q-30 0 -46.5 16zM351 -71l-54 -165l-76 21l54 166z" />
    <glyph glyph-name="uni0145.loclMAH" horiz-adv-x="762" 
d="M72 705h182l336 -680h25l-15 63v617h90v-705h-182l-335 680h-26l16 -63v-617h-91v705zM413 -71l-54 -165l-76 21l54 166z" />
    <glyph glyph-name="G.ss03" horiz-adv-x="821" 
d="M99.5 539.5q41.5 82.5 118 129.5t177.5 47q129 0 207 -71.5t94 -191.5h-92q-13 89 -63 137t-146 48q-118 0 -181.5 -78.5t-63.5 -206.5q0 -133 54 -209.5t168 -76.5q102 0 150.5 59t46.5 179h-232v74h349q64 0 64 -59v-320h-91v254l16 99h-26q-1 -364 -278 -364
q-102 0 -172 46.5t-105.5 129t-35.5 188.5q0 104 41.5 186.5z" />
    <glyph glyph-name="Gbreve.ss03" horiz-adv-x="821" 
d="M99.5 539.5q41.5 82.5 118 129.5t177.5 47q129 0 207 -71.5t94 -191.5h-92q-13 89 -63 137t-146 48q-118 0 -181.5 -78.5t-63.5 -206.5q0 -133 54 -209.5t168 -76.5q102 0 150.5 59t46.5 179h-232v74h349q64 0 64 -59v-320h-91v254l16 99h-26q-1 -364 -278 -364
q-102 0 -172 46.5t-105.5 129t-35.5 188.5q0 104 41.5 186.5zM274.5 818.5q-42.5 48.5 -42.5 126.5h72q0 -56 20.5 -81t66.5 -25t66.5 25t20.5 81h72q0 -78 -42.5 -126.5t-116.5 -48.5t-116.5 48.5z" />
    <glyph glyph-name="uni0122.ss03" horiz-adv-x="821" 
d="M99.5 539.5q41.5 82.5 118 129.5t177.5 47q129 0 207 -71.5t94 -191.5h-92q-13 89 -63 137t-146 48q-118 0 -181.5 -78.5t-63.5 -206.5q0 -133 54 -209.5t168 -76.5q102 0 150.5 59t46.5 179h-232v74h349q64 0 64 -59v-320h-91v254l16 99h-26q-1 -364 -278 -364
q-102 0 -172 46.5t-105.5 129t-35.5 188.5q0 104 41.5 186.5zM402 -71l-54 -165l-76 21l54 166z" />
    <glyph glyph-name="Gdotaccent.ss03" horiz-adv-x="821" 
d="M99.5 539.5q41.5 82.5 118 129.5t177.5 47q129 0 207 -71.5t94 -191.5h-92q-13 89 -63 137t-146 48q-118 0 -181.5 -78.5t-63.5 -206.5q0 -133 54 -209.5t168 -76.5q102 0 150.5 59t46.5 179h-232v74h349q64 0 64 -59v-320h-91v254l16 99h-26q-1 -364 -278 -364
q-102 0 -172 46.5t-105.5 129t-35.5 188.5q0 104 41.5 186.5zM339 809q-20 19 -20 48t20 48t50 19t51 -19t21 -48t-21 -48t-51 -19t-50 19z" />
    <glyph glyph-name="R.ss04" horiz-adv-x="678" 
d="M72 705h262q135 0 206 -42.5t71 -148.5q0 -81 -47 -130t-141 -47v-25q24 -6 40.5 -15.5t34 -32.5t39.5 -66l101 -198h-107l-94 192q-18 39 -32.5 58t-34.5 26t-56 7h-149v-283h-93v705zM334 358q63 0 102.5 10t61 39t21.5 84q0 56 -22 85t-61 39t-102 10h-169v-267h169z
" />
    <glyph glyph-name="Racute.ss04" horiz-adv-x="678" 
d="M72 705h262q135 0 206 -42.5t71 -148.5q0 -81 -47 -130t-141 -47v-25q24 -6 40.5 -15.5t34 -32.5t39.5 -66l101 -198h-107l-94 192q-18 39 -32.5 58t-34.5 26t-56 7h-149v-283h-93v705zM334 358q63 0 102.5 10t61 39t21.5 84q0 56 -22 85t-61 39t-102 10h-169v-267h169z
M174 852l314 80l17 -68l-314 -80z" />
    <glyph glyph-name="Rcaron.ss04" horiz-adv-x="678" 
d="M72 705h262q135 0 206 -42.5t71 -148.5q0 -81 -47 -130t-141 -47v-25q24 -6 40.5 -15.5t34 -32.5t39.5 -66l101 -198h-107l-94 192q-18 39 -32.5 58t-34.5 26t-56 7h-149v-283h-93v705zM334 358q63 0 102.5 10t61 39t21.5 84q0 56 -22 85t-61 39t-102 10h-169v-267h169z
M227 951l116 -94l115 94l51 -49l-166 -133l-167 133z" />
    <glyph glyph-name="uni0156.ss04" horiz-adv-x="678" 
d="M72 705h262q135 0 206 -42.5t71 -148.5q0 -81 -47 -130t-141 -47v-25q24 -6 40.5 -15.5t34 -32.5t39.5 -66l101 -198h-107l-94 192q-18 39 -32.5 58t-34.5 26t-56 7h-149v-283h-93v705zM334 358q63 0 102.5 10t61 39t21.5 84q0 56 -22 85t-61 39t-102 10h-169v-267h169z
M374 -71l-54 -165l-76 21l54 166z" />
    <glyph glyph-name="Y.ss07" horiz-adv-x="665" 
d="M634 705l-257 -446v-259h-90v259l-256 446h97l191 -338v-61h26v61l191 338h98z" />
    <glyph glyph-name="Yacute.ss07" horiz-adv-x="665" 
d="M634 705l-257 -446v-259h-90v259l-256 446h97l191 -338v-61h26v61l191 338h98zM164 852l314 80l17 -68l-314 -80z" />
    <glyph glyph-name="Ycircumflex.ss07" horiz-adv-x="665" 
d="M634 705l-257 -446v-259h-90v259l-256 446h97l191 -338v-61h26v61l191 338h98zM447 767l-115 94l-116 -94l-51 50l167 133l166 -133z" />
    <glyph glyph-name="Ydieresis.ss07" horiz-adv-x="665" 
d="M634 705l-257 -446v-259h-90v259l-256 446h97l191 -338v-61h26v61l191 338h98zM176.5 803q-20.5 20 -20.5 50t20.5 50t51.5 20q32 0 53 -20t21 -50t-21 -50t-53 -20q-31 0 -51.5 20zM383 903q21 20 52 20t52.5 -20t21.5 -50t-21.5 -50t-52.5 -20t-52 20t-21 50t21 50z
" />
    <glyph glyph-name="Ygrave.ss07" horiz-adv-x="665" 
d="M634 705l-257 -446v-259h-90v259l-256 446h97l191 -338v-61h26v61l191 338h98zM483 784l-314 80l17 68l314 -80z" />
    <glyph glyph-name="uni1EF8.ss07" horiz-adv-x="665" 
d="M634 705l-257 -446v-259h-90v259l-256 446h97l191 -338v-61h26v61l191 338h98zM175.5 904.5q28.5 34.5 77.5 34.5q33 0 55 -13t47 -37q18 -16 28.5 -23t22.5 -7q19 0 30 14.5t11 55.5h71q0 -72 -28.5 -106.5t-77.5 -34.5q-33 0 -55 13t-47 37q-16 15 -27.5 22.5
t-23.5 7.5q-19 0 -29.5 -14.5t-10.5 -55.5h-72q0 72 28.5 106.5z" />
    <glyph glyph-name="i.loclTRK" horiz-adv-x="443" 
d="M52 76h138v345h-103v76h129q56 0 56 -58v-363h139v-76h-359v76zM170 601q-20 19 -20 48t20 48t50 19t51 -19t21 -48t-21 -48t-51 -19t-50 19z" />
    <glyph glyph-name="uni006A0301" horiz-adv-x="302" 
d="M138.5 8.5q3.5 16.5 3.5 42.5v370h-105v76h130q31 0 47 -13.5t16 -43.5v-405q0 -25 -4 -41t-15 -38l-76 -146h-96l84 161q12 21 15.5 37.5zM9 644l314 80l17 -68l-314 -80z" />
    <glyph glyph-name="uni013C.loclMAH" horiz-adv-x="441" 
d="M42 76h139v583h-104v76h141q25 0 38.5 -12.5t13.5 -37.5v-609h139v-76h-367v76zM256 -71l-54 -165l-76 21l54 166z" />
    <glyph glyph-name="uni0146.loclMAH" horiz-adv-x="607" 
d="M70 497h89v-83l-15 -60h25q16 70 64.5 111.5t126.5 41.5q87 0 137 -52t50 -154v-301h-88v289q0 76 -30 109t-94 33q-79 0 -127.5 -57t-48.5 -156v-218h-89v497zM342 -71l-54 -165l-76 21l54 166z" />
    <glyph glyph-name="a.ss01" horiz-adv-x="656" 
d="M161.5 24q-53.5 34 -82.5 92.5t-29 132.5q0 73 29 132t82.5 92.5t124.5 33.5q81 0 132 -38t69 -100h25l-15 59v69h88v-497h-88v69l15 60h-25q-18 -62 -69 -100.5t-132 -38.5q-71 0 -124.5 34zM186.5 111.5q47.5 -45.5 127.5 -45.5q81 0 132 46t51 137t-51 136.5
t-132 45.5q-80 0 -127.5 -45t-47.5 -137t47.5 -137.5z" />
    <glyph glyph-name="aacute.ss01" horiz-adv-x="656" 
d="M161.5 24q-53.5 34 -82.5 92.5t-29 132.5q0 73 29 132t82.5 92.5t124.5 33.5q81 0 132 -38t69 -100h25l-15 59v69h88v-497h-88v69l15 60h-25q-18 -62 -69 -100.5t-132 -38.5q-71 0 -124.5 34zM186.5 111.5q47.5 -45.5 127.5 -45.5q81 0 132 46t51 137t-51 136.5
t-132 45.5q-80 0 -127.5 -45t-47.5 -137t47.5 -137.5zM157 644l314 80l17 -68l-314 -80z" />
    <glyph glyph-name="abreve.ss01" horiz-adv-x="656" 
d="M161.5 24q-53.5 34 -82.5 92.5t-29 132.5q0 73 29 132t82.5 92.5t124.5 33.5q81 0 132 -38t69 -100h25l-15 59v69h88v-497h-88v69l15 60h-25q-18 -62 -69 -100.5t-132 -38.5q-71 0 -124.5 34zM186.5 111.5q47.5 -45.5 127.5 -45.5q81 0 132 46t51 137t-51 136.5
t-132 45.5q-80 0 -127.5 -45t-47.5 -137t47.5 -137.5zM209.5 610.5q-42.5 48.5 -42.5 126.5h72q0 -56 20.5 -81t66.5 -25t66.5 25t20.5 81h72q0 -78 -42.5 -126.5t-116.5 -48.5t-116.5 48.5z" />
    <glyph glyph-name="acircumflex.ss01" horiz-adv-x="656" 
d="M161.5 24q-53.5 34 -82.5 92.5t-29 132.5q0 73 29 132t82.5 92.5t124.5 33.5q81 0 132 -38t69 -100h25l-15 59v69h88v-497h-88v69l15 60h-25q-18 -62 -69 -100.5t-132 -38.5q-71 0 -124.5 34zM186.5 111.5q47.5 -45.5 127.5 -45.5q81 0 132 46t51 137t-51 136.5
t-132 45.5q-80 0 -127.5 -45t-47.5 -137t47.5 -137.5zM441 559l-115 94l-116 -94l-51 50l167 133l166 -133z" />
    <glyph glyph-name="adieresis.ss01" horiz-adv-x="656" 
d="M161.5 24q-53.5 34 -82.5 92.5t-29 132.5q0 73 29 132t82.5 92.5t124.5 33.5q81 0 132 -38t69 -100h25l-15 59v69h88v-497h-88v69l15 60h-25q-18 -62 -69 -100.5t-132 -38.5q-71 0 -124.5 34zM186.5 111.5q47.5 -45.5 127.5 -45.5q81 0 132 46t51 137t-51 136.5
t-132 45.5q-80 0 -127.5 -45t-47.5 -137t47.5 -137.5zM169.5 595q-20.5 20 -20.5 50t20.5 50t51.5 20q32 0 53 -20t21 -50t-21 -50t-53 -20q-31 0 -51.5 20zM376 695q21 20 52 20t52.5 -20t21.5 -50t-21.5 -50t-52.5 -20t-52 20t-21 50t21 50z" />
    <glyph glyph-name="agrave.ss01" horiz-adv-x="656" 
d="M161.5 24q-53.5 34 -82.5 92.5t-29 132.5q0 73 29 132t82.5 92.5t124.5 33.5q81 0 132 -38t69 -100h25l-15 59v69h88v-497h-88v69l15 60h-25q-18 -62 -69 -100.5t-132 -38.5q-71 0 -124.5 34zM186.5 111.5q47.5 -45.5 127.5 -45.5q81 0 132 46t51 137t-51 136.5
t-132 45.5q-80 0 -127.5 -45t-47.5 -137t47.5 -137.5zM476 576l-314 80l17 68l314 -80z" />
    <glyph glyph-name="amacron.ss01" horiz-adv-x="656" 
d="M161.5 24q-53.5 34 -82.5 92.5t-29 132.5q0 73 29 132t82.5 92.5t124.5 33.5q81 0 132 -38t69 -100h25l-15 59v69h88v-497h-88v69l15 60h-25q-18 -62 -69 -100.5t-132 -38.5q-71 0 -124.5 34zM186.5 111.5q47.5 -45.5 127.5 -45.5q81 0 132 46t51 137t-51 136.5
t-132 45.5q-80 0 -127.5 -45t-47.5 -137t47.5 -137.5zM492 687v-71l-332 -1v72h332z" />
    <glyph glyph-name="aogonek.ss01" horiz-adv-x="656" 
d="M161.5 24q-53.5 34 -82.5 92.5t-29 132.5q0 73 29 132t82.5 92.5t124.5 33.5q81 0 132 -38t69 -100h25l-15 59v69h88l-1 -497l-61 -122l181 1v-72h-196q-30 0 -47.5 14t-17.5 37q0 16 11 36l56 106h-13v69l15 60h-25q-18 -62 -69 -100.5t-132 -38.5q-71 0 -124.5 34z
M186.5 111.5q47.5 -45.5 127.5 -45.5q81 0 132 46t51 137t-51 136.5t-132 45.5q-80 0 -127.5 -45t-47.5 -137t47.5 -137.5z" />
    <glyph glyph-name="aring.ss01" horiz-adv-x="656" 
d="M161.5 24q-53.5 34 -82.5 92.5t-29 132.5q0 73 29 132t82.5 92.5t124.5 33.5q81 0 132 -38t69 -100h25l-15 59v69h88v-497h-88v69l15 60h-25q-18 -62 -69 -100.5t-132 -38.5q-71 0 -124.5 34zM186.5 111.5q47.5 -45.5 127.5 -45.5q81 0 132 46t51 137t-51 136.5
t-132 45.5q-80 0 -127.5 -45t-47.5 -137t47.5 -137.5zM235.5 590.5q-32.5 31.5 -32.5 78.5q0 46 32.5 77.5t88.5 31.5q57 0 90 -31.5t33 -77.5t-33.5 -78t-89.5 -32t-88.5 31.5zM285.5 634.5q13.5 -12.5 38.5 -12.5q26 0 40 12.5t14 34.5q0 21 -14.5 33t-39.5 12t-38.5 -12
t-13.5 -33q0 -22 13.5 -34.5z" />
    <glyph glyph-name="atilde.ss01" horiz-adv-x="656" 
d="M161.5 24q-53.5 34 -82.5 92.5t-29 132.5q0 73 29 132t82.5 92.5t124.5 33.5q81 0 132 -38t69 -100h25l-15 59v69h88v-497h-88v69l15 60h-25q-18 -62 -69 -100.5t-132 -38.5q-71 0 -124.5 34zM186.5 111.5q47.5 -45.5 127.5 -45.5q81 0 132 46t51 137t-51 136.5
t-132 45.5q-80 0 -127.5 -45t-47.5 -137t47.5 -137.5zM168.5 696.5q28.5 34.5 77.5 34.5q33 0 55 -13t47 -37q18 -16 28.5 -23t22.5 -7q19 0 30 14.5t11 55.5h71q0 -72 -28.5 -106.5t-77.5 -34.5q-33 0 -55 13t-47 37q-16 15 -27.5 22.5t-23.5 7.5q-19 0 -29.5 -14.5
t-10.5 -55.5h-72q0 72 28.5 106.5z" />
    <glyph glyph-name="r.ss02" horiz-adv-x="420" 
d="M71 497h90v-83l-17 -60h26q14 67 57.5 105.5t114.5 38.5h65v-77h-92q-72 0 -113 -55t-41 -151v-215h-90v497z" />
    <glyph glyph-name="racute.ss02" horiz-adv-x="420" 
d="M71 497h90v-83l-17 -60h26q14 67 57.5 105.5t114.5 38.5h65v-77h-92q-72 0 -113 -55t-41 -151v-215h-90v497zM16 644l314 80l17 -68l-314 -80z" />
    <glyph glyph-name="rcaron.ss02" horiz-adv-x="420" 
d="M71 497h90v-83l-17 -60h26q14 67 57.5 105.5t114.5 38.5h65v-77h-92q-72 0 -113 -55t-41 -151v-215h-90v497zM68 743l116 -94l115 94l51 -49l-166 -133l-167 133z" />
    <glyph glyph-name="uni0157.ss02" horiz-adv-x="420" 
d="M71 497h90v-83l-17 -60h26q14 67 57.5 105.5t114.5 38.5h65v-77h-92q-72 0 -113 -55t-41 -151v-215h-90v497zM216 -71l-54 -165l-76 21l54 166z" />
    <glyph glyph-name="g.ss05" horiz-adv-x="657" 
d="M148 -111q114 0 182 6.5t102.5 24t34.5 49.5q0 33 -25 47t-71 14q-38 0 -85.5 -7.5t-128.5 -22.5l-38 -7l-11 57q157 29 241 56v25q-34 -9 -72 -9q-59 0 -111 22t-84 64.5t-32 102.5q0 65 34 109t90.5 65.5t123.5 21.5q109 0 179 -53q28 28 51 35.5t61 7.5h44v-76h-42
q-42 0 -68 -17q31 -49 31 -108q0 -81 -58 -137.5t-170 -95.5v-2q36 7 77 7q68 0 111 -27t43 -85q0 -50 -36.5 -80.5t-126.5 -46t-250 -15.5l-72 1v74h76zM182 209.5q44 -33.5 120 -33.5q77 0 120 33.5t43 98.5q0 64 -44.5 98t-118.5 34q-75 0 -119.5 -34t-44.5 -98
q0 -65 44 -98.5z" />
    <glyph glyph-name="gbreve.ss05" horiz-adv-x="657" 
d="M148 -111q114 0 182 6.5t102.5 24t34.5 49.5q0 33 -25 47t-71 14q-38 0 -85.5 -7.5t-128.5 -22.5l-38 -7l-11 57q157 29 241 56v25q-34 -9 -72 -9q-59 0 -111 22t-84 64.5t-32 102.5q0 65 34 109t90.5 65.5t123.5 21.5q109 0 179 -53q28 28 51 35.5t61 7.5h44v-76h-42
q-42 0 -68 -17q31 -49 31 -108q0 -81 -58 -137.5t-170 -95.5v-2q36 7 77 7q68 0 111 -27t43 -85q0 -50 -36.5 -80.5t-126.5 -46t-250 -15.5l-72 1v74h76zM182 209.5q44 -33.5 120 -33.5q77 0 120 33.5t43 98.5q0 64 -44.5 98t-118.5 34q-75 0 -119.5 -34t-44.5 -98
q0 -65 44 -98.5zM185.5 610.5q-42.5 48.5 -42.5 126.5h72q0 -56 20.5 -81t66.5 -25t66.5 25t20.5 81h72q0 -78 -42.5 -126.5t-116.5 -48.5t-116.5 48.5z" />
    <glyph glyph-name="gcircumflex.ss05" horiz-adv-x="657" 
d="M148 -111q114 0 182 6.5t102.5 24t34.5 49.5q0 33 -25 47t-71 14q-38 0 -85.5 -7.5t-128.5 -22.5l-38 -7l-11 57q157 29 241 56v25q-34 -9 -72 -9q-59 0 -111 22t-84 64.5t-32 102.5q0 65 34 109t90.5 65.5t123.5 21.5q109 0 179 -53q28 28 51 35.5t61 7.5h44v-76h-42
q-42 0 -68 -17q31 -49 31 -108q0 -81 -58 -137.5t-170 -95.5v-2q36 7 77 7q68 0 111 -27t43 -85q0 -50 -36.5 -80.5t-126.5 -46t-250 -15.5l-72 1v74h76zM182 209.5q44 -33.5 120 -33.5q77 0 120 33.5t43 98.5q0 64 -44.5 98t-118.5 34q-75 0 -119.5 -34t-44.5 -98
q0 -65 44 -98.5zM417 559l-115 94l-116 -94l-51 50l167 133l166 -133z" />
    <glyph glyph-name="uni0123.ss05" horiz-adv-x="657" 
d="M148 -111q114 0 182 6.5t102.5 24t34.5 49.5q0 33 -25 47t-71 14q-38 0 -85.5 -7.5t-128.5 -22.5l-38 -7l-11 57q157 29 241 56v25q-34 -9 -72 -9q-59 0 -111 22t-84 64.5t-32 102.5q0 65 34 109t90.5 65.5t123.5 21.5q109 0 179 -53q28 28 51 35.5t61 7.5h44v-76h-42
q-42 0 -68 -17q31 -49 31 -108q0 -81 -58 -137.5t-170 -95.5v-2q36 7 77 7q68 0 111 -27t43 -85q0 -50 -36.5 -80.5t-126.5 -46t-250 -15.5l-72 1v74h76zM182 209.5q44 -33.5 120 -33.5q77 0 120 33.5t43 98.5q0 64 -44.5 98t-118.5 34q-75 0 -119.5 -34t-44.5 -98
q0 -65 44 -98.5zM396 758l-53 -184l-77 20l53 185z" />
    <glyph glyph-name="gdotaccent.ss05" horiz-adv-x="657" 
d="M148 -111q114 0 182 6.5t102.5 24t34.5 49.5q0 33 -25 47t-71 14q-38 0 -85.5 -7.5t-128.5 -22.5l-38 -7l-11 57q157 29 241 56v25q-34 -9 -72 -9q-59 0 -111 22t-84 64.5t-32 102.5q0 65 34 109t90.5 65.5t123.5 21.5q109 0 179 -53q28 28 51 35.5t61 7.5h44v-76h-42
q-42 0 -68 -17q31 -49 31 -108q0 -81 -58 -137.5t-170 -95.5v-2q36 7 77 7q68 0 111 -27t43 -85q0 -50 -36.5 -80.5t-126.5 -46t-250 -15.5l-72 1v74h76zM182 209.5q44 -33.5 120 -33.5q77 0 120 33.5t43 98.5q0 64 -44.5 98t-118.5 34q-75 0 -119.5 -34t-44.5 -98
q0 -65 44 -98.5zM250 601q-20 19 -20 48t20 48t50 19t51 -19t21 -48t-21 -48t-51 -19t-50 19z" />
    <glyph glyph-name="uni1E21.ss05" horiz-adv-x="657" 
d="M148 -111q114 0 182 6.5t102.5 24t34.5 49.5q0 33 -25 47t-71 14q-38 0 -85.5 -7.5t-128.5 -22.5l-38 -7l-11 57q157 29 241 56v25q-34 -9 -72 -9q-59 0 -111 22t-84 64.5t-32 102.5q0 65 34 109t90.5 65.5t123.5 21.5q109 0 179 -53q28 28 51 35.5t61 7.5h44v-76h-42
q-42 0 -68 -17q31 -49 31 -108q0 -81 -58 -137.5t-170 -95.5v-2q36 7 77 7q68 0 111 -27t43 -85q0 -50 -36.5 -80.5t-126.5 -46t-250 -15.5l-72 1v74h76zM182 209.5q44 -33.5 120 -33.5q77 0 120 33.5t43 98.5q0 64 -44.5 98t-118.5 34q-75 0 -119.5 -34t-44.5 -98
q0 -65 44 -98.5zM468 687v-71l-332 -1v72h332z" />
    <glyph glyph-name="k.ss06" horiz-adv-x="569" 
d="M70 735h89v-474l261 137v99h85v-99q0 -45 -41 -65l-123 -65l194 -268h-102l-166 229l-108 -57v-172h-89v735z" />
    <glyph glyph-name="uni0137.ss06" horiz-adv-x="569" 
d="M70 735h89v-474l261 137v99h85v-99q0 -45 -41 -65l-123 -65l194 -268h-102l-166 229l-108 -57v-172h-89v735zM320 -71l-54 -165l-76 21l54 166z" />
    <glyph glyph-name="y.ss07" horiz-adv-x="558" 
d="M541 497l-217 -490v-145q0 -57 -56 -57h-211v78h178v124l-218 490h96l154 -373v-42h25v42l152 373h97z" />
    <glyph glyph-name="yacute.ss07" horiz-adv-x="558" 
d="M541 497l-217 -490v-145q0 -57 -56 -57h-211v78h178v124l-218 490h96l154 -373v-42h25v42l152 373h97zM111 644l314 80l17 -68l-314 -80z" />
    <glyph glyph-name="ycircumflex.ss07" horiz-adv-x="558" 
d="M541 497l-217 -490v-145q0 -57 -56 -57h-211v78h178v124l-218 490h96l154 -373v-42h25v42l152 373h97zM394 559l-115 94l-116 -94l-51 50l167 133l166 -133z" />
    <glyph glyph-name="ydieresis.ss07" horiz-adv-x="558" 
d="M541 497l-217 -490v-145q0 -57 -56 -57h-211v78h178v124l-218 490h96l154 -373v-42h25v42l152 373h97zM123.5 595q-20.5 20 -20.5 50t20.5 50t51.5 20q32 0 53 -20t21 -50t-21 -50t-53 -20q-31 0 -51.5 20zM330 695q21 20 52 20t52.5 -20t21.5 -50t-21.5 -50t-52.5 -20
t-52 20t-21 50t21 50z" />
    <glyph glyph-name="ygrave.ss07" horiz-adv-x="558" 
d="M541 497l-217 -490v-145q0 -57 -56 -57h-211v78h178v124l-218 490h96l154 -373v-42h25v42l152 373h97zM430 576l-314 80l17 68l314 -80z" />
    <glyph glyph-name="uni1EF9.ss07" horiz-adv-x="558" 
d="M541 497l-217 -490v-145q0 -57 -56 -57h-211v78h178v124l-218 490h96l154 -373v-42h25v42l152 373h97zM122.5 696.5q28.5 34.5 77.5 34.5q33 0 55 -13t47 -37q18 -16 28.5 -23t22.5 -7q19 0 30 14.5t11 55.5h71q0 -72 -28.5 -106.5t-77.5 -34.5q-33 0 -55 13t-47 37
q-16 15 -27.5 22.5t-23.5 7.5q-19 0 -29.5 -14.5t-10.5 -55.5h-72q0 72 28.5 106.5z" />
    <glyph glyph-name="r.ss08" horiz-adv-x="498" 
d="M52 76h97v345h-97v76h127q28 0 43 -12t15 -36v-46l-17 -49h25q15 67 58.5 105.5t114.5 38.5h64v-77h-91q-73 0 -114 -55t-41 -151v-139h172v-76h-356v76z" />
    <glyph glyph-name="racute.ss08" horiz-adv-x="498" 
d="M52 76h97v345h-97v76h127q28 0 43 -12t15 -36v-46l-17 -49h25q15 67 58.5 105.5t114.5 38.5h64v-77h-91q-73 0 -114 -55t-41 -151v-139h172v-76h-356v76zM71 644l314 80l17 -68l-314 -80z" />
    <glyph glyph-name="rcaron.ss08" horiz-adv-x="498" 
d="M52 76h97v345h-97v76h127q28 0 43 -12t15 -36v-46l-17 -49h25q15 67 58.5 105.5t114.5 38.5h64v-77h-91q-73 0 -114 -55t-41 -151v-139h172v-76h-356v76zM124 743l116 -94l115 94l51 -49l-166 -133l-167 133z" />
    <glyph glyph-name="uni0157.ss08" horiz-adv-x="498" 
d="M52 76h97v345h-97v76h127q28 0 43 -12t15 -36v-46l-17 -49h25q15 67 58.5 105.5t114.5 38.5h64v-77h-91q-73 0 -114 -55t-41 -151v-139h172v-76h-356v76zM272 -71l-54 -165l-76 21l54 166z" />
    <glyph glyph-name="y.ss10" horiz-adv-x="544" 
d="M67 -120h170l44 120h-101l-160 497h89l152 -472h25l150 472h88l-204 -633q-18 -59 -70 -59h-183v75z" />
    <glyph glyph-name="yacute.ss10" horiz-adv-x="544" 
d="M67 -120h170l44 120h-101l-160 497h89l152 -472h25l150 472h88l-204 -633q-18 -59 -70 -59h-183v75zM104 644l314 80l17 -68l-314 -80z" />
    <glyph glyph-name="ycircumflex.ss10" horiz-adv-x="544" 
d="M67 -120h170l44 120h-101l-160 497h89l152 -472h25l150 472h88l-204 -633q-18 -59 -70 -59h-183v75zM387 559l-115 94l-116 -94l-51 50l167 133l166 -133z" />
    <glyph glyph-name="ydieresis.ss10" horiz-adv-x="544" 
d="M67 -120h170l44 120h-101l-160 497h89l152 -472h25l150 472h88l-204 -633q-18 -59 -70 -59h-183v75zM116.5 595q-20.5 20 -20.5 50t20.5 50t51.5 20q32 0 53 -20t21 -50t-21 -50t-53 -20q-31 0 -51.5 20zM323 695q21 20 52 20t52.5 -20t21.5 -50t-21.5 -50t-52.5 -20
t-52 20t-21 50t21 50z" />
    <glyph glyph-name="ygrave.ss10" horiz-adv-x="544" 
d="M67 -120h170l44 120h-101l-160 497h89l152 -472h25l150 472h88l-204 -633q-18 -59 -70 -59h-183v75zM423 576l-314 80l17 68l314 -80z" />
    <glyph glyph-name="uni1EF9.ss10" horiz-adv-x="544" 
d="M67 -120h170l44 120h-101l-160 497h89l152 -472h25l150 472h88l-204 -633q-18 -59 -70 -59h-183v75zM115.5 696.5q28.5 34.5 77.5 34.5q33 0 55 -13t47 -37q18 -16 28.5 -23t22.5 -7q19 0 30 14.5t11 55.5h71q0 -72 -28.5 -106.5t-77.5 -34.5q-33 0 -55 13t-47 37
q-16 15 -27.5 22.5t-23.5 7.5q-19 0 -29.5 -14.5t-10.5 -55.5h-72q0 72 28.5 106.5z" />
    <glyph glyph-name="f_i.dlig" horiz-adv-x="777" 
d="M257.5 634q-18.5 -25 -18.5 -75v-62h301q35 0 51 -16.5t16 -52.5v-352h138v-76h-703v76h109v345h-109v76h109v63q0 82 42.5 128.5t131.5 46.5h223v-76h-227q-45 0 -63.5 -25zM518 76v345h-279v-345h279z" />
    <glyph glyph-name="f_t.dlig" horiz-adv-x="794" 
d="M42 497h108v72q0 79 43 122.5t132 43.5h86v-76h-90q-46 0 -64 -21.5t-18 -70.5v-70h248v126l89 27v-153h156v-76h-156v-346l176 1v-76h-195q-35 0 -52.5 17t-17.5 53v351h-248v-345h144v-76h-341v76h108v345h-108v76z" />
    <glyph glyph-name="g_f.ss05_dlig" horiz-adv-x="1021" 
d="M148 -111q114 0 182 6.5t102.5 24t34.5 49.5q0 33 -25 47t-71 14q-38 0 -85.5 -7.5t-128.5 -22.5l-38 -7l-11 57q157 29 241 56v25q-34 -9 -72 -9q-59 0 -111 22t-84 64.5t-32 102.5q0 65 34 109t90.5 65.5t123.5 21.5q109 0 179 -53q28 28 51 35.5t61 7.5h149v72
q0 79 43 122.5t132 43.5h86v-76h-90q-46 0 -64 -21.5t-18 -70.5v-70h144v-76h-144v-345h144v-76h-341v76h108v345h-147q-42 0 -68 -17q31 -49 31 -108q0 -81 -58 -137.5t-170 -95.5v-2q36 7 77 7q68 0 111 -27t43 -85q0 -50 -36.5 -80.5t-126.5 -46t-250 -15.5l-72 1v74h76z
M182 209.5q44 -33.5 120 -33.5q77 0 120 33.5t43 98.5q0 64 -44.5 98t-118.5 34q-75 0 -119.5 -34t-44.5 -98q0 -65 44 -98.5z" />
    <glyph glyph-name="g_i.ss05_dlig" horiz-adv-x="989" 
d="M149 -111q114 0 182 6.5t102.5 24t34.5 49.5q0 33 -25 47t-71 14q-38 0 -85.5 -7.5t-128.5 -22.5l-38 -7l-11 57q157 29 241 56v25q-34 -9 -72 -9q-59 0 -111 22t-84 64.5t-32 102.5q0 65 34 109t90.5 65.5t123.5 21.5q109 0 179 -53q28 28 51 35.5t61 7.5h172
q56 0 56 -58v-363h139v-76h-359v76h138v345h-144q-42 0 -68 -17q31 -49 31 -108q0 -81 -58 -137.5t-170 -95.5v-2q36 7 77 7q68 0 111 -27t43 -85q0 -50 -36.5 -80.5t-126.5 -46t-250 -15.5l-72 1v74h76zM183 209.5q44 -33.5 120 -33.5q77 0 120 33.5t43 98.5q0 64 -44.5 98
t-118.5 34q-75 0 -119.5 -34t-44.5 -98q0 -65 44 -98.5zM716 697q20 19 50 19t51 -19t21 -48t-21 -48t-51 -19t-50 19t-20 48t20 48z" />
    <glyph glyph-name="g_t.ss05_dlig" horiz-adv-x="1040" 
d="M148 -111q114 0 182 6.5t102.5 24t34.5 49.5q0 33 -25 47t-71 14q-38 0 -85.5 -7.5t-128.5 -22.5l-38 -7l-11 57q157 29 241 56v25q-34 -9 -72 -9q-59 0 -111 22t-84 64.5t-32 102.5q0 65 34 109t90.5 65.5t123.5 21.5q109 0 179 -53q28 28 51 35.5t61 7.5h144v126l89 27
v-153h156v-76h-156v-346l176 1v-76h-195q-35 0 -52.5 17t-17.5 53v351h-142q-42 0 -68 -17q31 -49 31 -108q0 -81 -58 -137.5t-170 -95.5v-2q36 7 77 7q68 0 111 -27t43 -85q0 -50 -36.5 -80.5t-126.5 -46t-250 -15.5l-72 1v74h76zM182 209.5q44 -33.5 120 -33.5
q77 0 120 33.5t43 98.5q0 64 -44.5 98t-118.5 34q-75 0 -119.5 -34t-44.5 -98q0 -65 44 -98.5z" />
    <glyph glyph-name="r_f.dlig" horiz-adv-x="700" 
d="M141 497h276v72q0 79 43 122.5t132 43.5h86v-76h-90q-46 0 -64 -21.5t-18 -70.5v-70h144v-76h-144v-345h144v-76h-341v76h108v345h-257v-421h-89v428q0 69 70 69z" />
    <glyph glyph-name="r_i.dlig" horiz-adv-x="701" 
d="M141 497h333q56 0 56 -58v-363h139v-76h-359v76h138v345h-288v-421h-89v428q0 69 70 69zM428 697q20 19 50 19t51 -19t21 -48t-21 -48t-51 -19t-50 19t-20 48t20 48z" />
    <glyph glyph-name="r_t.dlig" horiz-adv-x="720" 
d="M141 497h272v126l89 27v-153h156v-76h-156v-346l176 1v-76h-195q-35 0 -52.5 17t-17.5 53v351h-253v-421h-89v428q0 69 70 69z" />
    <glyph glyph-name="t_f.dlig" horiz-adv-x="750" 
d="M466 421h-245v-346l137 1h108v345zM22 497h110v126l89 27v-153h245v72q0 79 43 122.5t132 43.5h86v-76h-90q-46 0 -64 -21.5t-18 -70.5v-70h144v-76h-144v-345h144v-76h-497q-35 0 -52.5 17t-17.5 53v351h-110v76z" />
    <glyph glyph-name="t_t.dlig" horiz-adv-x="769" 
d="M397 0h-195q-35 0 -52.5 17t-17.5 53v351h-110v76h110v126l89 27v-153h241v126l89 27v-153h156v-76h-156v-346l176 1v-76h-195q-35 0 -52.5 17t-17.5 53v351h-241v-346l176 1v-76z" />
    <glyph glyph-name="uni0438.loclBGR" horiz-adv-x="628" 
d="M471 0v422l15 51h-25l-217 -473h-174v497h87v-420l-15 -52h25l217 472h173v-497h-86z" />
    <glyph glyph-name="uni0439.loclBGR" horiz-adv-x="628" 
d="M471 0v422l15 51h-25l-217 -473h-174v497h87v-420l-15 -52h25l217 472h173v-497h-86zM197.5 610.5q-42.5 48.5 -42.5 126.5h72q0 -56 20.5 -81t66.5 -25t66.5 25t20.5 81h72q0 -78 -42.5 -126.5t-116.5 -48.5t-116.5 48.5z" />
    <glyph glyph-name="uni045D.loclBGR" horiz-adv-x="628" 
d="M471 0v422l15 51h-25l-217 -473h-174v497h87v-420l-15 -52h25l217 472h173v-497h-86zM464 576l-314 80l17 68l314 -80z" />
    <glyph glyph-name="zero.ss12" horiz-adv-x="727" 
d="M197.5 36.5q-68.5 46.5 -104 128.5t-35.5 188q0 105 35.5 187t104.5 128.5t166 46.5t166 -46.5t104 -128.5t35 -187q0 -106 -35 -188t-104 -128.5t-166 -46.5q-98 0 -166.5 46.5zM205 146q55 -77 159 -77t158.5 77t54.5 207q0 129 -54.5 206t-158.5 77t-159 -77t-55 -206
q0 -130 55 -207z" />
    <glyph glyph-name="zero.dnom" horiz-adv-x="508" 
d="M63.5 378.5q25.5 57.5 74 90t116.5 32.5t116.5 -32.5t74 -90t25.5 -131.5q0 -113 -57 -183.5t-159 -70.5t-159 70.5t-57 183.5q0 74 25.5 131.5zM129 144l218 257q-36 36 -93 36q-69 0 -105.5 -51.5t-36.5 -138.5q0 -58 17 -103zM254 57q69 0 105.5 51t36.5 139
q0 59 -17 104l-217 -259q37 -35 92 -35z" />
    <glyph glyph-name="one.dnom" horiz-adv-x="354" 
d="M229 427l12 46h-19q-6 -99 -41.5 -163.5t-124.5 -92.5l-25 64q67 27 95.5 80.5t29.5 132.5h147v-494h-74v427z" />
    <glyph glyph-name="two.dnom" horiz-adv-x="468" 
d="M93 442q59 59 156 59q82 0 131.5 -43.5t49.5 -123.5q0 -111 -98 -172.5t-271 -90.5v-20l49 13h320v-64h-389v129q104 15 210 59.5t106 146.5q0 49 -27 75.5t-81 26.5q-68 0 -105 -41.5t-37 -135.5h-73q0 123 59 182z" />
    <glyph glyph-name="three.dnom" horiz-adv-x="476" 
d="M140 86.5q32 -29.5 102 -29.5q119 0 119 90q0 81 -86 81h-67v60h67q79 0 79 68q0 81 -112 81q-66 0 -96.5 -25.5t-30.5 -80.5h-73q0 84 53 127t149 43q86 0 134.5 -35.5t48.5 -94.5q0 -46 -25.5 -70.5t-74.5 -32.5v-20q53 -9 80 -33.5t27 -79.5q0 -67 -51 -104.5
t-139 -37.5q-99 0 -154 47t-55 148h73q0 -72 32 -101.5z" />
    <glyph glyph-name="four.dnom" horiz-adv-x="466" 
d="M185.5 331.5q56.5 67.5 65.5 162.5h73q-10 -111 -75 -193.5t-188 -128.5v-19l49 12h188v158h74v-158h60v-64h-60v-101h-74v101h-257v133q88 30 144.5 97.5z" />
    <glyph glyph-name="five.dnom" horiz-adv-x="494" 
d="M95 40q-57 47 -57 137h74q0 -59 34.5 -89.5t101.5 -30.5q62 0 96.5 32.5t34.5 90.5q0 55 -31 84t-86 29q-71 0 -119 -62l-97 58l42 205h328v-64h-268l-33 -157l17 -11q43 91 151 91q78 0 124 -45t46 -127q0 -88 -56 -138t-150 -50q-95 0 -152 47z" />
    <glyph glyph-name="six.dnom" horiz-adv-x="483" 
d="M94.5 424q53.5 70 182.5 70h134v-64h-139q-156 0 -177 -158l-18 -39h19q12 56 57 87.5t113 31.5q83 0 133 -48t50 -126q0 -85 -52.5 -135t-144.5 -50q-100 0 -155.5 60.5t-55.5 177.5q0 123 53.5 193zM149 91.5q35 -34.5 99 -34.5q61 0 94 31t33 90q0 53 -33.5 84
t-91.5 31q-65 0 -100.5 -31.5t-35.5 -86.5q0 -49 35 -83.5z" />
    <glyph glyph-name="seven.dnom" horiz-adv-x="410" 
d="M166 260.5q67 103.5 201 162.5v20l-47 -13h-297v64h364v-117q-110 -53 -161 -143t-51 -234h-76q0 157 67 260.5z" />
    <glyph glyph-name="eight.dnom" horiz-adv-x="467" 
d="M60.5 218.5q32.5 29.5 91.5 43.5v19q-47 12 -72 35t-25 69q0 59 50.5 87.5t128.5 28.5t128 -28.5t50 -87.5q0 -44 -25 -68t-73 -36v-19q125 -28 125 -127q0 -67 -54.5 -104.5t-150.5 -37.5t-151 37.5t-55 104.5q0 54 32.5 83.5zM134 78.5q33 -24.5 100 -24.5
q66 0 98.5 24.5t32.5 68.5q0 43 -32.5 67.5t-98.5 24.5q-67 0 -100 -24.5t-33 -67.5q0 -44 33 -68.5zM154.5 318q26.5 -16 79.5 -16q52 0 78 16t26 53t-26 53t-78 16q-53 0 -79.5 -16t-26.5 -53t26.5 -53z" />
    <glyph glyph-name="nine.dnom" horiz-adv-x="483" 
d="M388.5 69.5q-53.5 -69.5 -182.5 -69.5h-135v64h139q157 0 179 158l18 38h-20q-12 -56 -57 -87.5t-114 -31.5q-83 0 -132 48t-49 126q0 85 52.5 135.5t143.5 50.5q100 0 155.5 -60.5t55.5 -177.5q0 -124 -53.5 -193.5zM142 231.5q34 -30.5 91 -30.5q65 0 100 31t35 86
q0 50 -35 84.5t-98 34.5q-61 0 -94 -31t-33 -91q0 -53 34 -83.5z" />
    <glyph glyph-name="zero.numr" horiz-adv-x="508" 
d="M63.5 589.5q25.5 57.5 74 90t116.5 32.5t116.5 -32.5t74 -90t25.5 -131.5q0 -113 -57 -183.5t-159 -70.5t-159 70.5t-57 183.5q0 74 25.5 131.5zM129 355l218 257q-36 36 -93 36q-69 0 -105.5 -51.5t-36.5 -138.5q0 -58 17 -103zM254 268q69 0 105.5 51t36.5 139
q0 59 -17 104l-217 -259q37 -35 92 -35z" />
    <glyph glyph-name="one.numr" horiz-adv-x="354" 
d="M229 638l12 46h-19q-6 -99 -41.5 -163.5t-124.5 -92.5l-25 64q67 27 95.5 80.5t29.5 132.5h147v-494h-74v427z" />
    <glyph glyph-name="two.numr" horiz-adv-x="468" 
d="M93 653q59 59 156 59q82 0 131.5 -43.5t49.5 -123.5q0 -111 -98 -172.5t-271 -90.5v-20l49 13h320v-64h-389v129q104 15 210 59.5t106 146.5q0 49 -27 75.5t-81 26.5q-68 0 -105 -41.5t-37 -135.5h-73q0 123 59 182z" />
    <glyph glyph-name="three.numr" horiz-adv-x="476" 
d="M140 297.5q32 -29.5 102 -29.5q119 0 119 90q0 81 -86 81h-67v60h67q79 0 79 68q0 81 -112 81q-66 0 -96.5 -25.5t-30.5 -80.5h-73q0 84 53 127t149 43q86 0 134.5 -35.5t48.5 -94.5q0 -46 -25.5 -70.5t-74.5 -32.5v-20q53 -9 80 -33.5t27 -79.5q0 -67 -51 -104.5
t-139 -37.5q-99 0 -154 47t-55 148h73q0 -72 32 -101.5z" />
    <glyph glyph-name="four.numr" horiz-adv-x="466" 
d="M185.5 542.5q56.5 67.5 65.5 162.5h73q-10 -111 -75 -193.5t-188 -128.5v-19l49 12h188v158h74v-158h60v-64h-60v-101h-74v101h-257v133q88 30 144.5 97.5z" />
    <glyph glyph-name="five.numr" horiz-adv-x="494" 
d="M95 251q-57 47 -57 137h74q0 -59 34.5 -89.5t101.5 -30.5q62 0 96.5 32.5t34.5 90.5q0 55 -31 84t-86 29q-71 0 -119 -62l-97 58l42 205h328v-64h-268l-33 -157l17 -11q43 91 151 91q78 0 124 -45t46 -127q0 -88 -56 -138t-150 -50q-95 0 -152 47z" />
    <glyph glyph-name="six.numr" horiz-adv-x="483" 
d="M94.5 635q53.5 70 182.5 70h134v-64h-139q-156 0 -177 -158l-18 -39h19q12 56 57 87.5t113 31.5q83 0 133 -48t50 -126q0 -85 -52.5 -135t-144.5 -50q-100 0 -155.5 60.5t-55.5 177.5q0 123 53.5 193zM149 302.5q35 -34.5 99 -34.5q61 0 94 31t33 90q0 53 -33.5 84
t-91.5 31q-65 0 -100.5 -31.5t-35.5 -86.5q0 -49 35 -83.5z" />
    <glyph glyph-name="seven.numr" horiz-adv-x="410" 
d="M166 471.5q67 103.5 201 162.5v20l-47 -13h-297v64h364v-117q-110 -53 -161 -143t-51 -234h-76q0 157 67 260.5z" />
    <glyph glyph-name="eight.numr" horiz-adv-x="467" 
d="M60.5 429.5q32.5 29.5 91.5 43.5v19q-47 12 -72 35t-25 69q0 59 50.5 87.5t128.5 28.5t128 -28.5t50 -87.5q0 -44 -25 -68t-73 -36v-19q125 -28 125 -127q0 -67 -54.5 -104.5t-150.5 -37.5t-151 37.5t-55 104.5q0 54 32.5 83.5zM134 289.5q33 -24.5 100 -24.5
q66 0 98.5 24.5t32.5 68.5q0 43 -32.5 67.5t-98.5 24.5q-67 0 -100 -24.5t-33 -67.5q0 -44 33 -68.5zM154.5 529q26.5 -16 79.5 -16q52 0 78 16t26 53t-26 53t-78 16q-53 0 -79.5 -16t-26.5 -53t26.5 -53z" />
    <glyph glyph-name="nine.numr" horiz-adv-x="483" 
d="M388.5 280.5q-53.5 -69.5 -182.5 -69.5h-135v64h139q157 0 179 158l18 38h-20q-12 -56 -57 -87.5t-114 -31.5q-83 0 -132 48t-49 126q0 85 52.5 135.5t143.5 50.5q100 0 155.5 -60.5t55.5 -177.5q0 -124 -53.5 -193.5zM142 442.5q34 -30.5 91 -30.5q65 0 100 31t35 86
q0 50 -35 84.5t-98 34.5q-61 0 -94 -31t-33 -91q0 -53 34 -83.5z" />
    <glyph glyph-name="colon.case" horiz-adv-x="335" 
d="M106.5 121.5q-24.5 24.5 -24.5 60.5t24.5 60t60.5 24t61 -24.5t25 -59.5t-25 -60t-61 -25t-60.5 24.5zM106.5 465.5q-24.5 24.5 -24.5 60.5t24.5 60t60.5 24t61 -24.5t25 -59.5t-25 -60t-61 -25t-60.5 24.5z" />
    <glyph glyph-name="periodcentered.case" horiz-adv-x="335" 
d="M106.5 292.5q-24.5 24.5 -24.5 60.5t24.5 60t60.5 24t61 -24.5t25 -59.5t-25 -60t-61 -25t-60.5 24.5z" />
    <glyph glyph-name="bullet.case" horiz-adv-x="663" 
d="M203 136.5q-57 33.5 -89.5 90.5t-32.5 125t32.5 124t89.5 88.5t127 32.5q69 0 126.5 -32.5t91 -89t33.5 -123.5q0 -68 -33.5 -125t-91 -90.5t-126.5 -33.5q-70 0 -127 33.5z" />
    <glyph glyph-name="hyphen.case" horiz-adv-x="647" 
d="M564 389v-72h-482v72h482z" />
    <glyph glyph-name="endash.case" horiz-adv-x="849" 
d="M767 389v-72h-685v72h685z" />
    <glyph glyph-name="emdash.case" horiz-adv-x="1049" 
d="M967 389v-72h-885v72h885z" />
    <glyph glyph-name="parenleft.case" horiz-adv-x="432" 
d="M146.5 66q-64.5 112 -64.5 287t64.5 286.5t203.5 140.5v-72q-100 -25 -144.5 -115.5t-44.5 -239.5t44.5 -240t144.5 -116v-72q-139 29 -203.5 141z" />
    <glyph glyph-name="parenright.case" horiz-adv-x="432" 
d="M285.5 639q64.5 -112 64.5 -287t-64.5 -286.5t-203.5 -140.5v72q100 25 144.5 115.5t44.5 239.5t-44.5 240t-144.5 116v72q139 -29 203.5 -141z" />
    <glyph glyph-name="braceleft.case" horiz-adv-x="474" 
d="M241 529q0 60 -32 97.5t-83 44.5v109h266v-58h-188l-54 15v-25q162 -46 162 -184q0 -68 -39 -110t-112 -53v-25q73 -11 112 -53.5t39 -109.5q0 -137 -162 -183v-26l54 16h188v-59h-266v110q52 8 83.5 44.5t31.5 95.5q0 126 -159 143v69q159 16 159 142z" />
    <glyph glyph-name="braceright.case" horiz-adv-x="474" 
d="M233 177q0 -60 32 -97.5t83 -44.5v-109h-266v58h188l54 -15v25q-162 46 -162 184q0 68 39 110t112 53v25q-73 11 -112 53.5t-39 109.5q0 137 162 183v26l-54 -16h-188v59h266v-110q-52 -8 -83.5 -44.5t-31.5 -95.5q0 -126 159 -143v-69q-159 -16 -159 -142z" />
    <glyph glyph-name="bracketleft.case" horiz-adv-x="434" 
d="M351 780v-67h-190v-721h190v-67h-269v855h269z" />
    <glyph glyph-name="bracketright.case" horiz-adv-x="434" 
d="M83 -75v67h190v721h-190v67h269v-855h-269z" />
    <glyph glyph-name="braceleft.ss09" horiz-adv-x="599" 
d="M176.5 248q20.5 -22 55.5 -22q32 0 63.5 23t52.5 61q-21 38 -52.5 61t-63.5 23q-35 0 -55.5 -22t-20.5 -62t20.5 -62zM123 411q38 37 97 37q45 0 83.5 -21.5t67.5 -59.5q7 25 7 55q0 64 -42.5 118.5t-127.5 87.5v107h307v-59h-222l-60 15v-25q100 -31 151 -93t51 -137
q0 -63 -29 -126q29 -61 29 -126q0 -75 -51.5 -137.5t-150.5 -92.5v-25l60 15h222v-59h-307v107q85 33 127.5 87.5t42.5 118.5q0 31 -7 55q-29 -38 -67.5 -59.5t-81.5 -21.5q-58 0 -97.5 36t-39.5 102q0 64 38 101z" />
    <glyph glyph-name="braceright.ss09" horiz-adv-x="595" 
d="M420.5 372q-20.5 22 -55.5 22q-32 0 -63.5 -23t-52.5 -61q21 -38 52.5 -61t63.5 -23q35 0 55.5 22t20.5 62t-20.5 62zM82 -56h222l60 -15v25q-100 31 -151 93t-51 137q0 63 29 126q-29 61 -29 126q0 75 51.5 137.5t150.5 92.5v25l-60 -15h-222v59h307v-107
q-85 -33 -127.5 -87.5t-42.5 -118.5q0 -31 7 -55q29 38 67.5 59.5t81.5 21.5q58 0 97.5 -36t39.5 -102q0 -64 -38 -101t-97 -37q-45 0 -83.5 21.5t-67.5 59.5q-7 -25 -7 -55q0 -64 42.5 -118.5t127.5 -87.5v-107h-307v59z" />
    <glyph glyph-name="braceleft.ss09.case" horiz-adv-x="599" 
d="M176.5 291q20.5 -22 55.5 -22q32 0 63.5 23t52.5 61q-21 38 -52.5 61t-63.5 23q-35 0 -55.5 -22t-20.5 -62t20.5 -62zM123 454q38 37 97 37q45 0 83.5 -21.5t67.5 -59.5q7 25 7 55q0 64 -42.5 118.5t-127.5 87.5v107h307v-59h-222l-60 15v-25q100 -31 151 -93t51 -137
q0 -63 -29 -126q29 -61 29 -126q0 -75 -51.5 -137.5t-150.5 -92.5v-25l60 15h222v-59h-307v107q85 33 127.5 87.5t42.5 118.5q0 31 -7 55q-29 -38 -67.5 -59.5t-81.5 -21.5q-58 0 -97.5 36t-39.5 102q0 64 38 101z" />
    <glyph glyph-name="braceright.ss09.case" horiz-adv-x="595" 
d="M420.5 415q-20.5 22 -55.5 22q-32 0 -63.5 -23t-52.5 -61q21 -38 52.5 -61t63.5 -23q35 0 55.5 22t20.5 62t-20.5 62zM82 -13h222l60 -15v25q-100 31 -151 93t-51 137q0 63 29 126q-29 61 -29 126q0 75 51.5 137.5t150.5 92.5v25l-60 -15h-222v59h307v-107
q-85 -33 -127.5 -87.5t-42.5 -118.5q0 -31 7 -55q29 38 67.5 59.5t81.5 21.5q58 0 97.5 -36t39.5 -102q0 -64 -38 -101t-97 -37q-45 0 -83.5 21.5t-67.5 59.5q-7 -25 -7 -55q0 -64 42.5 -118.5t127.5 -87.5v-107h-307v59z" />
    <glyph glyph-name="guillemotleft.case" horiz-adv-x="715" 
d="M363 73l-281 280l281 279l58 -51l-229 -228l229 -229zM576 73l-281 280l281 279l58 -51l-229 -228l229 -229z" />
    <glyph glyph-name="guillemotright.case" horiz-adv-x="715" 
d="M352 632l281 -280l-281 -279l-58 51l229 228l-229 229zM309 352l-229 229l58 51l281 -280l-281 -279l-58 51z" />
    <glyph glyph-name="guilsinglleft.case" horiz-adv-x="501" 
d="M363 73l-281 280l281 279l58 -51l-229 -228l229 -229z" />
    <glyph glyph-name="guilsinglright.case" horiz-adv-x="501" 
d="M138 632l281 -280l-281 -279l-58 51l229 228l-229 229z" />
    <glyph glyph-name="at.case" horiz-adv-x="1042" 
d="M280 -36.5q-112 53.5 -171.5 153t-59.5 232.5t58 234.5t164.5 157t247.5 55.5q134 0 235.5 -51t157 -145.5t55.5 -219.5q0 -85 -26 -150t-73 -100.5t-110 -35.5h-29q-25 0 -40.5 14t-14.5 38l17 84h-27q-18 -63 -72.5 -97.5t-127.5 -34.5q-64 0 -113 31t-76.5 87.5
t-27.5 130.5t27.5 130t76.5 87t113 31q74 0 128 -36t72 -98h27l-17 53v71h77v-427h19q37 0 65 27t43.5 76t15.5 111q0 109 -46.5 190t-131.5 124.5t-197 43.5q-119 0 -209 -47.5t-139 -134t-49 -199.5t50.5 -197.5t145.5 -131t227 -46.5h349v-64h-349q-153 0 -265 53.5z
M375.5 216q45.5 -48 124.5 -48t126 48t47 131t-47 130.5t-126 47.5q-80 0 -125 -47.5t-45 -130.5t45.5 -131z" />
    <glyph glyph-name="ampersand.ss11" horiz-adv-x="753" 
d="M127 51.5q-67 51.5 -67 143.5q0 73 38 111t110 52v25q-68 11 -103 48.5t-35 99.5q0 78 62.5 126t178.5 48h222v-73h-222q-78 0 -115.5 -32t-37.5 -88q0 -49 32 -77.5t91 -28.5h232v121l88 28v-149h109v-71h-109v-278q0 -29 -13.5 -43t-42.5 -14h-228q-123 0 -190 51.5z
M317 76h196v259h-232q-63 0 -98 -32t-35 -91q0 -136 169 -136z" />
    <glyph glyph-name="plus.case" horiz-adv-x="647" 
d="M287 389v205h72v-205h205v-72h-205v-205h-72v205h-205v72h205z" />
    <glyph glyph-name="minus.case" horiz-adv-x="647" 
d="M564 389v-72h-482v72h482z" />
    <glyph glyph-name="multiply.case" horiz-adv-x="556" 
d="M278 403l145 145l51 -50l-145 -145l145 -146l-51 -50l-145 145l-145 -145l-51 50l146 146l-146 145l51 50z" />
    <glyph glyph-name="divide.case" horiz-adv-x="647" 
d="M564 390v-72h-482v72h482zM262.5 226.5q24.5 24.5 60.5 24.5t61 -24.5t25 -59.5q0 -36 -25 -60.5t-61 -24.5q-37 0 -61 24.5t-24 60.5q0 35 24.5 59.5zM262.5 599q24.5 24 60.5 24t61 -24.5t25 -59.5t-25 -60t-61 -25t-60.5 24.5t-24.5 60.5t24.5 60z" />
    <glyph glyph-name="equal.case" horiz-adv-x="647" 
d="M564 491v-71h-482v71h482zM82 287h482v-72h-482v72z" />
    <glyph glyph-name="notequal.case" horiz-adv-x="647" 
d="M365 491l86 149l57 -33l-67 -116h123v-71h-164l-77 -133h241v-72h-282l-86 -149l-57 34l66 115h-123v72h165l77 133h-242v71h283z" />
    <glyph glyph-name="greater.case" horiz-adv-x="648" 
d="M110 151l-28 69l395 131l-395 136l28 68l456 -163v-82z" />
    <glyph glyph-name="less.case" horiz-adv-x="648" 
d="M538 555l28 -69l-395 -131l395 -136l-28 -68l-456 163v82z" />
    <glyph glyph-name="greaterequal.case" horiz-adv-x="648" 
d="M110 214l-28 69l395 131l-395 136l28 68l456 -163v-82zM564 159v-72h-482v72h482z" />
    <glyph glyph-name="lessequal.case" horiz-adv-x="648" 
d="M539 618l27 -68l-395 -132l395 -135l-27 -69l-457 163v83zM82 159h482v-71h-482v71z" />
    <glyph glyph-name="plusminus.case" horiz-adv-x="647" 
d="M287 456v143h72v-143h205v-71h-205v-142h-72v142h-205v71h205zM82 178h482v-71h-482v71z" />
    <glyph glyph-name="approxequal.case" horiz-adv-x="644" 
d="M117.5 497q35.5 36 84.5 36q35 0 65 -11.5t70 -33.5q34 -18 55.5 -26.5t43.5 -8.5q54 0 54 72h72q0 -72 -35.5 -107.5t-85.5 -35.5q-35 0 -64.5 11.5t-69.5 32.5q-34 18 -55.5 26.5t-43.5 8.5q-54 0 -54 -72h-72q0 72 35.5 108zM117.5 288q35.5 36 84.5 36q35 0 65 -11.5
t70 -33.5q34 -18 55.5 -26.5t43.5 -8.5q54 0 54 72h72q0 -72 -35.5 -107.5t-85.5 -35.5q-35 0 -64.5 11.5t-69.5 32.5q-34 18 -55.5 26.5t-43.5 8.5q-54 0 -54 -72h-72q0 72 35.5 108z" />
    <glyph glyph-name="asciitilde.case" horiz-adv-x="644" 
d="M117.5 393q35.5 36 84.5 36q35 0 65 -11.5t70 -33.5q34 -18 55.5 -26.5t43.5 -8.5q54 0 54 72h72q0 -72 -35.5 -107.5t-85.5 -35.5q-35 0 -64.5 11.5t-69.5 32.5q-34 18 -55.5 26.5t-43.5 8.5q-54 0 -54 -72h-72q0 72 35.5 108z" />
    <glyph glyph-name="logicalnot.case" horiz-adv-x="594" 
d="M564 472v-240h-71v169h-411v71h482z" />
    <glyph glyph-name="infinity.case" horiz-adv-x="1022" 
d="M108 455q26 45 72 69.5t103 24.5q53 0 94 -20.5t70 -49.5t64 -74q35 45 64 74t70 49.5t94 20.5q57 0 103 -24.5t72 -69.5t26 -102t-26 -102t-72 -69.5t-103 -24.5q-53 0 -94 20.5t-70 49.5t-64 74q-35 -45 -64 -74t-70 -49.5t-94 -20.5q-57 0 -103 24.5t-72 69.5t-26 102
t26 102zM196 262q35 -34 94 -34q55 0 93.5 30.5t87.5 94.5q-49 64 -87.5 94.5t-93.5 30.5q-59 0 -94 -34t-35 -91t35 -91zM638.5 258.5q38.5 -30.5 93.5 -30.5q59 0 94 34t35 91t-35 91t-94 34q-55 0 -93.5 -30.5t-87.5 -94.5q49 -64 87.5 -94.5z" />
    <glyph glyph-name="arrowright.case" horiz-adv-x="756" 
d="M528 391l-191 191l56 50l281 -280l-281 -279l-56 50l194 193h-449v75h446z" />
    <glyph glyph-name="arrowleft.case" horiz-adv-x="756" 
d="M674 316h-449l194 -193l-56 -50l-281 279l281 280l56 -50l-191 -191h446v-75z" />
    <glyph glyph-name="arrowboth.case" horiz-adv-x="1163" 
d="M935 474l-191 191l56 50l281 -280l-281 -279l-56 50l194 193h-449v75h446zM363 550l56 -50l-191 -191h446v-75h-449l194 -193l-56 -50l-281 279z" />
    <glyph glyph-name="arrowupdn.case" horiz-adv-x="873" 
d="M313 705l-191 -191l-50 56l280 281l279 -281l-50 -56l-193 194v-449h-75v446zM292 191l191 -191v446h75v-449l193 194l50 -56l-279 -281l-280 281z" />
    <glyph glyph-name="uni0306.cy" 
d="M124.5 610.5q-42.5 48.5 -42.5 126.5h72q0 -56 20.5 -81t66.5 -25t66.5 25t20.5 81h72q0 -78 -42.5 -126.5t-116.5 -48.5t-116.5 48.5z" />
    <glyph glyph-name="uni030C.alt" 
d="M161 735v-259h-79v259h79z" />
    <glyph glyph-name="uni0337.L" 
d="M404 454l18 -68l-352 -96l-18 69z" />
    <glyph glyph-name="uni0335.case" 
d="M423 393v-72h-353v72h353z" />
    <glyph glyph-name="uni0336.case" 
d="M750 608v-72h-708v72h708z" />
    <glyph glyph-name="uni0326.loclMAH" 
d="M192 -71l-54 -165l-76 21l54 166z" />
    <glyph glyph-name="uni030C.alt.t" 
d="M361 735v-180h-79v180h79z" />
    <glyph glyph-name="uni0335.t" 
d="M348 320v-67h-306v67h306z" />
    <glyph glyph-name="_I.01" horiz-adv-x="233" 
d="M161 705v-705h-89v705h89z" />
    <glyph glyph-name="_c.cent" horiz-adv-x="590" 
d="M80.5 485.5q30.5 58.5 88.5 92.5t136 34q54 0 105.5 -21t87.5 -66t42 -113h-89q-10 65 -49 94.5t-97 29.5q-81 0 -124 -51.5t-43 -130.5q0 -80 43 -131.5t124 -51.5q58 0 97 29.5t49 94.5h89q-6 -68 -42 -113t-87.5 -66t-105.5 -21q-78 0 -136 34t-88.5 92.5t-30.5 132.5
q0 73 30.5 131.5z" />
    <glyph glyph-name="_degree.low" horiz-adv-x="478" 
d="M130.5 20q-47.5 28 -74 75.5t-26.5 104.5t26.5 104.5t74 75.5t108.5 28t109 -28t74 -75.5t26 -104.5t-26 -104.5t-74 -75.5t-109 -28t-108.5 28zM118.5 131.5q17.5 -31.5 49.5 -50t71 -18.5t71 18.5t49.5 50t17.5 68.5t-17.5 68.5t-49.5 50t-71 18.5t-71 -18.5t-49.5 -50
t-17.5 -68.5t17.5 -68.5z" />
    </font>
</defs>
</svg>
